<svg xmlns="http://www.w3.org/2000/svg" xmlns:xlink="http://www.w3.org/1999/xlink">
   <symbol id="4k" viewBox="0 0 25 25">
      <path d="M8.123 14.49c.088.09.196.135.326.135a.455.455 0 00.458-.466V8.485h1.892a.4.4 0 00.3-.116.43.43 0 00.123-.314.4.4 0 00-.124-.305.386.386 0 00-.299-.125h-4.71a.414.414 0 00-.308.125.416.416 0 00-.114.305c0 .126.038.23.114.314a.431.431 0 00.308.116h1.902v5.674c0 .131.044.242.132.332zM15.18 14.33c.089.196.227.295.414.295.1 0 .182-.024.247-.072a.545.545 0 00.167-.224l2.606-6.086c.07-.155.07-.295 0-.42-.065-.132-.185-.198-.361-.198-.106 0-.19.02-.255.063a.459.459 0 00-.159.215l-2.257 5.413-2.215-5.413c-.076-.185-.217-.278-.422-.278-.182 0-.306.066-.37.197-.065.132-.056.299.026.502l2.58 6.005z"/>
      <path fill-rule="evenodd" d="M1.403 3.403C1.66 3.145 2.01 3 2.375 3h19.583a1.375 1.375 0 011.375 1.375v13.333a1.375 1.375 0 01-1.375 1.375H2.375A1.375 1.375 0 011 17.708V4.375c0-.365.145-.714.403-.972zM2.5 4.5v13.083h19.333V4.5H2.5z" clip-rule="evenodd"/>
      <path d="M6.208 22.5a.75.75 0 01.75-.75h10.417a.75.75 0 010 1.5H6.958a.75.75 0 01-.75-.75z"/>
   </symbol>
   <symbol id="arrow-down" viewBox="0 0 14 9">
      <path stroke-linecap="round" stroke-linejoin="round" stroke-width="2" d="M12.833 1.5L7 7.333 1.166 1.5"/>
   </symbol>
   <symbol id="arrow-drop" viewBox="0 0 14 8">
      <path d="M2 0l5 5 5-5 2 1-7 7-7-7 2-1z"/>
   </symbol>
   <symbol id="calendar" viewBox="0 0 16 18">
      <path d="M15.5 15.667V4c0-.92-.748-1.667-1.667-1.667h-1.666V.667H10.5v1.666h-5V.667H3.833v1.666H2.167C1.247 2.333.5 3.081.5 4v11.667c0 .919.748 1.666 1.667 1.666h11.666c.92 0 1.667-.747 1.667-1.666zM5.5 14H3.833v-1.667H5.5V14zm0-3.333H3.833V9H5.5v1.667zM8.833 14H7.167v-1.667h1.666V14zm0-3.333H7.167V9h1.666v1.667zM12.167 14H10.5v-1.667h1.667V14zm0-3.333H10.5V9h1.667v1.667zM13.833 6.5H2.167V4.833h11.666V6.5z"/>
   </symbol>
   <symbol id="car" viewBox="0 0 25 25">
      <path d="M5.938 12.384a1.345 1.345 0 01.923.356c.116.109.212.24.287.394.075.154.11.314.102.481 0 .173-.034.333-.102.48-.069.148-.16.276-.277.385a1.436 1.436 0 01-.42.27c-.164.07-.335.102-.513.096a1.345 1.345 0 01-.923-.356 1.342 1.342 0 01-.287-.394.987.987 0 01-.102-.481c0-.173.034-.333.102-.48.068-.148.16-.276.277-.385.116-.11.256-.2.42-.27.164-.07.335-.102.513-.096zm13.124 0a1.345 1.345 0 01.922.356c.117.109.212.24.288.394.075.154.109.314.102.481 0 .173-.034.333-.102.48-.069.148-.161.276-.277.385a1.437 1.437 0 01-.42.27c-.165.07-.335.102-.513.096a1.345 1.345 0 01-.923-.356 1.343 1.343 0 01-.287-.394.986.986 0 01-.103-.481c0-.173.035-.333.103-.48.068-.148.16-.276.277-.385.116-.11.256-.2.42-.27.164-.07.335-.102.513-.096zm3.557-2.461l-.676.625c.013.032.048.128.102.288l.195.567c.075.218.16.452.257.702.095.25.177.478.245.683.069.205.13.378.185.52.055.14.079.21.072.21v6.25c0 .174-.034.334-.103.481a1.23 1.23 0 01-.277.385 1.436 1.436 0 01-.42.269c-.164.07-.335.103-.513.096h-1.312a1.345 1.345 0 01-.923-.356 1.34 1.34 0 01-.287-.394.987.987 0 01-.102-.48H5.938c0 .173-.034.333-.103.48a1.23 1.23 0 01-.276.385 1.436 1.436 0 01-.42.269c-.165.07-.336.103-.513.096H3.313a1.345 1.345 0 01-.923-.356 1.34 1.34 0 01-.287-.394.987.987 0 01-.102-.48v-6.25l.072-.202.184-.52.246-.692c.09-.25.171-.484.246-.702.076-.217.144-.407.205-.567.062-.16.096-.256.103-.288l-.677-.625H2v-1.23h.934l.584.557.759-2.144c.11-.314.267-.6.472-.856.205-.256.447-.478.728-.663.28-.186.577-.33.892-.433A3.289 3.289 0 017.394 5h10.212c.355 0 .694.051 1.015.154.321.102.622.243.902.423s.52.4.718.663c.198.263.359.552.482.866l.758 2.144.585-.558h.933v1.23h-.38zM7.394 6.23c-.43 0-.814.115-1.148.346-.335.23-.575.535-.718.913l-.872 2.433h15.687l-.871-2.433a1.849 1.849 0 00-.708-.913 1.992 1.992 0 00-1.158-.346H7.394zm9.043 11.836l-1.066-1.99H9.629l-1.066 1.99v.47h7.874v-.47zm5.25.47v-4.826l-.062-.173a22.44 22.44 0 01-.154-.452 10.297 10.297 0 00-.215-.586 7.979 7.979 0 01-.215-.606 5.258 5.258 0 00-.175-.49 1.573 1.573 0 01-.092-.25H4.226a6.267 6.267 0 00-.093.25c-.047.134-.105.294-.174.48-.068.186-.14.388-.215.606l-.205.596a7.75 7.75 0 01-.164.442c-.048.116-.069.177-.062.183v4.827H7.25v-.76l1.559-2.932h7.382l1.558 2.932v.76h3.938z"/>
   </symbol>
   <symbol id="cold" viewBox="0 0 25 25">
      <path d="M21.224 13.195l-4.255-3.039 4.255-3.04 1.967.656.493-1.482-1.809-.603v-1.78h-1.563v1.94l-3.906 2.791V4.193l1.996-1.33-.867-1.3-1.91 1.273-1.91-1.273-.867 1.3 1.996 1.33v4.445L12.5 6.964v1.92l1.781 1.272-1.781 1.272v1.92l2.344-1.674v5.282l2.691 1.794.867-1.3-1.996-1.33v-4.446l3.907 2.79v1.942h1.562v-1.78l1.81-.604-.494-1.482-1.967.655zM9.375 17.97a2.343 2.343 0 11-4.688 0h4.688z"/>
      <path d="M7.031 23.438a5.463 5.463 0 01-3.906-9.29v-8.68a3.906 3.906 0 017.812 0v8.68a5.463 5.463 0 01-3.906 9.29zm0-20.313a2.346 2.346 0 00-2.344 2.344v9.361l-.259.234a3.906 3.906 0 105.206 0l-.26-.233V5.469a2.346 2.346 0 00-2.343-2.344z"/>
   </symbol>
   <symbol id="cup-hot" viewBox="0 0 25 25">
      <path fill-rule="evenodd" d="M2.658 9.875a.656.656 0 00-.64.798l2.168 9.757A3.281 3.281 0 007.388 23h7.603a3.28 3.28 0 003.202-2.57l.172-.774a3.938 3.938 0 001.706-7.684l.29-1.299a.657.657 0 00-.64-.798H2.658zm16.407 8.531c-.14 0-.278-.01-.415-.032l1.138-5.117a2.626 2.626 0 01-.723 5.15zm-13.598 1.74l-1.991-8.959h15.427l-1.99 8.959a1.968 1.968 0 01-1.922 1.542H7.388a1.969 1.969 0 01-1.921-1.542z" clip-rule="evenodd"/>
      <path d="M7.777 3.05l-.004.005-.018.025a5.465 5.465 0 00-.268.407c-.07.112-.131.23-.185.35-.034.079-.045.121-.049.135v.006a.778.778 0 00.12.325c.098.175.233.357.404.584l.013.016c.155.207.341.455.486.713.147.262.289.597.289.978 0 .246-.086.483-.157.648a4.344 4.344 0 01-.265.51 7.146 7.146 0 01-.332.5l-.023.033-.007.01-.003.004a.656.656 0 11-1.051-.787l.004-.005.018-.025c.096-.131.185-.267.268-.407.07-.112.132-.229.185-.35.034-.079.045-.12.049-.135a.778.778 0 00-.118-.331 5.69 5.69 0 00-.406-.584l-.013-.016a6.693 6.693 0 01-.486-.713 2.008 2.008 0 01-.289-.977c0-.247.086-.484.157-.649.077-.181.176-.36.265-.51.103-.17.214-.338.332-.5l.033-.046a.656.656 0 011.051.786zm3.938 0l-.004.005-.019.025a5.464 5.464 0 00-.267.407c-.07.112-.132.23-.186.35-.034.079-.044.121-.048.135v.006a.78.78 0 00.12.325c.098.175.233.357.404.584l.013.016c.155.207.341.455.485.713.147.262.29.597.29.978 0 .246-.086.483-.157.648a4.353 4.353 0 01-.265.51 7.17 7.17 0 01-.332.5l-.024.033-.006.01-.003.004a.656.656 0 11-1.051-.787l.004-.005.018-.025c.095-.131.184-.267.268-.407.07-.112.132-.229.185-.35.034-.079.044-.12.048-.135a.78.78 0 00-.118-.331 5.699 5.699 0 00-.405-.584l-.013-.016a6.684 6.684 0 01-.486-.713 2.009 2.009 0 01-.289-.977c0-.247.085-.484.156-.649.078-.181.176-.36.265-.51.104-.17.215-.338.332-.5l.033-.046a.656.656 0 111.052.786zm3.937 0l-.004.005-.018.025a5.368 5.368 0 00-.268.407c-.069.112-.13.23-.185.35-.034.079-.044.121-.048.135v.006a.78.78 0 00.119.325c.098.175.234.357.404.584l.013.016c.155.207.342.455.486.713.147.262.289.597.289.978 0 .246-.085.483-.156.648a4.204 4.204 0 01-.266.51 7.071 7.071 0 01-.33.5l-.025.033-.007.01-.002.004a.657.657 0 01-1.052-.787l.004-.005.018-.025c.096-.131.185-.267.268-.407.07-.112.132-.229.185-.35.034-.079.045-.12.049-.135a.777.777 0 00-.118-.331 5.683 5.683 0 00-.406-.584l-.013-.016a6.7 6.7 0 01-.486-.713 2.009 2.009 0 01-.288-.977c0-.247.085-.484.156-.649.077-.181.176-.36.265-.51.104-.17.214-.338.332-.5l.033-.046a.657.657 0 011.051.786z"/>
   </symbol>
   <symbol id="foot" viewBox="0 0 25 21">
      <path d="M24.86 6.21c-.065.528-.134 1.055-.192 1.583-.191 1.757-.378 3.516-.567 5.272-.134 1.245-.27 2.488-.402 3.732-.22 2.068-1.898 3.766-3.967 4.007-2.46.288-4.645-1.283-5.088-3.71-.165-.903-.218-1.826-.318-2.74-.174-1.605-.345-3.21-.518-4.815-.117-1.084-.245-2.166-.347-3.25-.276-2.934 1.62-5.52 4.505-6.16 3.105-.688 6.275 1.442 6.8 4.568.027.166.062.331.093.496v1.018-.001zm-5.787 2.859a8.883 8.883 0 00-3.534.753c-.172.077-.22.165-.2.345.127 1.123.241 2.247.364 3.37.117 1.076.21 2.155.365 3.224a3.082 3.082 0 002.952 2.627c1.525.048 2.844-.95 3.167-2.43.104-.48.137-.974.191-1.463.193-1.765.378-3.531.573-5.296.019-.162-.014-.243-.17-.315-1.162-.538-2.384-.8-3.708-.815zm4.066-.625c.09-.89.224-1.745.253-2.604.074-2.23-1.504-4.034-3.756-4.35-2.332-.327-4.63 1.553-4.723 3.902-.025.617.07 1.239.119 1.857.03.38.082.759.125 1.152 2.673-1.05 5.31-1.039 7.982.044v-.001zM.001 5.192c.082-.377.14-.76.25-1.13C.997 1.536 3.459-.168 6.079.016c2.676.189 4.856 2.166 5.277 4.776.136.841.026 1.674-.065 2.509-.172 1.588-.34 3.178-.512 4.766-.178 1.645-.332 3.293-.543 4.934-.253 1.957-1.95 3.574-3.924 3.802-2.52.29-4.705-1.319-5.12-3.815-.156-.93-.215-1.876-.317-2.815L.311 8.925C.223 8.107.137 7.288.048 6.47.038 6.382.016 6.296 0 6.21V5.192h.001zM5.662 9.07a8.857 8.857 0 00-3.565.76c-.172.077-.226.167-.191.349.042.221.057.448.081.672.212 1.958.411 3.917.639 5.874.173 1.49 1.514 2.648 3.045 2.667 1.54.02 2.897-1.092 3.117-2.582.116-.782.185-1.57.27-2.357.155-1.412.303-2.825.46-4.237.02-.18-.031-.27-.2-.347-1.15-.525-2.357-.782-3.656-.8v.001zM9.7 8.441c.048-.424.099-.83.137-1.237.067-.721.197-1.438.08-2.17C9.599 3.048 7.87 1.512 5.88 1.464c-2.105-.052-3.935 1.356-4.317 3.37-.094.498-.077 1.026-.049 1.537.037.671.135 1.34.21 2.03 2.678-1.052 5.322-1.04 7.977.04z"/>
   </symbol>
   <symbol id="info" viewBox="0 0 30 30">
      <path d="M18.648 0c2.01 0 3.015 1.368 3.015 2.936 0 1.957-1.746 3.768-4.019 3.768-1.903 0-3.013-1.125-2.96-2.985 0-1.565 1.32-3.719 3.964-3.719zm-6.185 30c-1.587 0-2.75-.978-1.64-5.286l1.822-7.638c.316-1.221.369-1.712 0-1.712-.476 0-2.534.843-3.753 1.676L8.1 15.72c3.858-3.279 8.296-5.2 10.201-5.2 1.586 0 1.85 1.909 1.058 4.845l-2.087 8.027c-.369 1.418-.211 1.907.16 1.907.475 0 2.035-.588 3.568-1.81l.9 1.22C18.147 28.53 14.047 30 12.463 30z"/>
   </symbol>
   <symbol id="male" viewBox="0 0 20 20">
      <g clip-path="url(#clip0_601_590)">
         <path d="M19 5.892v8.223c0 .765-.296 1.5-.824 2.04a2.777 2.777 0 01-1.988.845H3.813a2.777 2.777 0 01-1.99-.845A2.923 2.923 0 011 14.115V5.892l8.714 5.26a.552.552 0 00.572 0L19 5.891zM16.187 2c.692 0 1.36.261 1.876.735a2.91 2.91 0 01.92 1.83L10 9.985l-8.983-5.42a2.91 2.91 0 01.92-1.83A2.773 2.773 0 013.812 2h12.376z"/>
      </g>
   </symbol>
   <symbol id="phone" viewBox="0 0 20 20">
      <g clip-path="url(#clip0_601_123)">
         <path d="M14.65 14.085l.163-.121a1.853 1.853 0 012.592.389l1.055 1.428a1.853 1.853 0 01-.389 2.591l-.163.12-3.258-4.408zM4.873.857l.165-.122a1.853 1.853 0 012.592.39l1.055 1.427a1.853 1.853 0 01-.389 2.592l-.164.122L4.873.857z"/>
         <path d="M17.908 18.494a4.527 4.527 0 01-2.472.88l-1.147.056a4.527 4.527 0 01-3.86-1.83L3.535 8.268a4.527 4.527 0 01-.618-4.228l.39-1.08A4.527 4.527 0 014.874.857l3.258 4.41-.678.964a1.368 1.368 0 00.02 1.6l4.53 6.13c.35.474.964.67 1.524.488l1.121-.364 3.259 4.409z"/>
      </g>
   </symbol>
   <symbol id="robe" viewBox="0 0 25 25">
      <path d="M23 7.414l-.007 14.464c.002.053.019.628-.422.944a.996.996 0 01-.52.178H3.157c-.043.003-.62.036-.956-.414a1.062 1.062 0 01-.2-.69V7.414c.007-.023.031-.07.039-.133.227-1.833 1.693-3.407 3.52-3.656a2.683 2.683 0 001.523-.7c.357-.323.74-.618 1.112-.925h8.613c.016.021.027.047.048.063.579.466 1.157.934 1.742 1.393a.514.514 0 00.28.09A4.297 4.297 0 0122.84 6.7c.064.235.107.475.16.713zM3.231 15.97h7.413c.005-.034.01-.055.01-.074 0-1.831.002-3.663-.004-5.493a.442.442 0 00-.106-.25C9.18 8.445 7.804 6.746 6.451 5.03c-.188-.238-.37-.27-.628-.222-1.548.284-2.59 1.523-2.592 3.097V15.972v-.001zm18.539.006v-.145c0-2.665 0-5.33-.002-7.994 0-.164-.018-.327-.04-.49-.188-1.342-1.418-2.481-2.759-2.565a.341.341 0 00-.327.145c-1.39 1.74-2.785 3.475-4.174 5.215a.57.57 0 00-.117.328c-.007 1.762-.005 3.525-.005 5.288v.217h7.424zM3.242 18.433h18.512v-1.207H3.242v1.207zm9.874-2.457v-.257c0-1.893-.002-3.786.005-5.678 0-.111.046-.243.115-.33 1.183-1.485 2.374-2.964 3.563-4.446l.813-1.015-.953-.764c-.042.046-.07.075-.095.106-1.518 1.892-3.038 3.783-4.55 5.679a.6.6 0 00-.123.345c-.007 2.05-.006 4.1-.006 6.15v.21H13.116zm-2.465 3.714H3.246v2.062h7.404V19.69h.001zm3.705 2.065h7.398v-2.067h-7.398v2.067zM9.734 3.24L12.5 6.687l2.767-3.447H9.734zm1.978 4.43L8.348 3.48l-.958.771 3.533 4.401.788-.982zm1.39 14.09v-2.067h-1.206v2.066h1.206z"/>
   </symbol>
   <symbol id="safe" viewBox="0 0 25 25">
      <path d="M3.313 3.969A1.969 1.969 0 015.28 2h15.75A1.969 1.969 0 0123 3.969V21.03A1.969 1.969 0 0121.031 23H5.281a1.969 1.969 0 01-1.968-1.969v-1.968h-.657a.656.656 0 110-1.313h.656v-4.594h-.656a.656.656 0 110-1.312h.656V7.25h-.656a.656.656 0 110-1.313h.656V3.97zm1.968-.656a.656.656 0 00-.656.656V21.03a.656.656 0 00.656.657h15.75a.656.656 0 00.657-.657V3.97a.656.656 0 00-.657-.656H5.281z"/>
      <path d="M19.719 9.875a.656.656 0 01.656.656v3.938a.656.656 0 11-1.312 0V10.53a.656.656 0 01.656-.656zM8.337 7.859a.656.656 0 01.93 0l1.43 1.43a3.942 3.942 0 014.562 0l1.43-1.43a.657.657 0 11.928.93l-1.43 1.43a3.936 3.936 0 010 4.562l1.43 1.43a.657.657 0 11-.927.93l-1.431-1.43a3.94 3.94 0 01-4.562 0l-1.43 1.43a.657.657 0 01-.93-.93l1.43-1.43a3.941 3.941 0 010-4.562l-1.43-1.43a.656.656 0 010-.93zm2.785 2.785a2.626 2.626 0 103.649 3.778 2.626 2.626 0 00-3.649-3.778z"/>
   </symbol>
   <symbol id="snowflake" viewBox="0 0 25 25">
      <path d="M6.606 10.094l4.338 2.52-3.908 2.269-4.677-1.254v1.618l3.655.98-.985 3.674 1.4.809 1.165-4.344 4.125-2.396v4.311l-3.476 3.476 1.401.809 2.954-2.954 2.887 2.888 1.401-.81-3.605-3.604v-4.115l4.053 2.353 1.186 4.424 1.4-.81-.994-3.712 3.73-1V13.61l-4.711 1.262-3.889-2.258 4.32-2.508 4.28 1.147V9.635l-3.4-.912.938-3.504-1.4-.809-1.157 4.317-4.356 2.53V6.374l3.264-3.263-1.401-.809-2.694 2.694-2.652-2.651-1.4.808 3.32 3.322v4.78l-4.427-2.57-1.135-4.238-1.4.81.928 3.465-3.325.891v1.618l4.247-1.138z"/>
   </symbol>
   <symbol id="user" viewBox="0 0 17 17">
      <path d="M8.5.167a4.167 4.167 0 110 8.333 4.167 4.167 0 010-8.333zm0 10.416c4.604 0 8.333 1.865 8.333 4.167v2.083H.167V14.75c0-2.302 3.729-4.167 8.333-4.167z"/>
   </symbol>
   <symbol id="whatsup" viewBox="0 0 20 21">
      <path fill-rule="evenodd" d="M1 10.48C1 5.525 5.024 1.5 9.98 1.5c4.957 0 8.981 4.024 9.02 9.02 0 4.956-4.024 8.98-8.98 8.98a8.961 8.961 0 01-4.238-1.07L2.01 19.462c-.078.02-.136.02-.214.02a.797.797 0 01-.603-.273.816.816 0 01-.116-.835l1.36-3.013A8.846 8.846 0 011 10.48zm11.39 1.295c.498-.244 1.086.073 1.516.365.068.045.144.091.223.14.396.242.89.543 1.022 1.03.045.245 0 .537-.09.781-.317.83-1.11 1.366-1.924 1.536-.687.13-1.265-.069-1.896-.287l-.231-.079c-.634-.219-1.267-.56-1.833-.926a10.78 10.78 0 01-2.92-2.926 8.66 8.66 0 01-.678-1.097 6.13 6.13 0 01-.656-1.61 2.7 2.7 0 01-.09-.731c-.023-.854.293-1.732.927-2.292.362-.342.905-.464 1.313-.22.396.235.618.787.804 1.248a17 17 0 00.078.19c.158.367.34.879.272 1.293-.062.376-.329.713-.564 1.009l-.07.088c-.158.22-.181.415-.045.634.814 1.463 1.946 2.536 3.44 3.17.203.074.361.05.497-.122.075-.102.151-.234.232-.375.19-.329.404-.7.673-.82z" clip-rule="evenodd"/>
   </symbol>
   <symbol id="wifi" viewBox="0 0 25 25">
      <path d="M17.651 15.149a7.782 7.782 0 00-5.127-1.917 7.783 7.783 0 00-5.129 1.92.198.198 0 00-.02.273l.88 1.047c.07.083.195.093.278.022a6.016 6.016 0 013.991-1.504c1.531 0 2.928.567 3.992 1.502.083.07.208.06.278-.022l.88-1.048a.196.196 0 00-.023-.273zm2.867-3.42a12.443 12.443 0 00-7.994-2.891 12.455 12.455 0 00-7.995 2.89.197.197 0 00-.025.276l.88 1.048a.194.194 0 00.273.024 10.713 10.713 0 016.867-2.48c2.61 0 5.005.932 6.866 2.48a.194.194 0 00.273-.024l.879-1.048a.197.197 0 00-.024-.275zm2.849-3.394a17.114 17.114 0 00-10.891-3.892c-4.107 0-7.876 1.44-10.833 3.843a.195.195 0 00-.027.278l.88 1.048c.067.08.19.093.27.027a15.362 15.362 0 019.71-3.438c3.706 0 7.104 1.306 9.765 3.484a.194.194 0 00.274-.027l.878-1.047a.193.193 0 00-.026-.276zm-12.43 10.66a1.563 1.563 0 103.126 0 1.563 1.563 0 00-3.126 0z"/>
   </symbol>
   <symbol id="window" viewBox="0 0 25 25">
      <path d="M22.396 2.083H2.604a.52.52 0 00-.52.521v19.792a.521.521 0 00.52.52h19.792a.52.52 0 00.52-.52V2.604a.52.52 0 00-.52-.52zM8.854 21.875h-5.73V9.895h5.73v11.98zm6.25 0H9.896V9.895h5.208v11.98zm6.77 0h-5.728V9.895h5.729v11.98zm0-13.02H3.125v-5.73h18.75v5.73z"/>
   </symbol>
   <symbol id="RU" viewBox="0 0 19 11"><path d="M6.887 10.228l-1.93-2.79a3.57 3.57 0 01-.365.014H2.46v2.776H.705V.702h3.887c.82 0 1.53.136 2.133.409.612.272 1.08.662 1.404 1.17.324.508.486 1.111.486 1.81 0 .716-.176 1.333-.527 1.85-.342.517-.837.903-1.485 1.157l2.174 3.13h-1.89zm-.04-6.137c0-.608-.199-1.075-.594-1.402-.396-.327-.977-.49-1.742-.49H2.46v3.797H4.51c.765 0 1.346-.164 1.742-.49.395-.336.593-.808.593-1.415zM14.64 10.364c-1.304 0-2.321-.368-3.05-1.102-.729-.744-1.093-1.806-1.093-3.185V.702h1.754V6.01c0 1.87.801 2.804 2.403 2.804 1.593 0 2.389-.935 2.389-2.804V.702h1.728v5.375c0 1.38-.365 2.44-1.094 3.185-.72.734-1.732 1.102-3.037 1.102z"/></symbol>
   <symbol id="EN" viewBox="0 0 18 11"><path d="M7.136 8.86v1.504H.18V.702h6.77v1.505H1.902v2.512H6.38v1.477H1.903v2.663h5.233zM17.295.702v9.662h-1.417l-5.114-6.542v6.542H9.055V.702h1.418l5.113 6.543V.702h1.71z"/></symbol>
   <symbol id="info" viewBox="0 0 30 30"><path d="M18.648 0c2.01 0 3.015 1.368 3.015 2.936 0 1.957-1.746 3.768-4.019 3.768-1.903 0-3.013-1.125-2.96-2.985 0-1.565 1.32-3.719 3.964-3.719zm-6.185 30c-1.587 0-2.75-.978-1.64-5.286l1.822-7.638c.316-1.221.369-1.712 0-1.712-.476 0-2.534.843-3.753 1.676L8.1 15.72c3.858-3.279 8.296-5.2 10.201-5.2 1.586 0 1.85 1.909 1.058 4.845l-2.087 8.027c-.369 1.418-.211 1.907.16 1.907.475 0 2.035-.588 3.568-1.81l.9 1.22C18.147 28.53 14.047 30 12.463 30z"/></symbol>
   <symbol id="cosmetic" viewBox="0 0 19 22"><path d="M14.969 8.453v-.86a3.135 3.135 0 00-3.125-3.124H10.28V2.125h3.125a.781.781 0 01.781.781.781.781 0 101.563 0A2.354 2.354 0 0013.406.562h-6.25a.781.781 0 000 1.563H8.72v2.344H7.156a3.135 3.135 0 00-3.125 3.125v.86A3.916 3.916 0 00.906 12.28v7.813a1.562 1.562 0 001.563 1.562H16.53a1.562 1.562 0 001.563-1.562V12.28a3.916 3.916 0 00-3.125-3.828zM7.156 6.031h4.688a1.562 1.562 0 011.562 1.563v.781H5.594v-.781A1.562 1.562 0 017.156 6.03zm9.375 14.063H2.47V12.28a2.353 2.353 0 012.344-2.344h9.375a2.353 2.353 0 012.343 2.344v7.813z"/></symbol>
   <symbol id="border-en" viewBox="0 0 35 31"><mask id="a"><path fill-rule="evenodd" d="M0 31h35V7l-7-7H0v31z" clip-rule="evenodd"/></mask><path d="M35 31v1h1v-1h-1zM0 31h-1v1h1v-1zM35 7h1v-.414l-.293-.293L35 7zm-7-7l.707-.707L28.414-1H28v1zM0 0v-1h-1v1h1zm35 30H0v2h35v-2zM34 7v24h2V7h-2zM27.293.707l7 7 1.414-1.414-7-7L27.293.707zM0 1h28v-2H0v2zm-1-1v31h2V0h-2z" mask="url(#a)"/></symbol>
   <symbol id="border-ru" viewBox="0 0 35 31"><mask id="a"><path fill-rule="evenodd" d="M35 0H0v24l7 7h28V0z" clip-rule="evenodd"/></mask><path d="M0 0v-1h-1v1h1zm35 0h1v-1h-1v1zM0 24h-1v.414l.293.293L0 24zm7 7l-.707.707.293.293H7v-1zm28 0v1h1v-1h-1zM0 1h35v-2H0v2zm1 23V0h-2v24h2zm6.707 6.293l-7-7-1.414 1.414 7 7 1.414-1.414zM35 30H7v2h28v-2zm1 1V0h-2v31h2z" mask="url(#a)"/></symbol>
   <symbol id="arrow-slide" viewBox="0 0 20 20"><path d="M19.7 9.32L9.434.11A.428.428 0 009.15 0H6.744c-.2 0-.293.258-.141.393l9.516 8.54H.217A.222.222 0 000 9.157v1.686c0 .123.098.224.217.224h15.9L6.6 19.607c-.152.137-.06.393.142.393h2.486c.052 0 .103-.02.141-.056L19.7 10.68a.926.926 0 000-1.36z"/></symbol>
</svg>