<svg width="103" height="20" viewBox="0 0 103 20" fill="none" xmlns="http://www.w3.org/2000/svg">
<g clip-path="url(#clip0_523_15061)">
<path d="M54.6683 0.578125V9.21724C53.5952 9.68849 52.363 9.96336 50.8128 9.96336C48.7063 9.96336 47.1165 9.08207 47.1165 6.97915V0.578125H41.9893V6.97915C41.9893 12.3937 46.1332 14.6756 49.9385 14.6756C52.4286 14.6756 53.1975 14.44 54.6683 13.9688V19.9841H59.7955V0.578125H54.6683Z" fill="black"/>
<path d="M0 0.571289H19.2114V5.59584H0V0.571289Z" fill="black"/>
<path d="M12.0342 5.03442L12.0278 20L6.90234 19.9978L6.90882 5.03223L12.0342 5.03442Z" fill="black"/>
<path d="M67.5009 0.611557L67.4925 20.0002L62.3672 19.998L62.3756 0.609375L67.5009 0.611557Z" fill="black"/>
<path d="M80.1555 0.573471L80.1471 19.9621L75.0215 19.9599L75.0299 0.571289L80.1555 0.573471Z" fill="black"/>
<path d="M62.3672 7.65137H79.3929V12.7901H62.3672V7.65137Z" fill="black"/>
<path fill-rule="evenodd" clip-rule="evenodd" d="M30.1978 19.984C35.7569 19.984 40.2635 15.5104 40.2635 9.99203C40.2635 4.47359 35.7569 0 30.1978 0C24.6385 0 20.1318 4.47359 20.1318 9.99203C20.1318 15.5104 24.6385 19.984 30.1978 19.984ZM30.1978 15.0468C33.01 15.0468 35.2898 12.7837 35.2898 9.99203C35.2898 7.20033 33.01 4.93724 30.1978 4.93724C27.3853 4.93724 25.1055 7.20033 25.1055 9.99203C25.1055 12.7837 27.3853 15.0468 30.1978 15.0468Z" fill="black"/>
<path fill-rule="evenodd" clip-rule="evenodd" d="M92.3763 19.984C97.9357 19.984 102.442 15.5104 102.442 9.99203C102.442 4.47359 97.9357 0 92.3763 0C86.8172 0 82.3105 4.47359 82.3105 9.99203C82.3105 15.5104 86.8172 19.984 92.3763 19.984ZM92.3763 15.0468C95.1888 15.0468 97.4686 12.7837 97.4686 9.99203C97.4686 7.20033 95.1888 4.93724 92.3763 4.93724C89.5641 4.93724 87.2843 7.20033 87.2843 9.99203C87.2843 12.7837 89.5641 15.0468 92.3763 15.0468Z" fill="black"/>
</g>
<defs>
<clipPath id="clip0_523_15061">
<rect width="102.442" height="20" fill="white"/>
</clipPath>
</defs>
</svg>
