<svg width="90" height="90" viewBox="0 0 90 90" fill="none" xmlns="http://www.w3.org/2000/svg">
<path fill-rule="evenodd" clip-rule="evenodd" d="M31.4999 48.5C31.4999 52.0898 28.5898 55 24.9999 55C21.4101 55 18.4999 52.0898 18.4999 48.5C18.4999 44.9101 21.4101 42 24.9999 42C28.5898 42 31.4999 44.9101 31.4999 48.5ZM29.4999 48.5C29.4999 50.9852 27.4852 53 24.9999 53C22.5146 53 20.4999 50.9852 20.4999 48.5C20.4999 46.0147 22.5146 44 24.9999 44C27.4852 44 29.4999 46.0147 29.4999 48.5Z" fill="#CC9C63"/>
<path fill-rule="evenodd" clip-rule="evenodd" d="M35.4413 39.2489C29.6533 33.6262 20.4078 33.6778 14.6995 39.3862C10.0053 44.0804 9.02108 51.3303 12.294 57.1061L24.9874 79.5061L37.9231 57.3305C41.3513 51.4536 40.3197 43.9878 35.4413 39.2489ZM16.1137 40.8004C21.0465 35.8676 29.0414 35.8201 34.0477 40.6834C38.2685 44.7836 39.1593 51.2421 36.1956 56.3228L25.0125 75.4938L14.034 56.1201C11.2045 51.1267 12.0553 44.8588 16.1137 40.8004Z" fill="#CC9C63"/>
<path fill-rule="evenodd" clip-rule="evenodd" d="M75 16.0001C75 18.7615 72.7614 21.0001 70 21.0001C67.2386 21.0001 65 18.7615 65 16.0001C65 13.2387 67.2386 11.0001 70 11.0001C72.7614 11.0001 75 13.2387 75 16.0001ZM73 16.0001C73 17.657 71.6569 19.0001 70 19.0001C68.3432 19.0001 67 17.657 67 16.0001C67 14.3433 68.3432 13.0001 70 13.0001C71.6569 13.0001 73 14.3433 73 16.0001Z" fill="#CC9C63"/>
<path fill-rule="evenodd" clip-rule="evenodd" d="M76.9621 8.46458C72.9967 4.65347 66.7052 4.68824 62.7931 8.5588C59.5249 11.7922 58.8406 16.8195 61.1255 20.8088L69.8208 35.9903L78.6816 20.9619C81.0745 16.9035 80.3572 11.7275 76.9621 8.46458ZM64.1997 9.98055C67.3382 6.87545 72.3907 6.8449 75.5763 9.90656C78.3049 12.5291 78.8796 16.6883 76.9588 19.9461L69.8459 32.01L62.861 19.8148C61.0266 16.6122 61.5761 12.5763 64.1997 9.98055Z" fill="#CC9C63"/>
<path d="M70.0001 38.5C70.0001 37.9477 69.5523 37.5 69.0001 37.5C68.4478 37.5 68.0001 37.9477 68.0001 38.5C68.0001 38.8576 67.8676 39.2159 67.55 39.6084C67.2026 40.0377 67.269 40.6674 67.6984 41.0148C68.1277 41.3622 68.7574 41.2958 69.1048 40.8664C69.6376 40.2079 70.0001 39.4192 70.0001 38.5Z" fill="#293A50"/>
<path d="M65.712 43.3246C66.2037 43.0732 66.3984 42.4707 66.1469 41.979C65.8955 41.4873 65.293 41.2925 64.8013 41.544C63.9522 41.9783 63.0295 42.3873 62.0853 42.8058C61.8566 42.9072 61.6266 43.0091 61.3962 43.1121C60.892 43.3374 60.6659 43.9288 60.8912 44.433C61.1165 44.9373 61.7079 45.1634 62.2121 44.9381C62.429 44.8412 62.6497 44.7434 62.8726 44.6446C63.8207 44.2245 64.8082 43.7869 65.712 43.3246Z" fill="#293A50"/>
<path d="M58.9682 46.5927C59.4307 46.2907 59.5607 45.6711 59.2587 45.2086C58.9568 44.7462 58.3371 44.6162 57.8747 44.9181C57.2306 45.3388 56.6319 45.8242 56.2001 46.4C55.8162 46.9118 55.4676 47.436 55.1488 47.9694C54.8654 48.4434 55.02 49.0574 55.4941 49.3408C55.9681 49.6242 56.5821 49.4696 56.8655 48.9955C57.151 48.5179 57.4609 48.0522 57.8001 47.6C58.0349 47.2868 58.4194 46.9511 58.9682 46.5927Z" fill="#293A50"/>
<path d="M55.3814 52.0575C55.5846 51.5439 55.333 50.9629 54.8194 50.7598C54.3058 50.5566 53.7248 50.8082 53.5217 51.3218C53.0688 52.4666 52.6911 53.6288 52.3437 54.7773C52.1838 55.3059 52.4827 55.8641 53.0114 56.024C53.54 56.1839 54.0982 55.8849 54.2581 55.3563C54.5983 54.2313 54.9577 53.1285 55.3814 52.0575Z" fill="#293A50"/>
<path d="M53.2495 58.7794C53.4092 58.2507 53.11 57.6927 52.5813 57.533C52.0526 57.3733 51.4946 57.6725 51.3349 58.2012C50.9913 59.339 50.6324 60.4397 50.21 61.4944C50.0047 62.0071 50.2538 62.5891 50.7665 62.7945C51.2792 62.9998 51.8613 62.7506 52.0666 62.2379C52.5206 61.1044 52.8989 59.9402 53.2495 58.7794Z" fill="#293A50"/>
<path d="M50.3868 65.5864C50.682 65.1196 50.5428 64.5019 50.076 64.2067C49.6093 63.9116 48.9916 64.0507 48.6964 64.5175C48.4012 64.9844 48.0796 65.4347 47.7261 65.8668C47.3158 66.3683 46.8958 66.8271 46.4682 67.2488C46.0749 67.6365 46.0705 68.2697 46.4582 68.6629C46.846 69.0562 47.4791 69.0607 47.8724 68.6729C48.3507 68.2013 48.8186 67.6898 49.274 67.1332C49.6825 66.6339 50.0513 66.1171 50.3868 65.5864Z" fill="#293A50"/>
<path d="M44.6068 71.2491C45.0748 70.9558 45.2164 70.3387 44.9231 69.8707C44.6299 69.4027 44.0127 69.2611 43.5448 69.5544C42.4482 70.2416 41.3191 70.7869 40.1756 71.259C39.6651 71.4698 39.4221 72.0545 39.6329 72.565C39.8436 73.0754 40.4283 73.3184 40.9388 73.1077C42.1545 72.6057 43.3901 72.0116 44.6068 71.2491Z" fill="#293A50"/>
<path d="M37.1739 74.4856C37.6961 74.3057 37.9736 73.7366 37.7938 73.2144C37.614 72.6922 37.0449 72.4147 36.5227 72.5945C35.2428 73.0353 33.956 73.4847 32.7449 74.0386C32.2427 74.2683 32.0217 74.8616 32.2514 75.3639C32.4811 75.8661 33.0745 76.0871 33.5767 75.8574C34.6867 75.3498 35.8852 74.9294 37.1739 74.4856Z" fill="#293A50"/>
<path d="M30.5002 77.7927C30.9119 77.4246 30.9473 76.7924 30.5792 76.3806C30.2111 75.9689 29.5789 75.9335 29.1672 76.3016C28.6417 76.7715 28.1503 77.2997 27.7001 77.9C27.3687 78.3418 27.4582 78.9686 27.9001 79.3C28.3419 79.6314 28.9687 79.5418 29.3001 79.1C29.6681 78.6093 30.0693 78.1779 30.5002 77.7927Z" fill="#293A50"/>
<path fill-rule="evenodd" clip-rule="evenodd" d="M80.6112 65.8746C84.158 65.8746 86.8127 62.9924 86.8127 57.9373C86.8127 52.8823 84.158 50 80.6112 50C77.0426 50 74.388 52.8823 74.388 57.9373C74.388 62.9924 77.0426 65.8746 80.6112 65.8746ZM80.6112 63.9014C78.2176 63.9014 76.5639 61.906 76.5639 57.9373C76.5639 53.9687 78.2176 51.9732 80.6112 51.9732C82.983 51.9732 84.6367 53.9687 84.6367 57.9373C84.6367 61.906 82.983 63.9014 80.6112 63.9014Z" fill="#293A50"/>
<path d="M67.7673 56.6957L71.7493 51.685V50.1774H61.6964V52.1063H69.0293L65.1996 56.8953V58.4472H66.4182C69.0293 58.4472 70.1826 59.5115 70.1826 61.1521C70.1826 62.8372 68.877 63.9014 66.5923 63.9014C64.7209 63.9014 63.0237 63.2141 62.001 62.2385L61.0001 63.9901C62.2839 65.1651 64.4163 65.8746 66.5923 65.8746C70.4655 65.8746 72.3585 63.7462 72.3585 61.13C72.3585 58.7355 70.8136 56.9839 67.7673 56.6957Z" fill="#293A50"/>
<path d="M68.1502 73.0005C68.7116 72.2688 69.6516 71.8165 70.7614 71.8165C72.4456 71.8165 73.6206 72.7876 73.6206 74.9294V79H71.9886V75.1422C71.9886 73.8784 71.4142 73.2665 70.4219 73.2665C69.3514 73.2665 68.6072 73.9849 68.6072 75.395V79H66.9752V75.1422C66.9752 73.8784 66.4008 73.2665 65.4085 73.2665C64.3249 73.2665 63.5938 73.9849 63.5938 75.395V79H61.9618V71.8963H63.5155V72.8009C64.0377 72.1624 64.8471 71.8165 65.8002 71.8165C66.8186 71.8165 67.6672 72.2023 68.1502 73.0005Z" fill="#293A50"/>
<path d="M76.8549 70.7257C77.4686 70.7257 77.8994 70.2734 77.8994 69.6881C77.8994 69.1427 77.4555 68.7303 76.8549 68.7303C76.2544 68.7303 75.8105 69.1693 75.8105 69.728C75.8105 70.2867 76.2544 70.7257 76.8549 70.7257Z" fill="#293A50"/>
<path d="M77.6644 79H76.0324V71.8963H77.6644V79Z" fill="#293A50"/>
<path d="M84.0886 71.8165C83.0703 71.8165 82.2217 72.1624 81.6864 72.8142V71.8963H80.1327V79H81.7647V75.4083C81.7647 73.9849 82.5481 73.2665 83.71 73.2665C84.7545 73.2665 85.3681 73.8784 85.3681 75.1422V79H87.0001V74.9294C87.0001 72.7876 85.7598 71.8165 84.0886 71.8165Z" fill="#293A50"/>
</svg>
