<svg width="80" height="80" viewBox="0 0 80 80" fill="none" xmlns="http://www.w3.org/2000/svg">
<circle cx="40" cy="40" r="40" fill="white" fill-opacity="0.1"/>
<circle cx="40" cy="40" r="32" fill="#CC9C63"/>
<path d="M77 40C77 60.4345 60.4345 77 40 77C19.5655 77 3 60.4345 3 40C3 19.5655 19.5655 3 40 3C60.4345 3 77 19.5655 77 40ZM5.12188 40C5.12188 59.2627 20.7373 74.8781 40 74.8781C59.2627 74.8781 74.8781 59.2627 74.8781 40C74.8781 20.7373 59.2627 5.12188 40 5.12188C20.7373 5.12188 5.12188 20.7373 5.12188 40Z" fill="#293A50"/>
<path d="M46 51L43.7283 37.267C45.0435 36.3738 46 34.8107 46 33.1359C46 30.3447 43.6087 28 40.5 28C37.3913 28 35 30.3447 35 33.1359C35 34.8107 35.837 36.3738 37.2717 37.267L35 51H46Z" fill="#293A50"/>
</svg>
