<svg width="248" height="48" viewBox="0 0 248 48" fill="none" xmlns="http://www.w3.org/2000/svg">
<path d="M24.524 5.04724H19.5126C19.1335 5.04724 18.8017 5.27288 18.6596 5.61728C18.5056 5.94981 18.5292 6.35359 18.707 6.62674L19.9746 8.59814L14.9632 20.5809C14.9632 20.5809 14.9632 20.6047 14.9395 20.6047V20.5809L9.64375 7.92121C9.12247 6.62674 8.3524 5.23726 6.03032 5.07099L0.959666 5.04724C0.604246 5.04724 0.248827 5.27288 0.0948116 5.61728C-0.0473563 5.94981 -0.0236616 6.35359 0.165896 6.62674L1.55203 8.78815V24.69C1.55203 25.26 1.99038 25.7113 2.51167 25.7113H5.65121C5.9 25.7113 6.18433 25.6044 6.36204 25.3669C6.53975 25.2007 6.62269 24.9394 6.62269 24.6662L6.5753 11.1515L11.4564 23.1936C11.9658 24.405 12.57 25.9251 14.9277 25.9251C17.2853 25.9251 17.8184 24.6781 18.4345 23.1936L23.363 11.294L23.2563 24.6662C23.2326 24.9394 23.3393 25.2007 23.5051 25.3669C23.6828 25.5926 23.9435 25.7113 24.216 25.7113H27.32C27.8768 25.7113 28.3151 25.26 28.3151 24.69V8.25374C28.3151 6.28234 26.8935 5.07099 24.5121 5.04724" fill="white"/>
<path d="M48.5385 20.2722C47.4841 21.5429 45.6596 21.6616 43.7285 21.6616C41.7973 21.6616 39.9847 21.5429 38.9421 20.2722C38.2076 19.429 37.8522 17.8138 37.8522 15.3912C37.8522 12.9685 38.1839 11.389 38.9421 10.5102C39.9018 9.38195 41.4775 9.15631 43.7285 9.15631C45.5056 9.15631 47.4841 9.23944 48.5385 10.5102C49.0242 11.0446 49.6284 12.1253 49.6284 15.3912C49.6284 17.8138 49.273 19.429 48.5385 20.2722ZM43.7522 4.96411C41.1931 4.96411 37.6982 4.96411 35.2932 7.1374C32.7104 9.41758 32.7104 13.3129 32.7104 15.403C32.7104 17.6357 32.7104 21.3529 35.2932 23.6924C37.6745 25.8657 41.3471 25.8657 43.7522 25.8657C46.1572 25.8657 49.8535 25.8657 52.2348 23.6924C54.4858 21.6379 54.7583 18.1939 54.7583 15.403C54.7583 12.6122 54.4858 9.16818 52.2348 7.1374C49.8298 4.96411 46.1809 4.96411 43.7522 4.96411Z" fill="white"/>
<path d="M72.5648 7.51748C72.0791 6.38927 71.0128 5.07104 68.7145 5.07104C66.8663 5.07104 65.5749 5.89048 64.8641 7.51748L57.6254 24.4644C57.495 24.7732 57.5187 25.1176 57.6728 25.4026C57.8505 25.7114 58.1822 25.9014 58.5021 25.9014H61.8904C62.2695 25.9014 62.6249 25.652 62.779 25.2838L68.6789 10.2252L73.406 22.2674L72.0909 24.2981C71.8895 24.6069 71.8658 24.9988 72.0199 25.3076C72.1976 25.6757 72.5293 25.9014 72.9084 25.9014H78.8795C79.2112 25.9014 79.5429 25.6995 79.7206 25.4026C79.8746 25.1176 79.8983 24.7732 79.768 24.4644L72.553 7.51748H72.5648Z" fill="white"/>
<path d="M98.5105 20.2722C97.4443 21.5429 95.6198 21.6616 93.7005 21.6616C91.7812 21.6616 89.9449 21.5429 88.9142 20.2722C88.1796 19.429 87.8242 17.8138 87.8242 15.3912C87.8242 12.9685 88.156 11.389 88.9142 10.5102C89.8857 9.38195 91.4377 9.15631 93.7005 9.15631C95.4776 9.15631 97.4443 9.23944 98.5105 10.5102C98.9962 11.0446 99.6005 12.1253 99.6005 15.3912C99.6005 17.8138 99.245 19.429 98.5105 20.2722ZM93.7242 4.96411C91.1652 4.96411 87.6821 4.96411 85.2771 7.1374C82.6943 9.41758 82.6943 13.3129 82.6943 15.403C82.6943 17.6357 82.6943 21.3529 85.2771 23.6924C87.6584 25.8657 91.331 25.8657 93.7242 25.8657C96.1173 25.8657 99.8256 25.8657 102.207 23.6924C104.458 21.6379 104.742 18.1939 104.742 15.403C104.742 12.6122 104.458 9.16818 102.207 7.1374C99.8019 4.96411 96.1529 4.96411 93.7242 4.96411Z" fill="white"/>
<path d="M153.387 21.8992C153.186 21.626 152.902 21.4835 152.582 21.4835H143.72C143.187 21.4835 142.891 21.4241 142.76 21.3766C142.76 21.341 142.701 21.2579 142.701 21.151V17.2794H153.589C153.968 17.2794 154.323 17.0894 154.477 16.7213C154.631 16.3769 154.608 15.985 154.406 15.6999L152.961 13.5029C152.783 13.2179 152.487 13.0516 152.179 13.0516H142.713V9.83323C142.713 9.56009 142.737 9.50071 142.819 9.44133C142.973 9.29882 143.353 9.29882 143.507 9.29882H153.909C154.288 9.29882 154.619 9.07317 154.797 8.7169C154.951 8.3725 154.892 7.98059 154.726 7.69557L153.281 5.49853C153.115 5.2135 152.795 5.04724 152.475 5.04724H137.05C136.694 5.04724 136.339 5.27288 136.197 5.64104C136.043 5.94981 136.067 6.34172 136.28 6.66237L137.666 8.80003V22.1723C137.666 22.7899 137.666 24.0843 138.661 24.9631C139.49 25.7232 140.45 25.7232 141.362 25.7232H154.051C154.43 25.7232 154.762 25.4976 154.904 25.1532C155.058 24.8206 155.034 24.4168 154.833 24.1081L153.411 21.8992H153.387Z" fill="white"/>
<path d="M185.494 16.2938C184.937 15.8425 184.617 15.5337 184.617 15.0824C184.617 14.833 184.795 14.6549 185.197 14.2867L193.526 6.84053C193.822 6.59114 193.929 6.12797 193.799 5.73607C193.668 5.34416 193.289 5.05914 192.886 5.05914H189.083L179.736 13.5148V8.81193L181.157 6.63864C181.335 6.32987 181.359 5.96171 181.205 5.62919C181.051 5.26103 180.719 5.05914 180.34 5.05914H174.061C173.682 5.05914 173.362 5.26103 173.196 5.62919C173.042 5.96171 173.066 6.32987 173.243 6.63864L174.665 8.81193V13.5148L165.329 5.05914H161.526C161.124 5.05914 160.745 5.34416 160.614 5.73607C160.484 6.12797 160.591 6.57926 160.887 6.84053L169.215 14.2867C169.618 14.6549 169.796 14.833 169.796 15.0824C169.796 15.5337 169.476 15.8425 168.907 16.2938L159.868 23.9062C159.572 24.1675 159.441 24.5831 159.536 25.0107C159.666 25.4382 160.046 25.7113 160.472 25.7113H164.595L173.48 17.897H174.641V24.69C174.641 25.2482 175.068 25.6995 175.601 25.6995H178.741C179.274 25.6995 179.7 25.2482 179.7 24.69V17.897H180.873L189.759 25.7113H193.893C194.32 25.7113 194.699 25.4382 194.829 25.0107C194.936 24.5831 194.806 24.1675 194.498 23.9062L185.458 16.2938H185.494Z" fill="white"/>
<path d="M211.202 16.2938C210.645 15.8425 210.314 15.5337 210.314 15.0824C210.314 14.8212 210.491 14.6549 210.894 14.2868L219.223 6.84056C219.531 6.59116 219.626 6.128 219.507 5.7361C219.377 5.34419 218.998 5.07104 218.595 5.07104H214.804L205.468 13.5267V6.0805C205.468 5.52233 205.03 5.07104 204.402 5.07104H199.793C199.414 5.07104 199.082 5.26106 198.928 5.62921C198.774 5.97361 198.798 6.34177 198.976 6.65054L200.398 8.82383V13.6455H199.71C199.284 13.6455 198.928 13.8948 198.727 14.2868C198.573 14.6787 198.597 15.1062 198.798 15.4506L200.398 17.897V24.69C200.398 25.2601 200.824 25.7114 201.357 25.7114H204.497C205.03 25.7114 205.456 25.2601 205.456 24.69V17.897H206.617L215.503 25.7114H219.626C220.052 25.7114 220.431 25.4264 220.562 25.0107C220.656 24.595 220.538 24.1675 220.23 23.9062L211.19 16.2938H211.202Z" fill="white"/>
<path d="M233.499 16.8875L236.449 10.1777C236.449 10.1777 236.473 10.1539 236.473 10.1301C236.473 10.1539 236.496 10.2014 236.496 10.237L239.458 16.8994H233.487L233.499 16.8875ZM247.893 24.2506L240.382 7.61245C239.565 5.84294 238.51 5.10664 236.615 5.08289H231.615C231.236 5.08289 230.881 5.30853 230.738 5.64105C230.584 5.98545 230.608 6.37736 230.81 6.68613L232.101 8.69316L228.665 16.2225L228.357 16.8994H226.237C225.774 16.8994 225.372 17.1844 225.194 17.6001C225.016 17.992 225.04 18.4789 225.265 18.8471L226.592 20.8778L225.087 24.2625C224.945 24.5713 224.969 24.9394 225.123 25.2126C225.301 25.5213 225.632 25.7232 225.952 25.7232H229.21C229.589 25.7232 229.945 25.4976 230.099 25.1294L231.923 20.8422H241.034L242.882 25.1294C243.024 25.4976 243.38 25.7232 243.771 25.7232H247.005C247.36 25.7232 247.692 25.5332 247.87 25.2126C248.024 24.9394 248.047 24.5594 247.893 24.2625V24.2506Z" fill="white"/>
<path d="M120.238 10.2252L124.954 22.2673H115.5L120.227 10.2252H120.238ZM132.986 22.8136C132.88 22.4811 132.583 22.2673 132.24 22.2673H130.356L124.053 7.51746C123.342 5.89046 122.051 5.05914 120.203 5.05914C117.905 5.05914 116.838 6.38924 116.353 7.51746L110.073 22.2673H108.202C107.858 22.2673 107.55 22.4811 107.443 22.8136L106.934 24.3337C106.815 24.7019 106.875 25.1057 107.1 25.4145C107.325 25.7232 107.68 25.9014 108.071 25.9014H132.335C132.726 25.9014 133.081 25.7232 133.294 25.4145C133.519 25.1057 133.579 24.7019 133.46 24.3337L132.951 22.8136H132.986Z" fill="white"/>
<path d="M18.5884 36.6372C17.2971 36.6372 16.2427 37.6942 16.2427 38.9886C16.2427 40.2831 17.2971 41.3519 18.5884 41.3519C19.8798 41.3519 20.9342 40.3069 20.9342 38.9886C20.9342 37.6704 19.8917 36.6372 18.5884 36.6372Z" fill="white"/>
<path d="M228.476 36.6372C227.184 36.6372 226.142 37.6942 226.142 38.9886C226.142 40.2831 227.184 41.3519 228.476 41.3519C229.767 41.3519 230.822 40.3069 230.822 38.9886C230.822 37.6704 229.767 36.6372 228.476 36.6372Z" fill="white"/>
<path d="M144.62 1.25886C144.62 2.09017 143.945 2.7671 143.116 2.7671H141.173C140.64 2.7671 140.201 2.32769 140.201 1.7814V1.46075C140.201 0.985711 140.545 0.570054 141.019 0.498798L144.004 1.02902e-05C144.158 -0.0237415 144.312 0.0237621 144.431 0.118769C144.549 0.213777 144.62 0.368163 144.62 0.52255V1.25886Z" fill="white"/>
<path d="M150.911 1.25886C150.911 2.09017 150.236 2.7671 149.407 2.7671H147.464C146.919 2.7671 146.48 2.32769 146.48 1.7814V1.46075C146.48 0.985711 146.824 0.570054 147.298 0.498798L150.307 1.02902e-05C150.461 -0.0237415 150.615 0.0237621 150.734 0.118769C150.852 0.213777 150.923 0.368163 150.923 0.52255V1.25886H150.911Z" fill="white"/>
<path d="M46.7407 33.3664C46.7407 33.4836 46.7349 33.5832 46.7231 33.6652C46.7153 33.7433 46.7017 33.8078 46.6821 33.8586C46.6626 33.9055 46.6372 33.9406 46.606 33.9641C46.5786 33.9836 46.5454 33.9933 46.5063 33.9933H43.9927V40.1105C43.9927 40.1496 43.979 40.1848 43.9517 40.216C43.9282 40.2433 43.8872 40.2668 43.8286 40.2863C43.77 40.3058 43.6919 40.3195 43.5942 40.3273C43.4966 40.3391 43.3716 40.3449 43.2192 40.3449C43.0708 40.3449 42.9458 40.3391 42.8442 40.3273C42.7466 40.3195 42.6685 40.3058 42.6099 40.2863C42.5513 40.2668 42.5083 40.2433 42.481 40.216C42.4575 40.1848 42.4458 40.1496 42.4458 40.1105V33.2141C42.4458 33.05 42.4868 32.9289 42.5688 32.8508C42.6548 32.7687 42.7661 32.7277 42.9028 32.7277H46.5063C46.5845 32.7277 46.6431 32.7766 46.6821 32.8742C46.7212 32.9719 46.7407 33.1359 46.7407 33.3664Z" fill="white"/>
<path d="M66.0894 36.4308C66.0894 37.0598 66.0112 37.6223 65.855 38.1183C65.6987 38.6144 65.4663 39.0363 65.1577 39.384C64.8491 39.7277 64.4663 39.9914 64.0093 40.175C63.5562 40.3547 63.0308 40.4445 62.4331 40.4445C61.8433 40.4445 61.3276 40.3683 60.8862 40.216C60.4487 40.0598 60.0835 39.8234 59.7905 39.507C59.4976 39.1906 59.2769 38.7883 59.1284 38.3C58.9839 37.8117 58.9116 37.2336 58.9116 36.5656C58.9116 35.9523 58.9897 35.4016 59.146 34.9133C59.3022 34.4211 59.5347 34.0031 59.8433 33.6594C60.1519 33.3156 60.5327 33.0519 60.9858 32.8683C61.4429 32.6848 61.9722 32.593 62.5737 32.593C63.1479 32.593 63.6538 32.6691 64.0913 32.8215C64.5327 32.9738 64.8999 33.2082 65.1929 33.5246C65.4897 33.841 65.7124 34.2414 65.8608 34.7258C66.0132 35.2062 66.0894 35.7746 66.0894 36.4308ZM64.4722 36.5129C64.4722 36.1144 64.4409 35.7531 64.3784 35.4289C64.3159 35.1008 64.2085 34.8215 64.0562 34.591C63.9077 34.3566 63.7085 34.1769 63.4585 34.0519C63.2085 33.923 62.896 33.8586 62.521 33.8586C62.1421 33.8586 61.8257 33.9308 61.5718 34.0754C61.3179 34.216 61.1128 34.4055 60.9565 34.6437C60.8003 34.882 60.689 35.1613 60.6226 35.4816C60.5601 35.798 60.5288 36.134 60.5288 36.4894C60.5288 36.9035 60.5601 37.2766 60.6226 37.6086C60.6851 37.9367 60.7905 38.218 60.939 38.4523C61.0874 38.6867 61.2866 38.8664 61.5366 38.9914C61.7866 39.1125 62.1011 39.173 62.48 39.173C62.8589 39.173 63.1753 39.1027 63.4292 38.9621C63.6831 38.8215 63.8882 38.6301 64.0444 38.3879C64.2007 38.1457 64.3101 37.8644 64.3726 37.5441C64.439 37.2199 64.4722 36.8762 64.4722 36.5129Z" fill="white"/>
<path d="M85.5779 39.1613C85.5779 39.259 85.574 39.343 85.5662 39.4133C85.5623 39.4797 85.5544 39.5383 85.5427 39.5891C85.531 39.6359 85.5154 39.6769 85.4958 39.7121C85.4763 39.7473 85.4451 39.7883 85.4021 39.8351C85.3591 39.8781 85.2751 39.9348 85.1501 40.0051C85.0291 40.0754 84.8787 40.1437 84.699 40.2101C84.5232 40.2726 84.3201 40.3254 84.0896 40.3683C83.863 40.4113 83.6169 40.4328 83.3513 40.4328C82.8318 40.4328 82.363 40.3527 81.9451 40.1926C81.5271 40.0324 81.1716 39.7941 80.8787 39.4777C80.5857 39.1574 80.3611 38.759 80.2048 38.2824C80.0486 37.8058 79.9705 37.2512 79.9705 36.6183C79.9705 35.9738 80.0564 35.4016 80.2283 34.9016C80.4001 34.4016 80.6404 33.9816 80.949 33.6418C81.2576 33.3019 81.6267 33.0441 82.0564 32.8683C82.49 32.6926 82.9666 32.6047 83.4861 32.6047C83.697 32.6047 83.9001 32.6223 84.0955 32.6574C84.2908 32.6926 84.4705 32.7394 84.6345 32.798C84.8025 32.8527 84.9529 32.9172 85.0857 32.9914C85.2185 33.0656 85.3103 33.1301 85.3611 33.1848C85.4158 33.2355 85.4529 33.2785 85.4724 33.3137C85.4919 33.3488 85.5076 33.3937 85.5193 33.4484C85.531 33.5031 85.5388 33.5676 85.5427 33.6418C85.5505 33.716 85.5544 33.8078 85.5544 33.9172C85.5544 34.0344 85.5505 34.134 85.5427 34.216C85.5349 34.298 85.5212 34.3644 85.5017 34.4152C85.4822 34.466 85.4587 34.5031 85.4314 34.5266C85.4041 34.55 85.3728 34.5617 85.3376 34.5617C85.2791 34.5617 85.2048 34.5285 85.115 34.4621C85.0251 34.3918 84.908 34.3156 84.7634 34.2336C84.6228 34.1476 84.4529 34.0715 84.2537 34.0051C84.0583 33.9348 83.824 33.8996 83.5505 33.8996C83.2498 33.8996 82.9802 33.9621 82.7419 34.0871C82.5076 34.2082 82.3064 34.384 82.1384 34.6144C81.9744 34.841 81.8494 35.1164 81.7634 35.4406C81.6775 35.7648 81.6345 36.1301 81.6345 36.5363C81.6345 36.9816 81.6794 37.3683 81.7693 37.6965C81.863 38.0207 81.9939 38.2883 82.1619 38.4992C82.3337 38.7101 82.5388 38.8683 82.7771 38.9738C83.0193 39.0754 83.2908 39.1262 83.5916 39.1262C83.865 39.1262 84.1013 39.0949 84.3005 39.0324C84.4998 38.966 84.6697 38.8937 84.8103 38.8156C84.9548 38.7375 85.072 38.6672 85.1619 38.6047C85.2556 38.5422 85.3279 38.5109 85.3787 38.5109C85.4177 38.5109 85.449 38.5187 85.4724 38.5344C85.4958 38.55 85.5154 38.5812 85.531 38.6281C85.5466 38.675 85.5583 38.7414 85.5662 38.8273C85.574 38.9094 85.5779 39.0207 85.5779 39.1613Z" fill="white"/>
<path d="M104.145 33.3605C104.145 33.4738 104.139 33.5715 104.127 33.6535C104.119 33.7316 104.106 33.7961 104.086 33.8469C104.067 33.8937 104.041 33.9289 104.01 33.9523C103.983 33.9758 103.951 33.9875 103.916 33.9875H102.018V40.0988C102.018 40.1379 102.004 40.173 101.977 40.2043C101.953 40.2355 101.912 40.2609 101.854 40.2805C101.795 40.3 101.715 40.3156 101.614 40.3273C101.516 40.3391 101.393 40.3449 101.244 40.3449C101.096 40.3449 100.971 40.3391 100.869 40.3273C100.772 40.3156 100.694 40.3 100.635 40.2805C100.576 40.2609 100.533 40.2355 100.506 40.2043C100.483 40.173 100.471 40.1379 100.471 40.0988V33.9875H98.5725C98.5334 33.9875 98.5002 33.9758 98.4729 33.9523C98.4456 33.9289 98.4221 33.8937 98.4026 33.8469C98.3831 33.7961 98.3674 33.7316 98.3557 33.6535C98.3479 33.5715 98.344 33.4738 98.344 33.3605C98.344 33.2433 98.3479 33.1437 98.3557 33.0617C98.3674 32.9797 98.3831 32.9152 98.4026 32.8683C98.4221 32.8176 98.4456 32.7824 98.4729 32.7629C98.5002 32.7394 98.5334 32.7277 98.5725 32.7277H103.916C103.951 32.7277 103.983 32.7394 104.01 32.7629C104.041 32.7824 104.067 32.8176 104.086 32.8683C104.106 32.9152 104.119 32.9797 104.127 33.0617C104.139 33.1437 104.145 33.2433 104.145 33.3605Z" fill="white"/>
<path d="M123.515 40.1105C123.515 40.1496 123.501 40.1848 123.474 40.216C123.45 40.2433 123.409 40.2668 123.351 40.2863C123.292 40.3058 123.212 40.3195 123.11 40.3273C123.013 40.3391 122.89 40.3449 122.741 40.3449C122.593 40.3449 122.468 40.3391 122.366 40.3273C122.269 40.3195 122.19 40.3058 122.132 40.2863C122.077 40.2668 122.038 40.2433 122.015 40.216C121.991 40.1848 121.979 40.1496 121.979 40.1105V36.1144C121.979 35.9621 121.981 35.8137 121.985 35.6691C121.989 35.5207 121.995 35.3898 122.003 35.2766H121.991C121.96 35.3312 121.923 35.3957 121.88 35.4699C121.837 35.5402 121.79 35.6164 121.739 35.6984C121.692 35.7766 121.642 35.8586 121.587 35.9445C121.532 36.0266 121.478 36.1066 121.423 36.1848L118.786 40.1164C118.755 40.1594 118.722 40.1965 118.687 40.2277C118.655 40.259 118.612 40.2844 118.558 40.3039C118.507 40.3195 118.442 40.3293 118.364 40.3332C118.29 40.341 118.192 40.3449 118.071 40.3449C117.919 40.3449 117.796 40.3391 117.702 40.3273C117.608 40.3195 117.534 40.3058 117.479 40.2863C117.429 40.2668 117.394 40.2414 117.374 40.2101C117.354 40.1789 117.345 40.1418 117.345 40.0988V32.9269C117.345 32.8879 117.356 32.8547 117.38 32.8273C117.407 32.7961 117.45 32.7707 117.509 32.7512C117.571 32.7316 117.651 32.718 117.749 32.7101C117.847 32.6984 117.97 32.6926 118.118 32.6926C118.271 32.6926 118.396 32.6984 118.493 32.7101C118.591 32.718 118.669 32.7316 118.728 32.7512C118.786 32.7707 118.827 32.7961 118.851 32.8273C118.874 32.8547 118.886 32.8879 118.886 32.9269V36.9465C118.886 37.0715 118.884 37.2043 118.88 37.3449C118.876 37.4855 118.87 37.6223 118.862 37.7551H118.874C118.94 37.6379 119.024 37.4973 119.126 37.3332C119.228 37.1691 119.333 37.009 119.442 36.8527L122.079 32.9211C122.106 32.882 122.136 32.8488 122.167 32.8215C122.198 32.7902 122.239 32.7648 122.29 32.7453C122.345 32.7258 122.411 32.7121 122.489 32.7043C122.567 32.6965 122.667 32.6926 122.788 32.6926C122.937 32.6926 123.056 32.6984 123.146 32.7101C123.239 32.718 123.313 32.7316 123.368 32.7512C123.423 32.7707 123.46 32.7961 123.479 32.8273C123.503 32.8547 123.515 32.8898 123.515 32.9328V40.1105Z" fill="white"/>
<path d="M143.948 40.0988C143.948 40.1379 143.934 40.173 143.907 40.2043C143.884 40.2355 143.843 40.2609 143.784 40.2805C143.725 40.3 143.647 40.3156 143.55 40.3273C143.452 40.3391 143.329 40.3449 143.18 40.3449C143.028 40.3449 142.901 40.3391 142.8 40.3273C142.702 40.3156 142.624 40.3 142.565 40.2805C142.51 40.2609 142.469 40.2355 142.442 40.2043C142.419 40.173 142.407 40.1379 142.407 40.0988V37.0344H139.571V40.0988C139.571 40.1379 139.559 40.173 139.536 40.2043C139.512 40.2355 139.471 40.2609 139.413 40.2805C139.354 40.3 139.276 40.3156 139.178 40.3273C139.081 40.3391 138.956 40.3449 138.803 40.3449C138.655 40.3449 138.53 40.3391 138.428 40.3273C138.331 40.3156 138.253 40.3 138.194 40.2805C138.135 40.2609 138.093 40.2355 138.065 40.2043C138.042 40.173 138.03 40.1379 138.03 40.0988V32.9387C138.03 32.8996 138.042 32.8644 138.065 32.8332C138.093 32.8019 138.135 32.7766 138.194 32.757C138.253 32.7375 138.331 32.7219 138.428 32.7101C138.53 32.6984 138.655 32.6926 138.803 32.6926C138.956 32.6926 139.081 32.6984 139.178 32.7101C139.276 32.7219 139.354 32.7375 139.413 32.757C139.471 32.7766 139.512 32.8019 139.536 32.8332C139.559 32.8644 139.571 32.8996 139.571 32.9387V35.7219H142.407V32.9387C142.407 32.8996 142.419 32.8644 142.442 32.8332C142.469 32.8019 142.51 32.7766 142.565 32.757C142.624 32.7375 142.702 32.7219 142.8 32.7101C142.901 32.6984 143.028 32.6926 143.18 32.6926C143.329 32.6926 143.452 32.6984 143.55 32.7101C143.647 32.7219 143.725 32.7375 143.784 32.757C143.843 32.7766 143.884 32.8019 143.907 32.8332C143.934 32.8644 143.948 32.8996 143.948 32.9387V40.0988Z" fill="white"/>
<path d="M164.554 40.1105C164.554 40.1496 164.54 40.1848 164.513 40.216C164.489 40.2433 164.448 40.2668 164.39 40.2863C164.331 40.3058 164.251 40.3195 164.149 40.3273C164.052 40.3391 163.929 40.3449 163.78 40.3449C163.632 40.3449 163.507 40.3391 163.405 40.3273C163.308 40.3195 163.229 40.3058 163.171 40.2863C163.116 40.2668 163.077 40.2433 163.054 40.216C163.03 40.1848 163.019 40.1496 163.019 40.1105V36.1144C163.019 35.9621 163.021 35.8137 163.024 35.6691C163.028 35.5207 163.034 35.3898 163.042 35.2766H163.03C162.999 35.3312 162.962 35.3957 162.919 35.4699C162.876 35.5402 162.829 35.6164 162.778 35.6984C162.731 35.7766 162.681 35.8586 162.626 35.9445C162.571 36.0266 162.517 36.1066 162.462 36.1848L159.825 40.1164C159.794 40.1594 159.761 40.1965 159.726 40.2277C159.694 40.259 159.651 40.2844 159.597 40.3039C159.546 40.3195 159.481 40.3293 159.403 40.3332C159.329 40.341 159.231 40.3449 159.11 40.3449C158.958 40.3449 158.835 40.3391 158.741 40.3273C158.647 40.3195 158.573 40.3058 158.519 40.2863C158.468 40.2668 158.433 40.2414 158.413 40.2101C158.394 40.1789 158.384 40.1418 158.384 40.0988V32.9269C158.384 32.8879 158.396 32.8547 158.419 32.8273C158.446 32.7961 158.489 32.7707 158.548 32.7512C158.61 32.7316 158.69 32.718 158.788 32.7101C158.886 32.6984 159.009 32.6926 159.157 32.6926C159.31 32.6926 159.435 32.6984 159.532 32.7101C159.63 32.718 159.708 32.7316 159.767 32.7512C159.825 32.7707 159.866 32.7961 159.89 32.8273C159.913 32.8547 159.925 32.8879 159.925 32.9269V36.9465C159.925 37.0715 159.923 37.2043 159.919 37.3449C159.915 37.4855 159.909 37.6223 159.901 37.7551H159.913C159.979 37.6379 160.063 37.4973 160.165 37.3332C160.267 37.1691 160.372 37.009 160.481 36.8527L163.118 32.9211C163.146 32.882 163.175 32.8488 163.206 32.8215C163.237 32.7902 163.278 32.7648 163.329 32.7453C163.384 32.7258 163.45 32.7121 163.528 32.7043C163.606 32.6965 163.706 32.6926 163.827 32.6926C163.976 32.6926 164.095 32.6984 164.185 32.7101C164.278 32.718 164.353 32.7316 164.407 32.7512C164.462 32.7707 164.499 32.7961 164.519 32.8273C164.542 32.8547 164.554 32.8898 164.554 32.9328V40.1105Z" fill="white"/>
<path d="M185.866 42.0969C185.866 42.1359 185.856 42.1691 185.837 42.1965C185.817 42.2238 185.782 42.2453 185.731 42.2609C185.684 42.2805 185.616 42.2941 185.526 42.3019C185.44 42.3137 185.331 42.3195 185.198 42.3195C185.065 42.3195 184.956 42.3137 184.87 42.3019C184.784 42.2941 184.714 42.2805 184.659 42.2609C184.608 42.2453 184.571 42.2238 184.548 42.1965C184.528 42.1691 184.518 42.1359 184.518 42.0969V40.3098H179.503C179.366 40.3098 179.257 40.2707 179.175 40.1926C179.096 40.1105 179.057 39.9875 179.057 39.8234V32.9269C179.057 32.8879 179.069 32.8547 179.093 32.8273C179.12 32.7961 179.163 32.7707 179.221 32.7512C179.28 32.7316 179.358 32.718 179.456 32.7101C179.557 32.6984 179.682 32.6926 179.831 32.6926C179.983 32.6926 180.108 32.6984 180.206 32.7101C180.303 32.718 180.382 32.7316 180.44 32.7512C180.499 32.7707 180.54 32.7961 180.563 32.8273C180.587 32.8547 180.598 32.8879 180.598 32.9269V39.0324H183.399V32.9269C183.399 32.8879 183.411 32.8547 183.434 32.8273C183.462 32.7961 183.505 32.7707 183.563 32.7512C183.622 32.7316 183.7 32.718 183.798 32.7101C183.899 32.6984 184.024 32.6926 184.173 32.6926C184.325 32.6926 184.45 32.6984 184.548 32.7101C184.645 32.718 184.723 32.7316 184.782 32.7512C184.841 32.7707 184.882 32.7961 184.905 32.8273C184.928 32.8547 184.94 32.8879 184.94 32.9269V39.0324H185.608C185.706 39.0324 185.772 39.0558 185.807 39.1027C185.846 39.1457 185.866 39.2277 185.866 39.3488V42.0969Z" fill="white"/>
<path d="M206.037 39.7355C206.083 39.8762 206.113 39.9875 206.125 40.0695C206.136 40.1516 206.121 40.2141 206.078 40.257C206.035 40.2961 205.958 40.3195 205.849 40.3273C205.74 40.3391 205.589 40.3449 205.398 40.3449C205.199 40.3449 205.042 40.341 204.929 40.3332C204.82 40.3293 204.736 40.3195 204.677 40.3039C204.619 40.2844 204.578 40.259 204.554 40.2277C204.531 40.1965 204.511 40.1555 204.496 40.1047L203.986 38.5812H201.138L200.658 40.0637C200.642 40.1183 200.621 40.1652 200.593 40.2043C200.57 40.2394 200.529 40.2687 200.47 40.2922C200.416 40.3117 200.335 40.3254 200.23 40.3332C200.128 40.341 199.994 40.3449 199.826 40.3449C199.646 40.3449 199.505 40.3391 199.404 40.3273C199.302 40.3156 199.232 40.2883 199.193 40.2453C199.154 40.1984 199.14 40.134 199.152 40.0519C199.164 39.9699 199.193 39.8605 199.24 39.7238L201.578 32.9973C201.601 32.9308 201.628 32.8781 201.66 32.8391C201.691 32.7961 201.74 32.7648 201.806 32.7453C201.876 32.7219 201.972 32.7082 202.093 32.7043C202.214 32.6965 202.375 32.6926 202.574 32.6926C202.804 32.6926 202.988 32.6965 203.125 32.7043C203.261 32.7082 203.367 32.7219 203.441 32.7453C203.519 32.7648 203.574 32.7961 203.605 32.8391C203.64 32.882 203.669 32.9406 203.693 33.0148L206.037 39.7355ZM202.556 34.175H202.55L201.478 37.3976H203.628L202.556 34.175Z" fill="white"/>
</svg>
