<svg width="112" height="24" viewBox="0 0 112 24" fill="none" xmlns="http://www.w3.org/2000/svg">
<g clip-path="url(#clip0_174_937)">
<path d="M2.38248 11.8857C2.28533 7.05127 9.86773 7.05127 9.77058 11.8369C9.80766 12.7591 9.47871 13.6584 8.85604 14.3371C8.23338 15.0157 7.36795 15.4182 6.45 15.4561C6.32603 15.461 6.20189 15.4591 6.07812 15.4505C4.18212 15.4505 2.3355 14.2793 2.38407 11.8857H2.38248ZM1.79879 7.53926C1.22423 8.09605 0.768449 8.76447 0.459199 9.50385C0.149948 10.2432 -0.00630799 11.0381 -5.82369e-05 11.8401V22.8249C-0.0486327 24.3881 2.43026 24.3393 2.38248 22.8249V16.7201C6.17368 19.8465 12.3474 16.8177 12.1531 11.8361C12.2988 8.22246 9.04116 5.68246 5.88223 5.68246C4.33339 5.74773 2.87002 6.41356 1.79959 7.54006" fill="white"/>
<path d="M13.9536 1.22405V17.096C13.9523 17.3398 14.023 17.5785 14.1568 17.7819C14.2906 17.9852 14.4815 18.1441 14.7053 18.2384C14.9291 18.3326 15.1757 18.358 15.4139 18.3113C15.652 18.2646 15.871 18.1479 16.0431 17.976C16.1609 17.8637 16.2525 17.7265 16.3113 17.5743C16.3701 17.4222 16.3946 17.2589 16.3832 17.096V1.22405C16.3928 0.922624 16.283 0.62966 16.0779 0.409476C15.8728 0.189291 15.589 0.0598793 15.289 0.0496509C15.2495 0.0472518 15.2099 0.0472518 15.1704 0.0496509C14.8625 0.0359781 14.5618 0.14568 14.3344 0.354647C14.107 0.563613 13.9715 0.854743 13.9576 1.16405C13.9576 1.18325 13.9576 1.20245 13.9576 1.22165" fill="white"/>
<path d="M27.4064 11.9998C27.4549 13.9046 26.2915 15.7598 23.9026 15.711C23.4092 15.7528 22.9126 15.685 22.4482 15.5126C21.9837 15.3401 21.5626 15.0672 21.2148 14.7131C20.867 14.359 20.6009 13.9324 20.4354 13.4635C20.2699 12.9946 20.2091 12.4949 20.2571 11.9998C20.239 11.5307 20.313 11.0626 20.475 10.6223C20.6369 10.1819 20.8837 9.77796 21.201 9.43341C21.5184 9.08886 21.9002 8.8105 22.3247 8.61421C22.7492 8.41792 23.208 8.30755 23.6749 8.28941C23.7545 8.28941 23.827 8.28941 23.9026 8.28941C24.3579 8.28371 24.8099 8.36816 25.2327 8.53795C25.6556 8.70775 26.041 8.95955 26.3669 9.27899C26.6929 9.59843 26.953 9.97925 27.1324 10.3997C27.3119 10.8201 27.4071 11.272 27.4127 11.7294C27.4127 11.8198 27.4127 11.9102 27.4064 11.9998ZM19.5317 7.70461C14.1845 12.979 21.6212 21.3846 27.5035 16.8854C27.5521 18.3998 29.9346 18.4974 29.886 16.8854V12.0966C30.0803 8.43421 26.9214 5.94301 23.7123 5.94301C22.9297 5.9108 22.1496 6.05175 21.4272 6.35588C20.7047 6.66001 20.0577 7.1199 19.5317 7.70301" fill="white"/>
<path d="M31.1068 9.55754C31.0757 10.0067 31.133 10.4575 31.2753 10.8844C31.4177 11.3113 31.6424 11.7059 31.9366 12.0455C32.2307 12.3851 32.5886 12.6633 32.9897 12.8639C33.3909 13.0646 33.8274 13.184 34.2745 13.2151C34.4012 13.2238 34.5282 13.2257 34.6551 13.2207C37.3777 13.6111 34.9466 17.3719 33.4408 14.9807C31.6419 12.2463 29.8431 15.6647 32.3713 17.3255C35.8225 20.2559 40.4403 14.9319 37.2328 11.8559C36.309 10.6839 34.8502 11.1231 33.7816 10.3903C32.3713 9.02234 35.0931 7.26474 35.7723 8.92474C37.9598 12.2463 40.0509 6.14154 34.6575 5.84874H34.5596C34.0944 5.86016 33.6361 5.96351 33.2107 6.15291C32.7853 6.3423 32.4012 6.61402 32.0804 6.95255C31.7595 7.29109 31.5082 7.6898 31.3407 8.12592C31.1733 8.56204 31.093 9.02703 31.1044 9.49434V9.55834" fill="white"/>
<path d="M43.3906 0.00382922C41.3003 -0.0937708 42.4669 4.98543 42.224 6.10863H41.6889C40.668 6.05903 39.2577 6.01023 39.2577 7.32863C39.2092 8.64623 40.6672 8.59743 41.6881 8.54863H42.1746V17.1446C42.1515 17.462 42.2548 17.7757 42.4619 18.0166C42.6689 18.2574 42.9627 18.4058 43.2787 18.429C43.5946 18.4523 43.9068 18.3485 44.1466 18.1404C44.3863 17.9324 44.534 17.6372 44.5571 17.3198C44.5611 17.2615 44.5611 17.203 44.5571 17.1446V8.49983H46.2589C46.4076 8.50441 46.5559 8.47948 46.695 8.42646C46.8342 8.37344 46.9616 8.29337 47.07 8.19083C47.1783 8.08829 47.2655 7.9653 47.3265 7.82888C47.3875 7.69247 47.4211 7.54531 47.4254 7.39583C47.4278 7.35827 47.4278 7.32059 47.4254 7.28303C47.4366 7.13385 47.4185 6.98391 47.372 6.84178C47.3255 6.69965 47.2516 6.56812 47.1545 6.45468C47.0574 6.34124 46.939 6.24813 46.8061 6.18065C46.6732 6.11318 46.5284 6.07267 46.3799 6.06143C46.3398 6.05903 46.2997 6.05903 46.2596 6.06143H44.5571C44.3143 5.03343 45.4809 0.00382922 43.4877 0.00382922H43.3906Z" fill="white"/>
<path d="M48.6541 7.2799C48.7512 7.5727 48.3141 18.2191 48.9941 17.9751C49.1641 18.1427 49.3798 18.2557 49.6139 18.2998C49.8479 18.3438 50.0897 18.317 50.3086 18.2227C50.5274 18.1284 50.7134 17.9708 50.8429 17.77C50.9724 17.5692 51.0396 17.3343 51.0358 17.0951V7.2799C51.045 6.97792 50.9346 6.6846 50.7287 6.4644C50.5228 6.24419 50.2383 6.11511 49.9377 6.1055C49.8987 6.10309 49.8597 6.10309 49.8207 6.1055C49.6698 6.10296 49.5199 6.13034 49.3795 6.18609C49.2392 6.24184 49.1112 6.32485 49.0028 6.43037C48.8944 6.53589 48.8079 6.66185 48.748 6.80104C48.6882 6.94022 48.6563 7.0899 48.6541 7.2415V7.2799ZM49.9178 1.2239C49.6173 1.21441 49.3253 1.32521 49.1061 1.53194C48.8869 1.73867 48.7584 2.02439 48.7488 2.3263C48.7488 2.36523 48.7488 2.40443 48.7488 2.4439C48.738 2.59316 48.7566 2.7431 48.8034 2.88515C48.8503 3.0272 48.9247 3.15856 49.0221 3.27173C49.1196 3.38489 49.2384 3.47764 49.3715 3.54466C49.5047 3.61168 49.6498 3.65165 49.7984 3.6623C49.8374 3.6647 49.8764 3.6647 49.9154 3.6623C50.061 3.67051 50.2067 3.64983 50.3442 3.60143C50.4818 3.55304 50.6085 3.47788 50.7172 3.38025C50.8258 3.28263 50.9142 3.16445 50.9774 3.03247C51.0405 2.90049 51.0772 2.75731 51.0852 2.6111C51.0896 2.55465 51.0896 2.49794 51.0852 2.4415C51.0905 2.12458 50.9709 1.81842 50.7523 1.58984C50.5337 1.36126 50.234 1.22885 49.9186 1.2215" fill="white"/>
<path d="M52.9056 1.22405V17.0961C52.9041 17.34 52.9748 17.5789 53.1086 17.7824C53.2425 17.986 53.4335 18.1449 53.6574 18.2392C53.8814 18.3335 54.1282 18.3588 54.3665 18.312C54.6048 18.2651 54.8238 18.1482 54.9959 17.9761C55.1136 17.8636 55.2051 17.7264 55.2639 17.5743C55.3226 17.4221 55.3472 17.2588 55.3359 17.0961V1.22405C55.3407 1.07454 55.3161 0.925539 55.2635 0.78558C55.211 0.645621 55.1314 0.517443 55.0295 0.408375C54.9276 0.299306 54.8053 0.211486 54.6696 0.149934C54.5339 0.0883813 54.3874 0.0543043 54.2386 0.0496509C54.1991 0.0472518 54.1595 0.0472518 54.12 0.0496509C53.8121 0.0359781 53.5114 0.14568 53.284 0.354647C53.0566 0.563613 52.921 0.854743 52.9072 1.16405C52.9072 1.18325 52.9072 1.20245 52.9072 1.22165" fill="white"/>
<path d="M57.1077 7.27992V17.0959C57.1063 17.2549 57.136 17.4126 57.1953 17.56C57.2545 17.7075 57.3421 17.8417 57.4531 17.9551C57.564 18.0685 57.6961 18.1588 57.8418 18.2208C57.9875 18.2829 58.1439 18.3155 58.3022 18.3167H58.3253C58.6337 18.3178 58.9299 18.1958 59.1488 17.9775C59.3677 17.7592 59.4914 17.4626 59.4927 17.1527C59.4927 17.1335 59.4927 17.1151 59.4927 17.0959V7.27992C59.5021 6.97802 59.3918 6.6847 59.186 6.46447C58.9803 6.24424 58.6959 6.11513 58.3954 6.10552C58.3564 6.10312 58.3173 6.10312 58.2783 6.10552C58.1312 6.0993 57.9843 6.12226 57.8461 6.17311C57.7078 6.22395 57.5809 6.30166 57.4726 6.40182C57.3642 6.50197 57.2766 6.62259 57.2147 6.75679C57.1528 6.89099 57.1178 7.03613 57.1117 7.18392C57.1101 7.2151 57.1101 7.24634 57.1117 7.27752L57.1077 7.27992ZM58.3269 1.22152C58.1781 1.21672 58.0298 1.24143 57.8904 1.29425C57.7511 1.34706 57.6235 1.42694 57.515 1.52932C57.4064 1.6317 57.319 1.75458 57.2577 1.89092C57.1965 2.02726 57.1625 2.1744 57.1579 2.32392C57.1555 2.36308 57.1555 2.40236 57.1579 2.44152C57.1471 2.59072 57.1656 2.7406 57.2124 2.8826C57.2593 3.0246 57.3335 3.15593 57.4309 3.26909C57.5283 3.38224 57.647 3.475 57.7801 3.54206C57.9132 3.60913 58.0581 3.64918 58.2066 3.65992C58.2459 3.66233 58.2852 3.66233 58.3245 3.65992C58.6183 3.67629 58.9066 3.57475 59.126 3.37763C59.3454 3.18051 59.4778 2.90393 59.4943 2.60872C59.4973 2.55217 59.496 2.49547 59.4903 2.43912C59.501 2.28999 59.4824 2.14019 59.4355 1.99828C59.3886 1.85638 59.3144 1.72514 59.217 1.61207C59.1196 1.499 59.001 1.40631 58.8679 1.3393C58.7349 1.27229 58.59 1.23227 58.4415 1.22152C58.4026 1.21912 58.3635 1.21912 58.3245 1.22152" fill="white"/>
<path d="M61.1068 16.8872C61.0582 18.4504 63.5864 18.4504 63.4893 16.8872V12C63.3921 7.16563 70.9746 7.21443 70.8782 12V16.8848C70.9015 17.1861 71.0371 17.4675 71.2578 17.6727C71.4786 17.8779 71.7683 17.9919 72.0691 17.9919C72.3699 17.9919 72.6596 17.8779 72.8803 17.6727C73.1011 17.4675 73.2367 17.1861 73.26 16.8848C73.5514 12.0992 73.4988 6.04323 67.1348 5.84483C60.9125 6.04003 60.8639 12.0472 61.1068 16.8848" fill="white"/>
<path d="M94.2185 17.0959C94.3157 18.7079 91.8846 18.6103 91.836 17.0959C85.9537 21.6375 78.5155 13.1895 83.8642 7.91507C87.4611 4.00786 94.4614 6.88947 94.2161 12.2615V17.0959H94.2185ZM88.2391 15.9239C92.954 16.0703 92.9054 8.45267 88.2391 8.54947C83.4756 8.40387 83.2805 16.0695 88.2391 15.9239Z" fill="#E55030"/>
<path d="M98.3027 17.0957C98.2794 17.3969 98.1439 17.6783 97.9231 17.8835C97.7023 18.0888 97.4126 18.2028 97.1118 18.2028C96.8111 18.2028 96.5213 18.0888 96.3006 17.8835C96.0798 17.6783 95.9443 17.3969 95.921 17.0957V12.2157C95.143 8.84127 101.998 3.51967 103.26 7.27967C103.256 7.60169 103.126 7.90913 102.899 8.13686C102.673 8.36459 102.367 8.49472 102.046 8.49967C97.5247 8.40287 98.3513 14.1653 98.3035 17.0957" fill="#E55030"/>
<path d="M110.892 6.10713C111.192 6.13052 111.472 6.26671 111.677 6.4885C111.881 6.71029 111.994 7.00135 111.994 7.30353C111.994 7.60571 111.881 7.89677 111.677 8.11856C111.472 8.34035 111.192 8.47654 110.892 8.49993H109.191V17.0959C109.187 17.4182 109.058 17.7262 108.832 17.9546C108.605 18.1831 108.299 18.3141 107.979 18.3199C107.663 18.3126 107.363 18.1801 107.145 17.9513C106.926 17.7226 106.807 17.4162 106.812 17.0991V8.49993C105.84 8.49993 103.847 8.79273 103.895 7.27993C103.847 5.76553 105.886 6.10793 106.812 6.10793C107.103 4.98793 105.886 -0.0944704 107.979 -7.03533e-05C110.068 -0.14647 108.902 4.98153 109.193 6.10473L110.892 6.10713Z" fill="#E55030"/>
</g>
<defs>
<clipPath id="clip0_174_937">
<rect width="112" height="24" fill="white"/>
</clipPath>
</defs>
</svg>
