<svg width="82" height="82" viewBox="0 0 82 82" fill="none" xmlns="http://www.w3.org/2000/svg">
<circle cx="41" cy="41" r="40" fill="white" fill-opacity="0.1"/>
<circle cx="41" cy="41" r="34" fill="#293A50"/>
<path d="M2.363 30.6472C8.08067 9.30855 30.0142 -3.35475 51.3528 2.36292C72.6914 8.08059 85.3547 30.0141 79.6371 51.3527C73.9194 72.6914 51.9859 85.3547 30.6473 79.637C9.30863 73.9193 -3.35467 51.9858 2.363 30.6472ZM77.4213 50.759C82.8111 30.6441 70.874 9.96846 50.7591 4.57868C30.6442 -0.811091 9.96854 11.126 4.57877 31.2409C-0.811009 51.3558 11.1261 72.0314 31.241 77.4212C51.3559 82.811 72.0315 70.8739 77.4213 50.759Z" fill="#293A50"/>
<path d="M43.6848 56V31.5429L48.6957 38.797H52L42.5002 24L33 38.797H36.3043L40.8478 31.5429V56H43.6848Z" fill="white"/>
</svg>
