<svg width="90" height="90" viewBox="0 0 90 90" fill="none" xmlns="http://www.w3.org/2000/svg">
<g clip-path="url(#clip0_518_153)">
<path fill-rule="evenodd" clip-rule="evenodd" d="M53.9998 17C53.9998 16.4478 53.5521 16 52.9998 16C52.4476 16 51.9998 16.4478 51.9998 17V21.9958L49.9232 24.6573C49.6488 25.0088 49.4998 25.4419 49.4998 25.8877V34.6893H42.4998V30.9492L43.4417 30.4462C44.0931 30.0984 44.4998 29.4202 44.4998 28.6819V26.5437C44.4998 25.4391 43.6043 24.5437 42.4998 24.5437H39.9998C38.8953 24.5437 37.9998 25.4391 37.9998 26.5437V28.6213C37.9998 29.4222 38.4779 30.1459 39.2142 30.4606L40.4998 31.0098V34.6893H38.4168C35.9525 34.6893 33.6253 35.8251 32.1097 37.7678L30.472 39.8667C29.4471 41.1799 30.3826 43.097 32.0487 43.097H46.9998V46.5049C46.9998 48.1617 48.3431 49.5049 49.9998 49.5049H51.9998V65.6392L47.1654 69.4254C45.6688 70.5975 46.4974 73 48.3988 73H57.6009C59.5023 73 60.3309 70.5975 58.8343 69.4254L53.9998 65.6392V49.5049H55.9998C57.6566 49.5049 58.9998 48.1617 58.9998 46.5049V43.097C58.9998 41.9926 58.1043 41.097 56.9998 41.097H32.0487L33.6864 38.9983C34.8231 37.5411 36.5682 36.6893 38.4168 36.6893H67.8621C69.8167 36.6893 71.6488 37.6415 72.7723 39.2411L74.0755 41.097H62.4998C61.9476 41.097 61.4998 41.5448 61.4998 42.097C61.4998 42.6494 61.9476 43.097 62.4998 43.097H74.0755C75.6951 43.097 76.6429 41.2729 75.7122 39.9476L74.409 38.0917C72.911 35.9589 70.4681 34.6893 67.8621 34.6893H65.4998V31.0098L66.7855 30.4606C67.5218 30.1459 67.9998 29.4222 67.9998 28.6213V26.5437C67.9998 25.4391 67.1043 24.5437 65.9998 24.5437H62.9998C61.8953 24.5437 60.9998 25.4391 60.9998 26.5437V28.6213C60.9998 29.4222 61.4779 30.1459 62.2142 30.4606L63.4998 31.0098V34.6893H56.4998V25.8877C56.4998 25.4419 56.3509 25.0088 56.0765 24.6573L53.9998 21.9958V17ZM51.4998 25.8877L52.9998 23.9653L54.4998 25.8877V34.6893H51.4998V25.8877ZM42.4998 28.6819L41.452 29.2416L39.9998 28.6213V26.5437H42.4998V28.6819ZM48.9998 46.5049V43.097H56.9998V46.5049C56.9998 46.8212 56.8529 47.1031 56.6234 47.2865C56.4525 47.4232 56.2357 47.5049 55.9998 47.5049H49.9998C49.4476 47.5049 48.9998 47.0571 48.9998 46.5049ZM48.3988 71L52.9998 67.3964L57.6009 71H48.3988ZM65.9998 28.6213L64.4998 29.2621L62.9998 28.6213V26.5437H65.9998V28.6213Z" fill="#293A50"/>
<path d="M86.5583 25C88.4592 25 90.0002 26.541 90.0002 28.4419V49.4587C90.0002 53.4124 86.9387 56.651 83.0574 56.9335L87.9949 71.6825C88.1702 72.2063 87.8879 72.7729 87.364 72.9482C86.8406 73.1237 86.2737 72.8412 86.0984 72.3175L80.9548 56.9535H74.092L68.9485 72.3175C68.7732 72.8412 68.2063 73.1237 67.6829 72.9482C67.1589 72.7729 66.8767 72.2063 67.052 71.6825L71.9832 56.9535H71.9187C69.7419 56.9535 67.9768 55.1887 67.9768 53.0116C67.9768 50.8346 69.7419 49.0698 71.9187 49.0698H83.1165V36.6976C83.1165 36.1454 83.5642 35.6976 84.1165 35.6976C84.6687 35.6976 85.1165 36.1454 85.1165 36.6976V49.8354C85.1165 50.5171 84.5637 51.0698 83.8821 51.0698H71.9187C70.8464 51.0698 69.9768 51.9392 69.9768 53.0116C69.9768 54.0841 70.8464 54.9535 71.9187 54.9535H82.5056C85.5403 54.9535 88.0002 52.4934 88.0002 49.4587V28.4419C88.0002 27.6455 87.3547 27 86.5583 27C85.762 27 85.1165 27.6455 85.1165 28.4419V31.8837C85.1165 32.436 84.6687 32.8837 84.1165 32.8837C83.5642 32.8837 83.1165 32.436 83.1165 31.8837V28.4419C83.1165 26.541 84.6575 25 86.5583 25Z" fill="#CC9C63"/>
<path d="M18.4419 26C16.541 26 15 27.541 15 29.4419V49.9487C15 53.868 18.0659 57.0712 21.9307 57.2904L17.0073 71.6763C16.8286 72.1987 17.1069 72.7673 17.6299 72.9462C18.1523 73.125 18.7207 72.8463 18.8994 72.3237L24.0405 57.3024H30.9131L36.0537 72.3237C36.2329 72.8463 36.8013 73.125 37.3237 72.9462C37.8462 72.7673 38.125 72.1987 37.9463 71.6763L33.0269 57.3024H33.1455C35.2871 57.3024 37.0234 55.5662 37.0234 53.4244C37.0234 51.2827 35.2871 49.5465 33.1455 49.5465H21.8838V37.4651C21.8838 36.9128 21.436 36.4651 20.8838 36.4651C20.3315 36.4651 19.8838 36.9128 19.8838 37.4651V50.3121C19.8838 50.9939 20.4365 51.5465 21.1182 51.5465H33.1455C34.1826 51.5465 35.0234 52.3873 35.0234 53.4244C35.0234 54.4615 34.1826 55.3024 33.1455 55.3024H22.3535C19.397 55.3024 17 52.9054 17 49.9487V29.4419C17 28.6455 17.6455 28 18.4419 28C19.2383 28 19.8838 28.6455 19.8838 29.4419V32.7559C19.8838 33.3081 20.3315 33.7559 20.8838 33.7559C21.436 33.7559 21.8838 33.3081 21.8838 32.7559V29.4419C21.8838 27.541 20.3428 26 18.4419 26Z" fill="#CC9C63"/>
</g>
<defs>
<clipPath id="clip0_518_153">
<rect width="90" height="90" fill="white"/>
</clipPath>
</defs>
</svg>
