<svg width="90" height="90" viewBox="0 0 90 90" fill="none" xmlns="http://www.w3.org/2000/svg">
<path fill-rule="evenodd" clip-rule="evenodd" d="M79.4839 19.8172C78.9453 19.2124 78.1465 19.0667 77.48 19.4031C76.8628 19.7144 76.4941 20.3658 76.4897 21.0733L76.2563 56.9734H72.5C71.9478 56.9734 71.5 57.4212 71.5 57.9734C71.5 58.5259 71.9478 58.9734 72.5 58.9734H87C87.2964 58.9734 87.5625 59.1023 87.7456 59.3069C87.8462 59.4195 87.9219 59.555 87.9634 59.7046C87.9746 59.7442 87.9834 59.7847 87.9893 59.826C87.9961 59.8741 88 59.9234 88 59.9734V71.9734C88 72.5259 87.5522 72.9734 87 72.9734H20C19.6836 72.9734 19.4019 72.8267 19.2188 72.5975C19.082 72.4266 19 72.2095 19 71.9734V59.9734C19 59.4212 19.4478 58.9734 20 58.9734H47V60.9734C47 62.0782 47.8955 62.9734 49 62.9734H58C59.1045 62.9734 60 62.0782 60 60.9734V58.9734H68C68.5522 58.9734 69 58.5259 69 57.9734C69 57.74 68.9199 57.5252 68.7856 57.355C68.6602 57.1956 68.4868 57.0752 68.2876 57.0154C68.1968 56.9881 68.1001 56.9734 68 56.9734H31V27.4734C31 26.4634 30.5396 25.1448 29.9546 23.9192C29.3511 22.6543 28.5366 21.3284 27.6816 20.2652C27.1494 19.6036 26.3228 19.4095 25.6133 19.7137C24.9355 20.0044 24.5 20.6883 24.5 21.4734V47.9734C24.5 48.5259 24.9478 48.9734 25.5 48.9734C25.6455 48.9734 25.7837 48.9424 25.9082 48.8865C25.9946 48.8479 26.0742 48.7974 26.1455 48.7373C26.167 48.7193 26.1875 48.7002 26.207 48.6805C26.2285 48.659 26.249 48.6365 26.2686 48.6133C26.4131 48.44 26.5 48.2168 26.5 47.9734V22.0108C27.1133 22.8497 27.6973 23.8328 28.1494 24.7808C28.4277 25.3636 28.6387 25.8965 28.7808 26.3514L28.7925 26.3904C28.8467 26.5647 28.8896 26.7273 28.9224 26.8765C28.9741 27.1111 29 27.3121 29 27.4734V56.9734H26.5V51.9734C26.5 51.7478 26.4253 51.5398 26.2993 51.3726C26.2217 51.2693 26.124 51.1814 26.0127 51.1148C25.8628 51.0249 25.6875 50.9734 25.5 50.9734C24.9478 50.9734 24.5 51.4212 24.5 51.9734V56.9734H20C18.3433 56.9734 17 58.3167 17 59.9734V71.9734C17 73.6304 18.3433 74.9734 20 74.9734H22V77.4734C22 78.5782 22.8955 79.4734 24 79.4734H31.5C32.6045 79.4734 33.5 78.5782 33.5 77.4734V74.9734H73.5V77.4734C73.5 78.5782 74.3955 79.4734 75.5 79.4734H83C84.1045 79.4734 85 78.5782 85 77.4734V74.9734H87C88.6567 74.9734 90 73.6304 90 71.9734V59.9734C90 58.3167 88.6567 56.9734 87 56.9734H83V28.2923C83 27.2776 82.5879 25.7002 81.9893 24.1795C81.3833 22.6387 80.5151 20.9756 79.4839 19.8172ZM81 56.9734H78.2563L78.4849 21.7725C79.1069 22.6443 79.6802 23.7727 80.1284 24.9117C80.7012 26.3672 81 27.6612 81 28.2923V56.9734ZM58 60.9734H49V58.9734H58V60.9734ZM24 77.4734V74.9734H31.5V77.4734H24ZM75.5 77.4734V74.9734H83V77.4734H75.5Z" fill="#293A50"/>
<path d="M41 66.9734C40.4478 66.9734 40 67.4212 40 67.9734C40 68.5257 40.4478 68.9734 41 68.9734H66C66.5522 68.9734 67 68.5257 67 67.9734C67 67.7059 66.895 67.4627 66.7236 67.2832C66.6401 67.1956 66.541 67.1233 66.4302 67.0706C66.3408 67.0279 66.2441 66.9981 66.1431 66.9834C66.0962 66.9769 66.0483 66.9734 66 66.9734H41Z" fill="#293A50"/>
<path d="M30.5 67.9734C30.5 68.2227 30.4087 68.4507 30.2578 68.6258C30.0747 68.8387 29.8032 68.9734 29.5 68.9734C28.9478 68.9734 28.5 68.5257 28.5 67.9734C28.5 67.9251 28.5034 67.8777 28.5098 67.8313C28.5239 67.7325 28.5527 67.638 28.5938 67.5506C28.6689 67.3897 28.7856 67.252 28.9307 67.1514C29.0923 67.0391 29.2886 66.9734 29.5 66.9734C30.0522 66.9734 30.5 67.4212 30.5 67.9734Z" fill="#293A50"/>
<path d="M83.5 68.9734C84.0522 68.9734 84.5 68.5257 84.5 67.9734C84.5 67.6016 84.2974 67.2771 83.9961 67.1048C83.8496 67.0213 83.6802 66.9734 83.5 66.9734C82.9478 66.9734 82.5 67.4212 82.5 67.9734C82.5 68.2193 82.5889 68.4444 82.7358 68.6185C82.9189 68.8355 83.1934 68.9734 83.5 68.9734Z" fill="#293A50"/>
<path d="M25.8267 68.9187C25.7241 68.9541 25.6143 68.9734 25.5 68.9734C24.9478 68.9734 24.5 68.5257 24.5 67.9734C24.5 67.6062 24.6982 67.2852 24.9932 67.1114C25.1416 67.0237 25.3149 66.9734 25.5 66.9734C26.0522 66.9734 26.5 67.4212 26.5 67.9734C26.5 68.4112 26.2188 68.7832 25.8267 68.9187Z" fill="#293A50"/>
<path d="M79.5 68.9734C80.0522 68.9734 80.5 68.5257 80.5 67.9734C80.5 67.4212 80.0522 66.9734 79.5 66.9734C78.9478 66.9734 78.5 67.4212 78.5 67.9734C78.5 68.5257 78.9478 68.9734 79.5 68.9734Z" fill="#293A50"/>
<path fill-rule="evenodd" clip-rule="evenodd" d="M41.1712 17.7571C40.1574 18.1916 39.5 19.1885 39.5 20.2915C39.5 22.2711 41.5241 23.6058 43.3436 22.826L45.2769 21.9975C50.528 19.747 56.472 19.747 61.7231 21.9975L63.6564 22.826C65.4759 23.6058 67.5 22.2711 67.5 20.2915C67.5 19.1885 66.8426 18.1916 65.8288 17.7571L64.2242 17.0694C57.376 14.1344 49.624 14.1344 42.7758 17.0694L41.1712 17.7571ZM62.511 20.1592L64.4442 20.9877C64.944 21.2019 65.5 20.8353 65.5 20.2915C65.5 19.9885 65.3194 19.7147 65.0409 19.5953L63.4364 18.9077C57.0912 16.1883 49.9088 16.1883 43.5636 18.9077L41.9591 19.5953C41.6806 19.7147 41.5 19.9885 41.5 20.2915C41.5 20.8353 42.056 21.2019 42.5558 20.9877L44.489 20.1592C50.2433 17.6931 56.7568 17.6931 62.511 20.1592Z" fill="#CC9C63"/>
<path fill-rule="evenodd" clip-rule="evenodd" d="M45.5 26.7457C45.5 25.4102 46.4089 24.2461 47.7045 23.9222L48.5618 23.7078C51.804 22.8973 55.196 22.8973 58.4382 23.7078L59.2955 23.9222C60.5911 24.2461 61.5 25.4102 61.5 26.7457C61.5 28.6391 59.7206 30.0284 57.8837 29.5692L57.4661 29.4648C54.8621 28.8138 52.1379 28.8138 49.5339 29.4648L49.1163 29.5692C47.2794 30.0284 45.5 28.6391 45.5 26.7457ZM58.3688 27.6289L57.9512 27.5245C55.0287 26.7939 51.9713 26.7939 49.0488 27.5245L48.6312 27.6289C48.0566 27.7726 47.5 27.338 47.5 26.7457C47.5 26.3279 47.7843 25.9638 48.1896 25.8624L49.0469 25.6481C51.9706 24.9172 55.0294 24.9172 57.9531 25.6481L58.8104 25.8624C59.2157 25.9638 59.5 26.3279 59.5 26.7457C59.5 27.338 58.9434 27.7726 58.3688 27.6289Z" fill="#CC9C63"/>
<path fill-rule="evenodd" clip-rule="evenodd" d="M57.5 35.4733C57.5 37.6824 55.7091 39.4733 53.5 39.4733C51.2909 39.4733 49.5 37.6824 49.5 35.4733C49.5 33.2642 51.2909 31.4733 53.5 31.4733C55.7091 31.4733 57.5 33.2642 57.5 35.4733ZM55.5 35.4733C55.5 36.5779 54.6046 37.4733 53.5 37.4733C52.3954 37.4733 51.5 36.5779 51.5 35.4733C51.5 34.3687 52.3954 33.4733 53.5 33.4733C54.6046 33.4733 55.5 34.3687 55.5 35.4733Z" fill="#CC9C63"/>
</svg>
