<svg width="90" height="90" viewBox="0 0 90 90" fill="none" xmlns="http://www.w3.org/2000/svg">
<path d="M58.6857 54C58.6857 54.5523 58.2379 55 57.6857 55C57.1334 55 56.6857 54.5523 56.6857 54C56.6857 53.4477 57.1334 53 57.6857 53C58.2379 53 58.6857 53.4477 58.6857 54Z" fill="#293A50"/>
<path d="M58.6857 58.4997C58.6855 57.9474 58.2377 57.4999 57.6854 57.5C57.1331 57.5001 56.6855 57.948 56.6857 58.5003C56.6858 59.0798 56.7703 60.0091 57.0141 61.0113C57.2565 62.0082 57.6742 63.1514 58.3857 64.1C59.1934 65.177 60.1746 66.1702 61.5327 66.8849C62.8912 67.5999 64.5577 68 66.6861 68C67.2384 68 67.6861 67.5523 67.6861 67C67.6861 66.4477 67.2384 66 66.6861 66C64.8145 66 63.4808 65.6501 62.4641 65.1151C61.447 64.5798 60.6779 63.823 59.9857 62.9C59.4971 62.2486 59.1649 61.3918 58.9574 60.5387C58.7513 59.6909 58.6858 58.9202 58.6857 58.4997Z" fill="#293A50"/>
<path fill-rule="evenodd" clip-rule="evenodd" d="M20.1857 13C20.1857 11.8954 21.0811 11 22.1857 11H43.1857C44.2902 11 45.1857 11.8954 45.1857 13V18.7878L49.1857 27.7878V58H51.4308V45H89.6857V55C89.6857 58.3137 86.9994 61 83.6857 61H83.2076L83.2272 61.8977C83.2676 63.7595 82.8352 65.6011 81.9703 67.2503C81.3171 68.4957 80.4313 69.6044 79.3609 70.5165L78.9011 70.9084H88.6857C89.2379 70.9084 89.6857 71.3561 89.6857 71.9084C89.6857 72.4607 89.2379 72.9084 88.6857 72.9084H82.9046L80.3869 78H19.2401L18.5701 77.961C14.9959 77.7528 13.6821 73.1579 16.6059 71.0917L16.6187 71.0828L16.6857 71.0371V27.8124L20.1857 18.8124V13ZM21.8697 20L19.1475 27H39.5358L42.6469 20H21.8697ZM44.1857 21.4622L41.7244 27H46.6469L44.1857 21.4622ZM41.1857 29V58H47.1857V29H41.1857ZM39.1857 58V29H18.6857V69.6699L23.8608 66.1321L24.0702 65.3136C24.314 64.3611 25.0676 63.5094 25.9424 63.0607L32.6656 60.604L33.1342 59.9565C34.0234 58.7277 35.4481 58 36.965 58H39.1857ZM32.529 62.7833L26.6946 64.9152C26.3538 65.1065 26.1051 65.4293 26.0078 65.8094L25.7663 66.7533L27.9749 76H34.9829L32.529 62.7833ZM37.0171 76H53.9625L52.1958 72.9084H46.6042C46.0519 72.9084 45.6042 72.4607 45.6042 71.9084C45.6042 71.3561 46.0519 70.9084 46.6042 70.9084H56.0308L55.5978 70.5719C54.3984 69.6402 53.4094 68.4656 52.6957 67.1251C51.8652 65.5654 51.4308 63.8254 51.4308 62.0584V60H36.965C36.0897 60 35.2676 60.4199 34.7544 61.129L34.3578 61.6772L37.0171 76ZM59.2909 70.9084H75.8174L78.0638 68.9942C78.9397 68.2478 79.6646 67.3405 80.1991 66.3214C80.9069 64.9718 81.2608 63.4648 81.2276 61.9412L81.1857 60.0109V47H53.4308V62.0584C53.4308 63.4976 53.7846 64.9148 54.461 66.1851C55.0424 67.277 55.8479 68.2337 56.8247 68.9925L59.2909 70.9084ZM83.1857 59H83.6857C85.8948 59 87.6857 57.2091 87.6857 55V47H83.1857V59ZM54.4993 72.9084L56.266 76H79.1447L80.6735 72.9084H54.4993ZM25.9187 76L24.1011 68.3905L17.7544 72.7291C16.3831 73.7054 17.0033 75.8663 18.6864 75.9644L19.2982 76H25.9187ZM43.1857 18H22.1857V13H43.1857V18Z" fill="#293A50"/>
<path d="M72.1855 25C74.8834 25 77.1276 23.0576 77.5958 20.495C77.6951 19.9517 77.2378 19.5 76.6855 19.5C76.1333 19.5 75.6999 19.9568 75.5445 20.4868C75.1185 21.9394 73.776 23 72.1855 23H66.1855C63.9766 23 62.1855 24.7908 62.1855 27C62.1855 29.2092 63.9766 31 66.1855 31H80.4355C81.6782 31 82.6855 32.0073 82.6855 33.25C82.6855 34.4927 81.6782 35.5 80.4355 35.5H63.1855C59.9345 35.5 57.2409 37.8868 56.7614 41.0037C56.6775 41.5496 57.1333 42 57.6855 42C58.2378 42 58.674 41.5466 58.7953 41.0078C59.2471 38.9999 61.0411 37.5 63.1855 37.5H80.4355C82.7827 37.5 84.6855 35.5972 84.6855 33.25C84.6855 30.9028 82.7827 29 80.4355 29H66.1855C65.0811 29 64.1855 28.1045 64.1855 27C64.1855 25.8955 65.0811 25 66.1855 25H72.1855Z" fill="#CC9C63"/>
</svg>
