<svg width="90" height="90" viewBox="0 0 90 90" fill="none" xmlns="http://www.w3.org/2000/svg">
<path fill-rule="evenodd" clip-rule="evenodd" d="M86 24V16H36.5V25C36.5 25.5523 36.0523 26 35.5 26C34.9477 26 34.5 25.5523 34.5 25V15.8662C34.2011 15.6933 34 15.3701 34 15V10C34 9.44772 34.4477 9 35 9H88C88.5523 9 89 9.44772 89 10V15C89 15.5523 88.5523 16 88 16V24C88 24.5523 87.5523 25 87 25C86.4477 25 86 24.5523 86 24ZM36 11V14H87V11H36Z" fill="#CC9C63"/>
<path d="M88 28.5C88 27.9477 87.5523 27.5 87 27.5C86.4477 27.5 86 27.9477 86 28.5V42.5H42C41.4477 42.5 41 42.9477 41 43.5C41 44.0523 41.4477 44.5 42 44.5H86C87.1046 44.5 88 43.6046 88 42.5V28.5Z" fill="#CC9C63"/>
<path fill-rule="evenodd" clip-rule="evenodd" d="M72.5 19C72.8377 19 73.1714 19.0176 73.5 19.052C78.2767 19.5517 82 23.591 82 28.5C82 33.7467 77.7467 38 72.5 38C69.889 38 67.5241 36.9467 65.8069 35.2418C65.57 35.0066 65.3454 34.759 65.1342 34.5L65.1271 34.4913C64.919 34.2355 64.7239 33.9687 64.5429 33.6918C63.5672 32.1996 63 30.416 63 28.5C63 23.591 66.7233 19.5517 71.5 19.052C71.8286 19.0176 72.1623 19 72.5 19ZM73.5 28.9752V21.0661C77.1694 21.555 80 24.6969 80 28.5C80 32.6421 76.6421 36 72.5 36C70.5154 36 68.7116 35.2309 67.3684 33.9698L73.5 28.9752ZM71.5 28.0248L66.1043 32.42C65.4034 31.2796 65 29.9386 65 28.5C65 24.6969 67.8306 21.555 71.5 21.0661V28.0248Z" fill="#293A50"/>
<path fill-rule="evenodd" clip-rule="evenodd" d="M60.2546 24.3438C60.617 24.7606 60.5729 25.3922 60.1562 25.7546L55.0604 30.1857C55.7523 31.6263 55.4597 33.4021 54.233 34.5411L49.195 39.2193C49.0007 39.3997 48.7453 39.5 48.4801 39.5H42V47H89C89.5523 47 90 47.4477 90 48V53C90 53.5523 89.5523 54 89 54H88V79C88 79.5523 87.5523 80 87 80H24C23.4477 80 23 79.5523 23 79V54H22C21.4477 54 21 53.5523 21 53V48C21 47.4477 21.4477 47 22 47H24V39C24 35.6863 26.6863 33 30 33H31.2572C30.4718 32.0491 30 30.8296 30 29.5C30 26.4624 32.4624 24 35.5 24C38.5376 24 41 26.4624 41 29.5C41 30.8296 40.5282 32.0491 39.7428 33H45.109L49.369 29.0678C50.5979 27.9333 52.4016 27.8237 53.7402 28.6833L58.8438 24.2454C59.2606 23.883 59.8922 23.9271 60.2546 24.3438ZM86 78H82V74C82 72.0271 80.5717 70.3879 78.6928 70.0598C79.5081 69.1004 80 67.8577 80 66.5C80 63.4624 77.5376 61 74.5 61C71.4624 61 69 63.4624 69 66.5C69 67.8577 69.4919 69.1004 70.3072 70.0598C68.4283 70.3879 67 72.0271 67 74V78H63V74C63 72.0271 61.5717 70.3879 59.6928 70.0598C60.5081 69.1004 61 67.8577 61 66.5C61 63.4624 58.5376 61 55.5 61C52.4624 61 50 63.4624 50 66.5C50 67.8577 50.4919 69.1004 51.3072 70.0598C49.4283 70.3879 48 72.0271 48 74V78H44V74C44 72.0271 42.5717 70.3879 40.6928 70.0598C41.5081 69.1004 42 67.8577 42 66.5C42 63.4624 39.5376 61 36.5 61C33.4624 61 31 63.4624 31 66.5C31 67.8577 31.4919 69.1004 32.3072 70.0598C30.4283 70.3879 29 72.0271 29 74V78H25V54H86V78ZM78 66.5C78 68.433 76.433 70 74.5 70C72.567 70 71 68.433 71 66.5C71 64.567 72.567 63 74.5 63C76.433 63 78 64.567 78 66.5ZM69 74C69 72.8954 69.8954 72 71 72H78C79.1046 72 80 72.8954 80 74V78H69V74ZM61 78V74C61 72.8954 60.1046 72 59 72H52C50.8954 72 50 72.8954 50 74V78H61ZM55.5 70C57.433 70 59 68.433 59 66.5C59 64.567 57.433 63 55.5 63C53.567 63 52 64.567 52 66.5C52 68.433 53.567 70 55.5 70ZM40 66.5C40 68.433 38.433 70 36.5 70C34.567 70 33 68.433 33 66.5C33 64.567 34.567 63 36.5 63C38.433 63 40 64.567 40 66.5ZM31 74C31 72.8954 31.8954 72 33 72H40C41.1046 72 42 72.8954 42 74V78H31V74ZM26 47H32.5C33.3284 47 34 46.3284 34 45.5C34 44.6716 33.3284 44 32.5 44H29.542C28.9665 44 28.5 43.5335 28.5 42.958V38.5C28.5 37.9477 28.9477 37.5 29.5 37.5C30.0523 37.5 30.5 37.9477 30.5 38.5V42H32.5C34.433 42 36 43.567 36 45.5C36 46.0368 35.8792 46.5454 35.6632 47H40V39.5C40 38.3954 40.8954 37.5 42 37.5H48.1073L52.8721 33.0755C53.5606 32.4363 53.6161 31.3655 52.9974 30.6585C52.4091 29.9861 51.382 29.9314 50.7255 30.5374L46.191 34.7231C45.9981 34.9011 45.7452 35 45.4827 35H30C27.7909 35 26 36.7909 26 39V47ZM88 52V49H23V52H88ZM39 29.5C39 31.433 37.433 33 35.5 33C33.567 33 32 31.433 32 29.5C32 27.567 33.567 26 35.5 26C37.433 26 39 27.567 39 29.5Z" fill="#293A50"/>
</svg>
