<svg width="90" height="90" viewBox="0 0 90 90" fill="none" xmlns="http://www.w3.org/2000/svg">
<path fill-rule="evenodd" clip-rule="evenodd" d="M48 15.5C47.4477 15.5 47 15.9477 47 16.5C47 17.0523 47.4477 17.5 48 17.5H58C58.5523 17.5 59 17.0523 59 16.5C59 15.9477 58.5523 15.5 58 15.5H48ZM24.3322 46.2559C24.8844 46.2559 25.3322 45.8081 25.3322 45.2559C25.3322 44.7036 24.8844 44.2559 24.3322 44.2559C23.7799 44.2559 23.3322 44.7036 23.3322 45.2559C23.3322 45.8081 23.7799 46.2559 24.3322 46.2559ZM24.332 53C24.8843 53 25.332 52.5523 25.332 52C25.332 51.4477 24.8843 51 24.332 51C23.7797 51 23.332 51.4477 23.332 52C23.332 52.5523 23.7797 53 24.332 53ZM54 25H52V81H54V25Z" fill="#CC9C63"/>
<path d="M17 8C15.8954 8 15 8.89543 15 10V12.5C15 13.0523 15.4477 13.5 16 13.5C16.5523 13.5 17 13.0523 17 12.5V10H80C80.5523 10 81 9.55228 81 9C81 8.44772 80.5523 8 80 8H17Z" fill="#293A50"/>
<path fill-rule="evenodd" clip-rule="evenodd" d="M84.5 8C83.9477 8 83.5 8.44772 83.5 9C83.5 9.55228 83.9477 10 84.5 10H88V81H78.5V79C78.5 78.4477 78.0523 78 77.5 78C76.9477 78 76.5 78.4477 76.5 79V81H28.5V26H76.5V73.5C76.5 74.0523 76.9477 74.5 77.5 74.5C78.0523 74.5 78.5 74.0523 78.5 73.5V26C78.5 24.8954 77.6046 24 76.5 24H28.5C27.3963 24 26.5 24.894 26.5 25.9994V38.5H22.5C21.3954 38.5 20.5 39.3954 20.5 40.5V56.5C20.5 57.6046 21.3954 58.5 22.5 58.5H26.5V81H17V17C17 16.4477 16.5523 16 16 16C15.4477 16 15 16.4477 15 17V81C15 82.1046 15.8954 83 17 83H88C89.1046 83 90 82.1046 90 81V10C90 8.89543 89.1046 8 88 8H84.5ZM22.5 40.5H26.5V56.5H22.5V40.5Z" fill="#293A50"/>
<path fill-rule="evenodd" clip-rule="evenodd" d="M37 13C37 12.4477 37.4477 12 38 12H67C67.5523 12 68 12.4477 68 13V20C68 20.5523 67.5523 21 67 21H38C37.4477 21 37 20.5523 37 20V13ZM39 19V14H66V19H39Z" fill="#293A50"/>
</svg>
