<svg width="90" height="90" viewBox="0 0 90 90" fill="none" xmlns="http://www.w3.org/2000/svg">
<g clip-path="url(#clip0_719_570)">
<path d="M44.1076 30.8038L53.1246 48.5866L62.1076 30.8709L68.5845 47.6564C68.7834 48.1717 69.3622 48.4282 69.8775 48.2294C70.3927 48.0306 70.6493 47.4517 70.4504 46.9364L63.4074 28.6837C63.0021 27.6334 61.5442 27.5597 61.0351 28.5638L53.1246 44.1642L45.204 28.5436C44.702 27.5536 43.2701 27.6076 42.8441 28.6327L30.1448 59.1912H29.2365C27.794 59.1912 26.6246 60.3605 26.6246 61.803C26.6246 63.2455 27.794 64.4149 29.2365 64.4149H44.2271C45.6696 64.4149 46.8389 63.2455 46.8389 61.803C46.8389 60.3605 45.6696 59.1912 44.2271 59.1912H43.6413L46.0514 52.793L48.6275 57.0268C48.9146 57.4986 49.5298 57.6483 50.0016 57.3612C50.4734 57.0742 50.6231 56.459 50.3361 55.9872L45.6265 48.2472L40.7508 61.1912H44.2271C44.565 61.1912 44.8389 61.4651 44.8389 61.803C44.8389 62.1409 44.565 62.4149 44.2271 62.4149H29.2365C28.8986 62.4149 28.6246 62.1409 28.6246 61.803C28.6246 61.4651 28.8986 61.1912 29.2365 61.1912H31.4795L44.1076 30.8038Z" fill="#293A50"/>
<path d="M60.5646 48.0926L53.4862 61.4556L52.5935 60.1013C52.2895 59.6402 51.6693 59.5128 51.2082 59.8168C50.7471 60.1207 50.6197 60.741 50.9236 61.2021L53.6738 65.3741L60.2561 52.9476L62.6079 59.1912H62.0222C60.5797 59.1912 59.4104 60.3605 59.4104 61.803C59.4104 63.2455 60.5797 64.4149 62.0222 64.4149H77.0128C78.4553 64.4149 79.6246 63.2455 79.6246 61.803C79.6246 60.3605 78.4553 59.1912 77.0128 59.1912H75.6314L71.7972 50.5741C71.5727 50.0695 70.9816 49.8425 70.477 50.067C69.9725 50.2915 69.7454 50.8826 69.9699 51.3872L74.3322 61.1912H77.0128C77.3507 61.1912 77.6246 61.4651 77.6246 61.803C77.6246 62.1409 77.3507 62.4149 77.0128 62.4149H62.0222C61.6843 62.4149 61.4104 62.1409 61.4104 61.803C61.4104 61.4651 61.6843 61.1912 62.0222 61.1912H65.4985L60.5646 48.0926Z" fill="#293A50"/>
<path fill-rule="evenodd" clip-rule="evenodd" d="M67.5997 19.2165C57.7531 14.8601 46.4057 14.9179 36.635 19.4569C19.4048 27.4612 10.921 47.1182 16.9159 65.1462L19.6655 73.4149H86.0191L88.3747 66.6261C94.8743 47.8949 85.7177 27.2324 67.5997 19.2165ZM37.4777 21.2707C46.72 16.9772 57.4653 16.9198 66.7905 21.0455C83.9705 28.6463 92.6388 48.2364 86.4852 65.9705L84.5961 71.4149H21.1081L18.8138 64.5151C13.1396 47.4518 21.1694 28.8467 37.4777 21.2707Z" fill="#293A50"/>
<path d="M39.9356 25.0568C47.7252 21.5244 56.7271 21.476 64.5845 24.8696C79.565 31.3395 87.1202 48.3896 81.6602 63.7509L80.358 67.4147H69.0211C68.4688 67.4147 68.0211 67.8625 68.0211 68.4147C68.0211 68.967 68.4688 69.4147 69.0211 69.4147H81.7696L83.5445 64.4208C89.3629 48.0529 81.3116 29.9152 65.3775 23.0336C57.0079 19.4186 47.418 19.4677 39.1094 23.2355C23.9473 30.1113 16.4791 47.3715 21.8472 63.1306L23.9879 69.4147H59.3868C59.939 69.4147 60.3868 68.967 60.3868 68.4147C60.3868 67.8625 59.939 67.4147 59.3868 67.4147H25.4195L23.7403 62.4855C18.7042 47.7009 25.711 31.5075 39.9356 25.0568Z" fill="#CC9C63"/>
</g>
<defs>
<clipPath id="clip0_719_570">
<rect width="90" height="90" fill="white"/>
</clipPath>
</defs>
</svg>
