<svg width="90" height="66" viewBox="0 0 90 66" fill="none" xmlns="http://www.w3.org/2000/svg">
<path fill-rule="evenodd" clip-rule="evenodd" d="M77.9408 26.2872C84.6965 25.7117 89.9999 20.0577 89.9999 13.1677C89.9999 5.8954 84.0915 0 76.8032 0C69.5148 0 63.6064 5.8954 63.6064 13.1677C63.6064 20.1091 68.9893 25.7961 75.8172 26.2993V56.3791H73.6936C71.7668 56.3791 70.2048 57.9376 70.2048 59.8602V63.2657C70.2048 64.2687 71.0197 65.0819 72.025 65.0819H81.8846C82.8899 65.0819 83.7049 64.2687 83.7049 63.2657V59.8602C83.7049 57.9376 82.1429 56.3791 80.2161 56.3791H77.9408V26.2872ZM87.8763 13.1677C87.8763 19.2698 82.9187 24.2165 76.8032 24.2165C70.6877 24.2165 65.7301 19.2698 65.7301 13.1677C65.7301 7.06566 70.6877 2.11895 76.8032 2.11895C82.9187 2.11895 87.8763 7.06566 87.8763 13.1677ZM72.3284 59.8602C72.3284 59.1079 72.9396 58.498 73.6936 58.498H80.2161C80.9701 58.498 81.5813 59.1079 81.5813 59.8602V62.963H72.3284V59.8602Z" fill="#CC9C63"/>
<path fill-rule="evenodd" clip-rule="evenodd" d="M-0.499985 6.55725H51.7566C52.1383 6.55725 52.7081 6.62592 53.2575 6.84263C53.7961 7.05505 54.4935 7.48541 54.7906 8.31876C55.1656 9.37048 55.1591 10.4742 54.4562 11.3191L54.4329 11.3471L51.7023 14.2039L55.4727 18.2367C55.8718 18.6635 55.8498 19.3336 55.4237 19.7333C54.9976 20.133 54.3287 20.1111 53.9297 19.6842L50.2378 15.7354L47.5289 18.5668L47.521 18.5747C47.4168 18.6791 47.2397 18.9328 47.1094 19.2591C46.9753 19.5948 46.9557 19.8439 46.9795 19.9629C47.0103 20.1171 47.1292 20.3712 47.3972 20.759C47.567 21.0047 47.7429 21.2319 47.9348 21.4798C48.0496 21.6281 48.1702 21.7838 48.2987 21.9554C48.5695 22.3172 49.2141 22.9605 49.9939 23.6686C50.7518 24.3568 51.5619 25.0387 52.1036 25.4608C53.407 26.4762 57.1691 28.828 59.7165 29.6786C60.8632 30.0614 62.0199 30.3225 63.0087 30.484L56.7719 23.2847C56.3893 22.843 56.4366 22.1743 56.8775 21.791C57.3184 21.4077 57.986 21.4551 58.3686 21.8968L66.3002 31.0525L69.245 34.5318L69.2472 34.5343C69.7317 35.1022 70.3888 36.4675 70.0879 38.2005C70.0189 38.5979 69.7567 39.4874 69.4129 40.588C69.0571 41.7267 68.5835 43.1841 68.0556 44.7806C66.7573 48.7065 65.1225 53.4972 64.0809 56.5161L64.0671 56.5559L64.0503 56.5946C63.947 56.8311 63.7691 57.1954 63.5552 57.557C63.3571 57.8918 63.0641 58.3362 62.7127 58.6379C62.3737 58.9291 61.9553 59.1316 61.6314 59.2633C61.2937 59.4005 60.9683 59.4965 60.7525 59.5464L60.6352 59.5735H54.0991C51.9794 62.9793 48.2062 65.2457 43.9045 65.2457C39.6347 65.2457 35.8855 63.0128 33.7573 59.6491H-0.499999V57.5315H32.6942C32.181 56.1933 31.8997 54.7399 31.8997 53.2206C31.8997 46.5794 37.2744 41.1956 43.9045 41.1956C50.5345 41.1956 55.9092 46.5794 55.9092 53.2206C55.9092 54.7113 55.6384 56.1386 55.1435 57.4559H60.3827C60.5015 57.4229 60.6658 57.3704 60.8365 57.301C61.0801 57.202 61.2532 57.102 61.3369 57.0301C61.4083 56.9688 61.5558 56.783 61.7365 56.4775C61.8899 56.2181 62.0212 55.9522 62.0974 55.7822C63.0169 53.1167 64.3906 49.0942 65.5866 45.5064H61.2698C60.2975 45.5064 59.255 45.0162 58.4729 44.2679C57.6664 43.4962 57.0417 42.3614 57.0417 40.9687C57.0417 38.2831 59.1593 36.5822 60.8923 36.5822H67.9495C67.8497 36.2212 67.7024 35.983 67.6399 35.9099L67.6381 35.9077L65.0166 32.8104C63.6406 32.7878 61.2852 32.4345 59.048 31.6875C56.1954 30.735 52.2203 28.2345 50.8057 27.1323C50.2148 26.672 49.3639 25.9548 48.574 25.2375C47.8061 24.5402 47.0161 23.7718 46.6074 23.226C46.522 23.1119 46.4225 22.983 46.3169 22.8463C46.1 22.5654 45.8574 22.2514 45.6591 21.9644C45.3609 21.5329 45.0267 20.9803 44.9065 20.3782C44.7692 19.6902 44.9383 18.994 45.1466 18.4726C45.3567 17.9464 45.6718 17.4356 46.0172 17.0863L49.4831 13.4636L52.8462 9.94509C52.905 9.86173 53.0104 9.622 52.7997 9.03099C52.7948 9.0173 52.7498 8.91824 52.483 8.81302C52.2271 8.71208 51.9287 8.67488 51.7566 8.67488H-0.499985V6.55725ZM43.9045 63.1281C40.2919 63.1281 37.1317 61.188 35.4055 58.2913C35.3596 58.1347 35.2785 57.9932 35.1714 57.8759C34.4325 56.488 34.0138 54.9033 34.0138 53.2206C34.0138 47.7489 38.442 43.3132 43.9045 43.3132C49.367 43.3132 53.7952 47.7489 53.7952 53.2206C53.7952 58.6924 49.367 63.1281 43.9045 63.1281ZM67.777 38.6998H60.8923C60.3602 38.6998 59.1558 39.419 59.1558 40.9687C59.1558 41.6935 59.4749 42.2982 59.9331 42.7366C60.4156 43.1983 60.9586 43.3888 61.2698 43.3888H66.2882C66.7173 42.0843 67.0988 40.9046 67.3953 39.9555C67.5517 39.4549 67.6793 39.0344 67.777 38.6998Z" fill="#293A50"/>
<path d="M-0.5 16.2378L26.237 16.2378C26.237 16.2378 26.2371 16.2378 26.2371 17.1339L26.237 16.2378C28.1137 16.2378 30.1261 17.0042 31.7917 17.8693C33.4775 18.7449 34.9436 19.7935 35.7631 20.5049C36.9852 21.5658 39.0044 23.9859 39.9359 25.3078C40.9623 26.7642 41.5976 28.6168 41.3277 30.5992C41.1918 31.5981 40.4483 32.2846 39.7465 32.6823C39.0169 33.0958 38.118 33.3301 37.2603 33.3301H-0.499999C-0.499999 33.3301 -0.499999 31.7972 -0.499999 31.2125H37.2603C37.7617 31.2125 38.3008 31.0686 38.7054 30.8393C39.1379 30.5942 39.2249 30.3731 39.2331 30.3131C39.4162 28.9679 38.9945 27.644 38.2088 26.529C37.3283 25.2795 35.4215 23.0106 34.3785 22.1052C33.6879 21.5056 32.3605 20.5501 30.8186 19.7492C29.2565 18.9379 27.6069 18.3555 26.2371 18.3555L26.2371 17.2966C26.2371 18.3555 26.2371 18.3555 26.2371 18.3555L-0.499999 18.3555C-0.499999 18.3555 -0.5 16.8226 -0.5 16.2378Z" fill="#293A50"/>
<path d="M24.9536 37.4141C24.3698 37.4141 23.8966 37.8881 23.8966 38.4729C23.8966 39.0577 24.3698 39.5317 24.9536 39.5317H28.7287C29.3124 39.5317 29.7857 39.0577 29.7857 38.4729C29.7857 37.8881 29.3124 37.4141 28.7287 37.4141H24.9536Z" fill="#293A50"/>
<path fill-rule="evenodd" clip-rule="evenodd" d="M74.2634 6.39343C73.6292 6.39343 73.115 6.91033 73.115 7.54795V18.9475C73.115 19.5288 73.5837 20 74.1619 20C74.7401 20 75.2087 19.5288 75.2087 18.9475V14.5874H77.5642C79.815 14.5874 81.6396 12.7531 81.6396 10.4904C81.6396 8.22772 79.815 6.39343 77.5642 6.39343H74.2634ZM77.5642 12.4826H75.2087V8.49831H77.5642C78.6586 8.49831 79.5458 9.39022 79.5458 10.4904C79.5458 11.5906 78.6586 12.4826 77.5642 12.4826Z" fill="#CC9C63"/>
<path d="M39.7737 52.164C39.2731 52.0299 38.7494 52.3279 38.7065 52.8444C38.6329 53.73 38.7851 54.6252 39.1561 55.4439C39.657 56.5494 40.5257 57.447 41.6142 57.9838C42.7027 58.5205 43.9436 58.6633 45.1256 58.3877C46.3076 58.1121 47.3574 57.4352 48.0962 56.4723C48.8351 55.5095 49.2172 54.3202 49.1775 53.1072C49.1378 51.8942 48.6787 50.7325 47.8785 49.82C47.0782 48.9075 45.9864 48.3007 44.7889 48.103C43.9021 47.9566 42.998 48.0413 42.1617 48.3415C41.6739 48.5167 41.5215 49.0996 41.7807 49.5485V49.5485C42.0398 49.9973 42.6142 50.1362 43.117 50.0104C43.5607 49.8995 44.0255 49.8792 44.4832 49.9548C45.2522 50.0818 45.9535 50.4715 46.4674 51.0575C46.9813 51.6435 47.2761 52.3896 47.3016 53.1686C47.3272 53.9477 47.0817 54.7114 46.6072 55.3298C46.1327 55.9482 45.4585 56.3829 44.6994 56.5599C43.9403 56.7369 43.1434 56.6452 42.4443 56.3005C41.7452 55.9557 41.1873 55.3793 40.8656 54.6693C40.6742 54.2468 40.5735 53.7925 40.5658 53.3353C40.5571 52.8171 40.2743 52.2981 39.7737 52.164V52.164Z" fill="#CC9C63"/>
</svg>
