<svg width="90" height="90" viewBox="0 0 90 90" fill="none" xmlns="http://www.w3.org/2000/svg">
<path fill-rule="evenodd" clip-rule="evenodd" d="M60.9623 44.5C60.9623 50.8304 55.8304 55.9623 49.5 55.9623C43.1696 55.9623 38.0377 50.8304 38.0377 44.5C38.0377 38.1696 43.1696 33.0377 49.5 33.0377C55.8304 33.0377 60.9623 38.1696 60.9623 44.5ZM59.2642 44.5C59.2642 49.8926 54.8926 54.2642 49.5 54.2642C44.1074 54.2642 39.7358 49.8926 39.7358 44.5C39.7358 39.1074 44.1074 34.7358 49.5 34.7358C54.8926 34.7358 59.2642 39.1074 59.2642 44.5Z" fill="#293A50"/>
<path fill-rule="evenodd" clip-rule="evenodd" d="M72 44.5C72 56.9264 61.9264 67 49.5 67C37.0736 67 27 56.9264 27 44.5C27 32.0736 37.0736 22 49.5 22C61.9264 22 72 32.0736 72 44.5ZM70.3019 44.5C70.3019 55.9886 60.9886 65.3019 49.5 65.3019C38.0114 65.3019 28.6981 55.9886 28.6981 44.5C28.6981 33.0114 38.0114 23.6981 49.5 23.6981C60.9886 23.6981 70.3019 33.0114 70.3019 44.5Z" fill="#293A50"/>
<path d="M42.265 31.6556C42.0033 31.191 42.1667 30.5992 42.6466 30.3665C45.8377 28.8189 49.4691 28.3929 52.9477 29.1755C56.7412 30.029 60.0833 32.2591 62.3274 35.4345C64.5716 38.6098 65.5582 42.5047 65.0964 46.3655C64.6346 50.2263 62.7572 53.7786 59.8275 56.3351C56.8978 58.8917 53.124 60.2707 49.2362 60.2054C45.3484 60.14 41.623 58.6351 38.7808 55.9816C35.9386 53.3281 34.1816 49.7147 33.8498 45.8406C33.5455 42.2881 34.4594 38.7479 36.4248 35.7957C36.7203 35.3517 37.3288 35.27 37.7538 35.5922C38.1787 35.9145 38.2588 36.5185 37.9671 36.9649C36.2884 39.5341 35.5105 42.5997 35.774 45.6758C36.0651 49.0736 37.606 52.2427 40.0988 54.5699C42.5915 56.8971 45.8589 58.2171 49.2686 58.2744C52.6784 58.3316 55.9882 57.1222 58.5577 54.88C61.1272 52.6378 62.7738 49.5223 63.1788 46.1361C63.5838 42.75 62.7185 39.334 60.7503 36.5491C58.7821 33.7641 55.8509 31.8082 52.5238 31.0597C49.5117 30.382 46.369 30.7376 43.5962 32.0529C43.1144 32.2815 42.5267 32.1203 42.265 31.6556Z" fill="#CC9C63"/>
<path fill-rule="evenodd" clip-rule="evenodd" d="M85 19.0065C85 18.3602 84.3988 17.8818 83.769 18.0271L82.6343 18.289C79.0436 19.1176 76.5 22.315 76.5 26.0001V46.1927L78.4949 51.18L78.067 67.4418C78.0157 69.3917 79.5823 71.0001 81.5329 71.0001C83.4477 71.0001 85 69.4478 85 67.533V19.0065ZM78.5 26.0001C78.5 23.2752 80.3612 20.9071 83 20.2578V67.533C83 68.3433 82.3432 69.0001 81.5329 69.0001C80.7075 69.0001 80.0446 68.3195 80.0663 67.4944L80.5051 50.8202L78.5 45.8075V26.0001Z" fill="#CC9C63"/>
<path fill-rule="evenodd" clip-rule="evenodd" d="M15 19C15 18.4477 14.5523 18 14 18C13.4477 18 13 18.4477 13 19V33.2166L15.5 38.7166V68C15.5 69.6569 16.8431 71 18.5 71C20.1569 71 21.5 69.6569 21.5 68V38.7166L24 33.2166V19C24 18.4477 23.5523 18 23 18C22.4477 18 22 18.4477 22 19V26.5H19.5V19C19.5 18.4477 19.0523 18 18.5 18C17.9477 18 17.5 18.4477 17.5 19V26.5H15V19ZM22 28.5V32.7834L19.5 38.2834V68C19.5 68.5523 19.0523 69 18.5 69C17.9477 69 17.5 68.5523 17.5 68V38.2834L15 32.7834V28.5H22Z" fill="#CC9C63"/>
</svg>
