<svg width="90" height="90" viewBox="0 0 90 90" fill="none" xmlns="http://www.w3.org/2000/svg">
<path fill-rule="evenodd" clip-rule="evenodd" d="M32.4182 7C31.3137 7 30.4182 7.89551 30.4182 9V21.5H23.9523C23.8127 21.5 23.676 21.5269 23.549 21.5781C23.4147 21.6321 23.2912 21.7129 23.1867 21.8171L13.966 31.0381C12.6076 32.3965 12.6931 34.624 14.1516 35.8743C15.4601 36.9958 17.4113 36.9209 18.6301 35.7024L25.8322 28.5H30.4182V53H32.4182V28.5H34.4182V53H36.4182V28.5H47.9182V41.5857L46.9182 42.5857C46.2639 43.2402 46.1574 44.2351 46.5998 45H44.1862C43.2805 45 42.4875 45.6091 42.2541 46.4846L40.7873 51.9846C40.4489 53.2544 41.4055 54.5 42.7199 54.5H55.1164C56.4308 54.5 57.3874 53.2544 57.049 51.9846L55.5822 46.4846C55.3488 45.6091 54.5558 45 53.6501 45H51.2365C51.6789 44.2351 51.5724 43.2402 50.9182 42.5857L49.9182 41.5857V28.5H51.9182C52.4704 28.5 52.9182 28.0522 52.9182 27.5C52.9182 26.9478 52.4704 26.5 51.9182 26.5H25.4509C25.1647 26.5 24.8903 26.6138 24.6877 26.8162L17.216 34.2881C16.736 34.7678 15.968 34.7971 15.4533 34.3557C14.8791 33.8638 14.8454 32.9871 15.3801 32.4524L24.3322 23.5H73.5041L82.4562 32.4524C82.9914 32.9871 82.9572 33.8638 82.383 34.3557C81.8683 34.7971 81.0998 34.7678 80.6203 34.2881L73.1486 26.8162C72.9465 26.6138 72.6711 26.5 72.3849 26.5H57.4182C56.8659 26.5 56.4182 26.9478 56.4182 27.5C56.4182 28.0522 56.8659 28.5 57.4182 28.5H61.4182V53H63.4182V28.5H65.4182V53H67.4182V28.5H72.0041L79.2062 35.7024C80.425 36.9209 82.3762 36.9958 83.6848 35.8743C85.1437 34.624 85.2287 32.3965 83.8703 31.0381L74.6496 21.8171C74.4465 21.614 74.1711 21.5 73.884 21.5H67.4182V9C67.4182 7.89551 66.5226 7 65.4182 7H32.4182ZM65.4182 12V9.99976C65.4182 9.44751 64.9699 9 64.4182 9H33.4182C33.2736 9 33.1359 9.03076 33.0119 9.08618C32.6623 9.24194 32.4182 9.59253 32.4182 10V12H65.4182ZM32.4182 14V15.5H65.4182V14H32.4182ZM65.4182 17.5H63.4182V21.5H65.4182V17.5ZM61.4182 17.5H49.9182V21.5H61.4182V17.5ZM47.9182 17.5H36.4182V21.5H47.9182V17.5ZM34.4182 17.5H32.4182V21.5H34.4182V17.5ZM48.3322 44L48.9182 43.4143L49.5041 44L48.9182 44.5857L48.3322 44ZM53.6501 47L55.1164 52.5H42.7199L44.1862 47H53.6501Z" fill="#293A50"/>
<path d="M42.4182 62H40.4182V72H42.4182V62Z" fill="#293A50"/>
<path d="M57.4182 72V62H55.4182V72H57.4182Z" fill="#293A50"/>
<path d="M61.4182 62H63.4182V72H61.4182V62Z" fill="#293A50"/>
<path d="M36.4182 62H34.4182V72H36.4182V62Z" fill="#293A50"/>
<path d="M30.4182 62H32.4182V72H30.4182V62Z" fill="#293A50"/>
<path d="M67.4182 62H65.4182V72H67.4182V62Z" fill="#293A50"/>
<path fill-rule="evenodd" clip-rule="evenodd" d="M29.418 52.5C28.3135 52.5 27.418 53.3953 27.418 54.5V58.0002L27.4185 58.0535C26.2041 58.3191 25.418 59.5288 25.418 60.6431C25.418 62.1521 26.6748 63 27.918 63H69.918C71.2988 63 72.418 61.8806 72.418 60.5C72.418 59.2903 71.5586 58.2812 70.417 58.0498L70.418 58V54.5C70.418 53.3955 69.5225 52.5 68.418 52.5H29.418ZM68.418 58H29.418V54.5H68.418V58ZM69.918 60C70.1943 60 70.418 60.2239 70.418 60.5C70.418 60.7761 70.1943 61 69.918 61H27.918C27.7119 61 27.5791 60.9346 27.5127 60.8772C27.4595 60.8306 27.418 60.7664 27.418 60.6431C27.418 60.5659 27.4351 60.4814 27.4683 60.3989C27.4844 60.3582 27.5044 60.3179 27.5283 60.2791C27.5513 60.2419 27.5776 60.2063 27.6069 60.1731C27.7271 60.0369 27.8442 60 27.918 60H69.918Z" fill="#CC9C63"/>
<path fill-rule="evenodd" clip-rule="evenodd" d="M28.418 71C26.209 71 24.418 72.7903 24.418 74.9998V80.002C24.418 81.1091 25.3159 82 26.418 82H71.418C72.5225 82 73.418 81.1045 73.418 80V75C73.418 72.7908 71.627 71 69.418 71H28.418ZM26.418 74.9998C26.418 73.8953 27.3135 73 28.418 73H69.418C70.5225 73 71.418 73.8955 71.418 75V80H26.418V77.0002L63.418 77C63.9707 77 64.418 76.5522 64.418 76C64.418 75.6289 64.2158 75.3049 63.916 75.1323C63.7695 75.0481 63.5996 75 63.418 75L26.418 74.9998Z" fill="#CC9C63"/>
</svg>
