<svg width="90" height="90" viewBox="0 0 90 90" fill="none" xmlns="http://www.w3.org/2000/svg">
<g clip-path="url(#clip0_601_717)">
<path fill-rule="evenodd" clip-rule="evenodd" d="M36.5 23.5C35.3955 23.5 34.5 24.3954 34.5 25.5V29.5C34.5 30.6046 35.3955 31.5 36.5 31.5H52.9063C53.7548 31.5 54.2521 30.5449 53.7655 29.8497C51.4083 26.4823 47.7616 24.2415 43.6923 23.6602L42.6455 23.5106C42.596 23.5036 42.546 23.5 42.496 23.5H36.5ZM36.5 25.5H42.429L43.4095 25.6401C46.2878 26.0513 48.9218 27.4218 50.9019 29.5H36.5V25.5Z" fill="#293A50"/>
<path fill-rule="evenodd" clip-rule="evenodd" d="M21.6685 37C18.1543 37 15.6021 40.3415 16.5267 43.7318C16.6504 44.1854 17.0624 44.5 17.5325 44.5H17.8406L18.2706 45.5031C18.9042 46.9817 20.1926 48.0789 21.7532 48.4691C21.8354 48.4896 21.9198 48.5 22.0045 48.5H35.5401L49.1444 64.3717L38.0139 77.2912C36.6824 78.8366 37.0416 81.2052 38.7715 82.2864C40.1674 83.1589 41.9915 82.8799 43.0629 81.63L53.5 69.4533L63.9893 81.6908C65.0392 82.9156 66.8782 83.0699 68.1175 82.0372C69.3836 80.9821 69.5396 79.0942 68.4639 77.8456L57.4025 65.0065L68.2512 52.6601C68.6158 52.2452 68.575 51.6134 68.1601 51.2488C67.7452 50.8843 67.1134 50.925 66.7488 51.3399L56.0844 63.4766L54.32 61.4286L65.4584 48.5H83.9937C84.1251 48.5 84.2553 48.4749 84.3774 48.4261C86.1559 47.7147 87.5476 46.2871 88.2161 44.5H88.9778C89.3835 44.5 89.7517 44.2629 89.9196 43.8935C91.387 40.6652 89.027 37 85.4808 37H78.5C77.9478 37 77.5 37.4477 77.5 38C77.5 38.5523 77.9478 39 78.5 39H85.4808C87.3671 39 88.6844 40.7582 88.29 42.5H18.3418C18.2422 40.6473 19.7183 39 21.6685 39H72.5C73.0523 39 73.5 38.5523 73.5 38C73.5 37.4477 73.0523 37 72.5 37H21.6685ZM20.1088 44.7153L20.0166 44.5H86.014C85.5106 45.3797 84.737 46.0836 83.7986 46.5H22.1312C21.2253 46.2394 20.4817 45.5853 20.1088 44.7153ZM50.4649 62.8391L38.1743 48.5H40.5416L51.6801 61.4286L50.4649 62.8391ZM53 59.8965L43.1815 48.5H62.8186L53 59.8965ZM51.7815 64.3751L53 62.9606L66.9487 79.151C67.2951 79.5531 67.2448 80.161 66.8371 80.5007C66.4381 80.8333 65.8459 80.7836 65.5078 80.3892L51.7815 64.3751ZM39.5291 78.5966L50.461 65.9077L52.183 67.9167L41.5443 80.3284C41.1167 80.8273 40.3887 80.9386 39.8315 80.5904C39.141 80.1589 38.9976 79.2134 39.5291 78.5966Z" fill="#293A50"/>
<path fill-rule="evenodd" clip-rule="evenodd" d="M16 10C18.209 10 20 11.7908 20 14V22.5C20 25.196 21.9399 27.439 24.5 27.9094V28C24.5 29.1045 25.3955 30 26.5 30H28.5V33C27.3955 33 26.5 33.8955 26.5 35V37C26.5 38.1045 27.3955 39 28.5 39H63.9795C64.543 39 65 38.543 65 37.9795C65 35.3462 62.9556 33.1902 60.3677 33.012C59.1123 24.9575 52.1729 19 44 19H33.5C30.9072 19 28.7754 20.9734 28.5249 23.5H26.5C25.3955 23.5 24.5 24.3955 24.5 25.5V25.855C23.0542 25.4248 22 24.0854 22 22.5V14C22 10.6863 19.3135 8 16 8V10ZM28.5 25.5V28H26.5V25.5H28.5ZM58.3379 33H30.5V24C30.5 22.3433 31.8433 21 33.5 21H44C51.0771 21 57.103 26.0811 58.3379 33ZM28.5 35H60.0205C61.3228 35 62.4302 35.8357 62.8354 37H28.5V35Z" fill="#CC9C63"/>
</g>
<defs>
<clipPath id="clip0_601_717">
<rect width="90" height="90" fill="white"/>
</clipPath>
</defs>
</svg>
