<svg width="90" height="90" viewBox="0 0 90 90" fill="none" xmlns="http://www.w3.org/2000/svg">
<path d="M21.2031 60.9711C12.9852 45.7274 17.3159 26.7315 31.3212 16.5896C44.7592 6.85837 63.1378 8.1624 75.0735 19.5181L68.3278 19.4402C67.7591 19.4337 67.2928 19.891 67.2863 20.4616C67.2797 21.0323 67.7354 21.5002 68.3041 21.5068L77.5714 21.6137C78.1401 21.6203 78.6064 21.163 78.6129 20.5923L78.7195 11.2928C78.726 10.7221 78.2703 10.2542 77.7017 10.2476C77.133 10.2411 76.6667 10.6984 76.6601 11.269L76.5818 18.1054C63.9335 5.98835 44.3938 4.57439 30.116 14.9137C15.2715 25.6633 10.6814 45.7974 19.3917 61.9545L21.5849 66.0227C21.8555 66.5247 22.4803 66.7115 22.9806 66.4399C23.4808 66.1684 23.6669 65.5413 23.3963 65.0393L21.2031 60.9711Z" fill="#CC9C63"/>
<path d="M82.7969 29.0289C91.0148 44.2726 86.6841 63.2685 72.6788 73.4104C59.2408 83.1416 40.8622 81.8376 28.9265 70.4819L35.6722 70.5598C36.2409 70.5663 36.7072 70.109 36.7137 69.5384C36.7203 68.9677 36.2646 68.4998 35.6959 68.4932L26.4286 68.3863C25.8599 68.3797 25.3936 68.837 25.3871 69.4077L25.2805 78.7072C25.274 79.2779 25.7297 79.7458 26.2984 79.7523C26.867 79.7589 27.3334 79.3016 27.3399 78.731L27.4182 71.8946C40.0665 84.0117 59.6062 85.4256 73.884 75.0863C88.7285 64.3367 93.3186 44.2026 84.6083 28.0455L82.4151 23.9773C82.1445 23.4753 81.5197 23.2885 81.0194 23.5601C80.5192 23.8316 80.3331 24.4587 80.6037 24.9607L82.7969 29.0289Z" fill="#CC9C63"/>
<path fill-rule="evenodd" clip-rule="evenodd" d="M76.3309 44.9236C76.9553 44.9236 77.4641 44.4171 77.4363 43.7933C77.1669 37.7462 74.7426 31.9797 70.5814 27.5496C66.1617 22.8441 60.1148 20 53.6719 19.5961C47.2289 19.1923 40.8742 21.2591 35.9014 25.3758C30.9287 29.4925 27.7119 35.3496 26.9057 41.7547C26.0996 48.1598 27.7648 54.6314 31.5624 59.8519C35.36 65.0724 41.0043 68.6494 47.3465 69.8546C53.6886 71.0598 60.2516 69.8027 65.6995 66.3392C70.8286 63.0783 74.6062 58.0924 76.3656 52.3006C76.5471 51.7032 76.1797 51.0864 75.5747 50.9317C74.9698 50.7769 74.3567 51.143 74.1726 51.7396C73.7765 53.0236 73.2713 54.2637 72.6658 55.4477L70.4984 54.1963C70.0316 53.9268 69.4346 54.0868 69.1651 54.5536C68.8956 55.0204 69.0555 55.6174 69.5224 55.8869L71.7044 57.1467C69.8895 60.0597 67.4328 62.5578 64.4864 64.431C64.4267 64.469 64.367 64.5066 64.307 64.5439L63.0474 62.3621C62.7779 61.8953 62.1809 61.7353 61.7141 62.0049C61.2472 62.2744 61.0873 62.8713 61.3568 63.3382L62.608 65.5053C59.6332 67.0265 56.3743 67.879 53.0601 68.0191V65.4205C53.0601 64.8815 52.6231 64.4445 52.084 64.4445C51.545 64.4445 51.108 64.8815 51.108 65.4205V68.0191C49.9932 67.972 48.8772 67.8439 47.7686 67.6332C45.6556 67.2317 43.6277 66.5411 41.736 65.594L43.0384 63.3382C43.3079 62.8713 43.148 62.2744 42.6811 62.0049C42.2143 61.7353 41.6173 61.8953 41.3478 62.3621L40.0286 64.647C37.4574 63.0753 35.1953 61.0022 33.3909 58.5217C33.0964 58.1169 32.816 57.7038 32.5498 57.2831L34.9681 55.8869C35.435 55.6174 35.5949 55.0204 35.3254 54.5536C35.0559 54.0868 34.4589 53.9268 33.9921 54.1963L31.5766 55.5909C30.0146 52.5879 29.1316 49.2785 28.9888 45.8998H31.5872C32.1263 45.8998 32.5633 45.4628 32.5633 44.9238C32.5633 44.3847 32.1263 43.9477 31.5872 43.9477H28.9888C29.0157 43.3111 29.069 42.6737 29.1492 42.0371C29.4859 39.3619 30.2842 36.7917 31.4867 34.4311L33.9923 35.8777C34.4591 36.1472 35.0561 35.9873 35.3256 35.5204C35.5951 35.0536 35.4352 34.4567 34.9683 34.1871L32.4455 32.7306C33.7527 30.6251 35.401 28.7256 37.3434 27.1175C37.935 26.6277 38.5482 26.1698 39.1802 25.7445L40.3716 27.8081C40.6411 28.2749 41.238 28.4349 41.7049 28.1653C42.1717 27.8958 42.3317 27.2989 42.0621 26.832L40.8449 24.7238C43.986 22.9761 47.5003 21.9805 51.108 21.8281V24.4268C51.108 24.9658 51.545 25.4028 52.084 25.4028C52.6231 25.4028 53.0601 24.9658 53.0601 24.4268V21.8282C53.2168 21.8348 53.3736 21.843 53.5304 21.8528C56.7782 22.0564 59.9154 22.9407 62.7522 24.4163L61.3575 26.832C61.0879 27.2989 61.2479 27.8958 61.7147 28.1653C62.1816 28.4349 62.7785 28.2749 63.048 27.8081L64.4444 25.3895C66.0782 26.4233 67.5885 27.6658 68.9333 29.0976C69.7173 29.9322 70.4335 30.8189 71.0787 31.7491L68.5461 33.2113C68.0793 33.4808 67.9193 34.0778 68.1889 34.5446C68.4584 35.0115 69.0553 35.1714 69.5222 34.9019L72.058 33.4378C72.08 33.4251 72.1013 33.4117 72.1219 33.3976C73.938 36.5551 74.9928 40.1159 75.1727 43.7934C75.2032 44.4171 75.7065 44.9236 76.3309 44.9236ZM46.7955 46.2689L42.0906 50.8128H49.9834V52.7318H38.9247V51.2319L45.1906 45.1661C46.8175 43.5779 47.1253 42.6074 47.1253 41.6369C47.1253 40.0487 46.004 39.0782 43.8494 39.0782C42.2005 39.0782 40.8594 39.6076 39.914 40.7546L38.419 39.4532C39.6062 37.9753 41.6509 37.1151 44.0473 37.1151C47.2572 37.1151 49.3238 38.7694 49.3238 41.4163C49.3238 42.9162 48.8841 44.2617 46.7955 46.2689ZM61.8482 47.041H64.7723V48.9379H61.8482V52.7318H59.7156V48.9379H51.1632V47.3939L59.034 37.2915H61.4085L53.8675 47.041H59.7816V43.6882H61.8482V47.041Z" fill="#293A50"/>
</svg>
