<svg width="25" height="25" viewBox="0 0 25 25" fill="none" xmlns="http://www.w3.org/2000/svg">
<path d="M8.12279 14.4906C8.21083 14.5802 8.3194 14.625 8.44851 14.625C8.57763 14.625 8.6862 14.5802 8.77423 14.4906C8.86227 14.4009 8.90628 14.2904 8.90628 14.1589V8.48544H10.799C10.9222 8.48544 11.022 8.4466 11.0983 8.36892C11.1805 8.28526 11.2215 8.1807 11.2215 8.05522C11.2215 7.92974 11.1805 7.82816 11.0983 7.75048C11.022 7.66683 10.9222 7.625 10.799 7.625H6.08924C5.966 7.625 5.86329 7.66683 5.78113 7.75048C5.70483 7.82816 5.66669 7.92974 5.66669 8.05522C5.66669 8.1807 5.70483 8.28526 5.78113 8.36892C5.86329 8.4466 5.966 8.48544 6.08924 8.48544H7.99075V14.1589C7.99075 14.2904 8.03476 14.4009 8.12279 14.4906Z" fill="#CC9C63"/>
<path d="M15.1806 14.3292C15.2686 14.5264 15.4066 14.625 15.5944 14.625C15.6941 14.625 15.7763 14.6011 15.8408 14.5533C15.9113 14.4995 15.967 14.4248 16.0081 14.3292L18.6139 8.24344C18.6843 8.08808 18.6843 7.94766 18.6139 7.82218C18.5493 7.69073 18.429 7.625 18.2529 7.625C18.1473 7.625 18.0622 7.64591 17.9976 7.68774C17.939 7.72359 17.8861 7.79529 17.8392 7.90285L15.5816 13.3157L13.3671 7.90285C13.2908 7.71762 13.15 7.625 12.9446 7.625C12.7626 7.625 12.6394 7.69073 12.5748 7.82218C12.5103 7.95364 12.5191 8.12094 12.6012 8.3241L15.1806 14.3292Z" fill="#CC9C63"/>
<path fill-rule="evenodd" clip-rule="evenodd" d="M1.40273 3.40273C1.66059 3.14487 2.01033 3 2.375 3H21.9583C22.323 3 22.6727 3.14486 22.9306 3.40273C23.1885 3.66059 23.3333 4.01033 23.3333 4.375V17.7083C23.3333 18.073 23.1885 18.4227 22.9306 18.6806C22.6727 18.9385 22.323 19.0833 21.9583 19.0833H2.375C2.01033 19.0833 1.66059 18.9385 1.40273 18.6806C1.14486 18.4227 1 18.073 1 17.7083V4.375C1 4.01033 1.14487 3.66059 1.40273 3.40273ZM2.5 4.5V17.5833H21.8333V4.5H2.5Z" fill="#CC9C63"/>
<path d="M6.20831 22.5C6.20831 22.0858 6.5441 21.75 6.95831 21.75H17.375C17.7892 21.75 18.125 22.0858 18.125 22.5C18.125 22.9142 17.7892 23.25 17.375 23.25H6.95831C6.5441 23.25 6.20831 22.9142 6.20831 22.5Z" fill="#CC9C63"/>
</svg>
