<svg width="25" height="25" viewBox="0 0 25 25" fill="none" xmlns="http://www.w3.org/2000/svg">
<path d="M5.93798 12.3842C6.12253 12.3842 6.29342 12.4163 6.45063 12.4804C6.60784 12.5445 6.74454 12.631 6.86074 12.74C6.97694 12.849 7.07264 12.9804 7.14783 13.1342C7.22301 13.288 7.25719 13.4483 7.25036 13.615C7.25036 13.788 7.21618 13.9483 7.14783 14.0957C7.07947 14.2431 6.9872 14.3713 6.871 14.4803C6.7548 14.5893 6.61467 14.679 6.45063 14.7495C6.28658 14.82 6.1157 14.8521 5.93798 14.8457C5.75343 14.8457 5.58255 14.8136 5.42533 14.7495C5.26812 14.6854 5.13142 14.5989 5.01522 14.4899C4.89902 14.3809 4.80332 14.2495 4.72813 14.0957C4.65295 13.9419 4.61877 13.7816 4.62561 13.615C4.62561 13.4419 4.65978 13.2816 4.72813 13.1342C4.79649 12.9868 4.88876 12.8586 5.00496 12.7496C5.12116 12.6406 5.26129 12.5509 5.42533 12.4804C5.58938 12.4099 5.76026 12.3778 5.93798 12.3842ZM19.0617 12.3842C19.2463 12.3842 19.4172 12.4163 19.5744 12.4804C19.7316 12.5445 19.8683 12.631 19.9845 12.74C20.1007 12.849 20.1964 12.9804 20.2716 13.1342C20.3468 13.288 20.3809 13.4483 20.3741 13.615C20.3741 13.788 20.3399 13.9483 20.2716 14.0957C20.2032 14.2431 20.111 14.3713 19.9948 14.4803C19.8786 14.5893 19.7384 14.679 19.5744 14.7495C19.4103 14.82 19.2395 14.8521 19.0617 14.8457C18.8772 14.8457 18.7063 14.8136 18.5491 14.7495C18.3919 14.6854 18.2552 14.5989 18.139 14.4899C18.0228 14.3809 17.9271 14.2495 17.8519 14.0957C17.7767 13.9419 17.7425 13.7816 17.7494 13.615C17.7494 13.4419 17.7835 13.2816 17.8519 13.1342C17.9202 12.9868 18.0125 12.8586 18.1287 12.7496C18.2449 12.6406 18.385 12.5509 18.5491 12.4804C18.7131 12.4099 18.884 12.3778 19.0617 12.3842ZM22.6195 9.92283L21.9428 10.5478C21.9565 10.5798 21.9907 10.676 22.0453 10.8362C22.1 10.9965 22.165 11.1856 22.2401 11.4035C22.3153 11.6215 22.4008 11.8554 22.4965 12.1054C22.5922 12.3554 22.6742 12.583 22.7425 12.7881C22.8109 12.9932 22.8724 13.1663 22.9271 13.3073C22.9818 13.4483 23.0057 13.5188 22.9989 13.5188V19.7685C22.9989 19.9416 22.9647 20.1018 22.8963 20.2492C22.828 20.3967 22.7357 20.5249 22.6195 20.6338C22.5033 20.7428 22.3632 20.8325 22.1991 20.903C22.0351 20.9736 21.8642 21.0056 21.6865 20.9992H20.3741C20.1896 20.9992 20.0187 20.9671 19.8615 20.903C19.7043 20.8389 19.5675 20.7524 19.4513 20.6434C19.3351 20.5345 19.2395 20.4031 19.1643 20.2492C19.0891 20.0954 19.0549 19.9351 19.0617 19.7685H5.93798C5.93798 19.9416 5.9038 20.1018 5.83545 20.2492C5.7671 20.3967 5.67482 20.5249 5.55862 20.6338C5.44242 20.7428 5.3023 20.8325 5.13825 20.903C4.97421 20.9736 4.80332 21.0056 4.62561 20.9992H3.31323C3.12868 20.9992 2.95779 20.9671 2.80058 20.903C2.64337 20.8389 2.50667 20.7524 2.39047 20.6434C2.27427 20.5345 2.17857 20.4031 2.10338 20.2492C2.0282 20.0954 1.99402 19.9351 2.00085 19.7685V13.5188L2.07262 13.3169L2.25718 12.7977L2.50325 12.1054C2.59211 11.8554 2.67413 11.6215 2.74932 11.4035C2.82451 11.1856 2.89286 10.9965 2.95438 10.8362C3.01589 10.676 3.05007 10.5798 3.05691 10.5478L2.38021 9.92283H2.00085V8.69212H2.93387L3.51829 9.24979L4.27701 7.10566C4.38637 6.79158 4.54358 6.50633 4.74864 6.24994C4.9537 5.99354 5.19635 5.7724 5.4766 5.58651C5.75685 5.40062 6.05418 5.2564 6.3686 5.15384C6.68303 5.05128 7.02479 5 7.3939 5H17.6058C17.9613 5 18.2996 5.05128 18.6209 5.15384C18.9421 5.2564 19.2429 5.39742 19.5231 5.57689C19.8034 5.75637 20.0426 5.97752 20.2408 6.24032C20.439 6.50313 20.5997 6.79158 20.7227 7.10566L21.4814 9.24979L22.0658 8.69212H22.9989V9.92283H22.6195ZM7.3939 6.23071C6.96327 6.23071 6.5805 6.34609 6.24557 6.57684C5.91064 6.8076 5.6714 7.11207 5.52786 7.49026L4.65636 9.92283H20.3434L19.4719 7.49026C19.3351 7.11207 19.0993 6.8076 18.7644 6.57684C18.4295 6.34609 18.0433 6.23071 17.6058 6.23071H7.3939ZM16.437 18.0667L15.3707 16.0764H9.62904L8.56273 18.0667V18.5378H16.437V18.0667ZM21.6865 18.5378V13.7111L21.625 13.538C21.584 13.4227 21.5327 13.272 21.4712 13.0861C21.4097 12.9002 21.3379 12.7047 21.2559 12.4996C21.1738 12.2945 21.1021 12.0926 21.0406 11.8939C20.979 11.6952 20.9209 11.5317 20.8663 11.4035C20.8116 11.2753 20.7808 11.192 20.774 11.1535H4.22574C4.21207 11.1856 4.18131 11.2689 4.13346 11.4035C4.08562 11.5381 4.02752 11.6984 3.95916 11.8843C3.89081 12.0702 3.81904 12.2721 3.74385 12.49C3.66866 12.7079 3.60031 12.9067 3.53879 13.0861C3.47728 13.2656 3.42259 13.413 3.37475 13.5284C3.3269 13.6438 3.30639 13.7047 3.31323 13.7111V18.5378H7.25036V17.7782L8.8088 14.8457H16.1909L17.7494 17.7782V18.5378H21.6865Z" fill="#CC9C63"/>
</svg>
