<svg width="25" height="25" viewBox="0 0 25 25" fill="none" xmlns="http://www.w3.org/2000/svg">
<path d="M21.2242 13.1953L16.9688 10.1562L21.2242 7.11641L23.1906 7.77187L23.6844 6.28984L21.875 5.68672V3.90625H20.3125V5.84766L16.4063 8.63828V4.19297L18.4023 2.8625L17.5352 1.5625L15.625 2.83594L13.7148 1.5625L12.8477 2.8625L14.8438 4.19297V8.63828L12.5 6.96406V8.88437L14.2813 10.1562L12.5 11.4281V13.3484L14.8438 11.6742V16.9555L17.5352 18.75L18.4023 17.45L16.4063 16.1195V11.6742L20.3125 14.4648V16.4062H21.875V14.6258L23.6844 14.0219L23.1906 12.5398L21.2242 13.1953ZM9.375 17.9688C9.375 18.5904 9.12807 19.1865 8.68853 19.626C8.24899 20.0656 7.65285 20.3125 7.03125 20.3125C6.40965 20.3125 5.81351 20.0656 5.37397 19.626C4.93443 19.1865 4.6875 18.5904 4.6875 17.9688H9.375Z" fill="#CC9C63"/>
<path d="M7.0312 23.4375C5.95461 23.4387 4.90167 23.1218 4.00459 22.5266C3.1075 21.9314 2.40627 21.0844 1.98894 20.092C1.57161 19.0996 1.4568 18.006 1.65891 16.9486C1.86102 15.8911 2.37105 14.917 3.12495 14.1484V5.46875C3.12495 4.43275 3.5365 3.43918 4.26906 2.70661C5.00163 1.97405 5.99519 1.5625 7.0312 1.5625C8.0672 1.5625 9.06077 1.97405 9.79333 2.70661C10.5259 3.43918 10.9374 4.43275 10.9374 5.46875V14.1484C11.6913 14.917 12.2014 15.8911 12.4035 16.9486C12.6056 18.006 12.4908 19.0996 12.0735 20.092C11.6561 21.0844 10.9549 21.9314 10.0578 22.5266C9.16072 23.1218 8.10778 23.4387 7.0312 23.4375ZM7.0312 3.125C6.40979 3.12562 5.814 3.37275 5.3746 3.81215C4.9352 4.25156 4.68807 4.84734 4.68745 5.46875V14.8305L4.42807 15.0641C3.83813 15.5913 3.42223 16.2853 3.2354 17.0542C3.04858 17.8231 3.09964 18.6305 3.38184 19.3697C3.66403 20.1089 4.16406 20.745 4.81572 21.1938C5.46739 21.6425 6.23996 21.8828 7.0312 21.8828C7.82243 21.8828 8.59501 21.6425 9.24667 21.1938C9.89834 20.745 10.3984 20.1089 10.6806 19.3697C10.9628 18.6305 11.0138 17.8231 10.827 17.0542C10.6402 16.2853 10.2243 15.5913 9.63432 15.0641L9.37495 14.8305V5.46875C9.37433 4.84734 9.1272 4.25156 8.68779 3.81215C8.24839 3.37275 7.65261 3.12562 7.0312 3.125Z" fill="#CC9C63"/>
</svg>
