<svg width="19" height="22" viewBox="0 0 19 22" fill="none" xmlns="http://www.w3.org/2000/svg">
<path d="M14.9688 8.45313V7.59375C14.9662 6.76574 14.6361 5.97238 14.0506 5.38689C13.4651 4.80139 12.6718 4.47133 11.8438 4.46875H10.2812V2.125H13.4062C13.6135 2.125 13.8122 2.20731 13.9587 2.35382C14.1052 2.50034 14.1875 2.69905 14.1875 2.90625C14.1875 3.11345 14.2698 3.31216 14.4163 3.45868C14.5628 3.60519 14.7615 3.6875 14.9688 3.6875C15.176 3.6875 15.3747 3.60519 15.5212 3.45868C15.6677 3.31216 15.75 3.11345 15.75 2.90625C15.7474 2.28544 15.4997 1.69079 15.0607 1.25181C14.6217 0.812826 14.0271 0.565071 13.4062 0.5625H7.15625C6.94905 0.5625 6.75034 0.64481 6.60382 0.791323C6.45731 0.937836 6.375 1.13655 6.375 1.34375C6.375 1.55095 6.45731 1.74966 6.60382 1.89618C6.75034 2.04269 6.94905 2.125 7.15625 2.125H8.71875V4.46875H7.15625C6.32824 4.47133 5.53488 4.80139 4.94939 5.38689C4.36389 5.97238 4.03383 6.76574 4.03125 7.59375V8.45313C3.14978 8.63492 2.35783 9.11481 1.78867 9.81202C1.21952 10.5092 0.907898 11.3812 0.90625 12.2812V20.0938C0.90625 20.5082 1.07087 20.9056 1.3639 21.1986C1.65692 21.4916 2.05435 21.6562 2.46875 21.6562H16.5312C16.9457 21.6562 17.3431 21.4916 17.6361 21.1986C17.9291 20.9056 18.0938 20.5082 18.0938 20.0938V12.2812C18.0921 11.3812 17.7805 10.5092 17.2113 9.81202C16.6422 9.11481 15.8502 8.63492 14.9688 8.45313ZM7.15625 6.03125H11.8438C12.2582 6.03125 12.6556 6.19587 12.9486 6.4889C13.2416 6.78192 13.4062 7.17935 13.4062 7.59375V8.375H5.59375V7.59375C5.59375 7.17935 5.75837 6.78192 6.0514 6.4889C6.34442 6.19587 6.74185 6.03125 7.15625 6.03125ZM16.5312 20.0938H2.46875V12.2812C2.47132 11.6604 2.71908 11.0658 3.15806 10.6268C3.59704 10.1878 4.19169 9.94007 4.8125 9.9375H14.1875C14.8083 9.94007 15.403 10.1878 15.8419 10.6268C16.2809 11.0658 16.5287 11.6604 16.5312 12.2812V20.0938Z" fill="#CC9C63"/>
</svg>
