<svg width="25" height="25" viewBox="0 0 25 25" fill="none" xmlns="http://www.w3.org/2000/svg">
<path fill-rule="evenodd" clip-rule="evenodd" d="M2.65796 9.87494C2.55976 9.87498 2.46283 9.89705 2.37429 9.93954C2.28576 9.98202 2.20789 10.0438 2.14642 10.1204C2.08495 10.197 2.04145 10.2864 2.01913 10.382C1.99681 10.4777 1.99623 10.5771 2.01745 10.673L4.18576 20.4304C4.34761 21.1592 4.75314 21.811 5.33539 22.2782C5.91764 22.7455 6.64181 23.0002 7.38836 23.0003H14.9906C15.7371 23.0002 16.4613 22.7455 17.0436 22.2782C17.6258 21.811 18.0313 21.1592 18.1932 20.4304L18.3651 19.656C19.3691 19.8438 20.4068 19.6341 21.2591 19.0712C22.1114 18.5083 22.7116 17.6362 22.933 16.6391C23.1545 15.642 22.9798 14.5979 22.4458 13.7271C21.9119 12.8564 21.0605 12.2272 20.0714 11.9724L20.3615 10.673C20.3827 10.5771 20.3821 10.4777 20.3598 10.382C20.3375 10.2864 20.294 10.197 20.2325 10.1204C20.1711 10.0438 20.0932 9.98202 20.0047 9.93954C19.9161 9.89705 19.8192 9.87498 19.721 9.87494H2.65796ZM19.0647 18.4064C18.9258 18.4064 18.7871 18.3955 18.6499 18.3736L19.7879 13.2574C20.395 13.4332 20.9183 13.822 21.2618 14.3525C21.6053 14.883 21.746 15.5195 21.6581 16.1454C21.5702 16.7712 21.2596 17.3444 20.7832 17.7597C20.3069 18.175 19.6967 18.4047 19.0647 18.4064ZM5.4668 20.1456L3.47568 11.1875H18.9033L16.9121 20.1456C16.8151 20.5829 16.5718 20.974 16.2224 21.2544C15.8731 21.5348 15.4385 21.6877 14.9906 21.6878H7.38836C6.9404 21.6877 6.50586 21.5348 6.15651 21.2544C5.80715 20.974 5.56386 20.5829 5.4668 20.1456Z" fill="#CC9C63"/>
<path d="M7.77701 3.04972L7.77307 3.05497L7.7547 3.07991C7.65944 3.2115 7.5701 3.34726 7.48694 3.4868C7.41773 3.59949 7.35591 3.71655 7.30187 3.83725C7.26774 3.916 7.25724 3.958 7.25331 3.97244V3.97769C7.26814 4.09379 7.30896 4.20506 7.37275 4.3032C7.47119 4.47777 7.60638 4.66021 7.77701 4.88728L7.79013 4.90303C7.94501 5.11041 8.13139 5.35848 8.27577 5.61574C8.42278 5.87825 8.56453 6.21294 8.56453 6.59358C8.56453 6.84034 8.47922 7.07659 8.40834 7.24197C8.33129 7.41739 8.24272 7.58752 8.14321 7.75124C8.0396 7.92296 7.92881 8.09023 7.81113 8.25263L7.78751 8.28544L7.78095 8.29594L7.77832 8.29857C7.67406 8.43799 7.51869 8.53028 7.34639 8.55514C7.17408 8.58 6.99896 8.53539 6.85954 8.43114C6.72013 8.32688 6.62784 8.17151 6.60298 7.9992C6.57811 7.8269 6.62272 7.65177 6.72698 7.51236L6.73091 7.50711L6.74929 7.48217C6.84457 7.3506 6.93391 7.21484 7.01705 7.07528C7.08723 6.96315 7.14908 6.84602 7.20212 6.72483C7.23624 6.64608 7.24674 6.60408 7.25068 6.58964C7.23702 6.47183 7.19661 6.3587 7.13255 6.25888C7.00967 6.05592 6.87422 5.86085 6.72698 5.6748L6.71385 5.65905C6.53682 5.43217 6.3746 5.19411 6.22821 4.94634C6.04944 4.65066 5.94998 4.31386 5.93945 3.9685C5.93945 3.72174 6.02477 3.48549 6.09565 3.32011C6.17309 3.13898 6.27153 2.96047 6.36078 2.81084C6.46439 2.63913 6.57518 2.47185 6.69285 2.30945L6.72566 2.26351C6.82992 2.1241 6.98529 2.03181 7.1576 2.00694C7.3299 1.98208 7.50502 2.02669 7.64444 2.13095C7.78386 2.2352 7.87615 2.39058 7.90101 2.56288C7.92587 2.73518 7.88127 2.91031 7.77701 3.04972ZM11.7146 3.04972L11.7107 3.05497L11.6923 3.07991C11.5971 3.2115 11.5077 3.34726 11.4246 3.4868C11.3553 3.59949 11.2935 3.71655 11.2395 3.83725C11.2054 3.916 11.1949 3.958 11.1909 3.97244V3.97769C11.2058 4.09379 11.2466 4.20506 11.3104 4.3032C11.4088 4.47777 11.544 4.66021 11.7146 4.88728L11.7278 4.90303C11.8826 5.11041 12.069 5.35848 12.2134 5.61574C12.3604 5.87825 12.5022 6.21294 12.5022 6.59358C12.5022 6.84034 12.4168 7.07659 12.346 7.24197C12.2689 7.41739 12.1803 7.58752 12.0808 7.75124C11.9772 7.92296 11.8664 8.09023 11.7488 8.25263L11.7251 8.28544L11.7186 8.29594L11.7159 8.29857C11.6117 8.43799 11.4563 8.53028 11.284 8.55514C11.1117 8.58 10.9366 8.53539 10.7972 8.43114C10.6577 8.32688 10.5655 8.17151 10.5406 7.9992C10.5157 7.8269 10.5603 7.65177 10.6646 7.51236L10.6685 7.50711L10.6869 7.48217C10.7822 7.3506 10.8715 7.21484 10.9547 7.07528C11.0248 6.96315 11.0867 6.84602 11.1397 6.72483C11.1739 6.64608 11.1844 6.60408 11.1883 6.58964C11.1746 6.47183 11.1342 6.3587 11.0702 6.25888C10.9473 6.05592 10.8118 5.86085 10.6646 5.6748L10.6515 5.65905C10.4744 5.43217 10.3122 5.19411 10.1658 4.94634C9.98706 4.65066 9.8876 4.31386 9.87707 3.9685C9.87707 3.72174 9.96239 3.48549 10.0333 3.32011C10.1107 3.13898 10.2091 2.96047 10.2984 2.81084C10.402 2.63913 10.5128 2.47185 10.6305 2.30945L10.6633 2.26351C10.7675 2.1241 10.9229 2.03181 11.0952 2.00694C11.2675 1.98208 11.4426 2.02669 11.5821 2.13095C11.7215 2.2352 11.8138 2.39058 11.8386 2.56288C11.8635 2.73518 11.8189 2.91031 11.7146 3.04972ZM15.6522 3.04972L15.6483 3.05497L15.6299 3.07991C15.5346 3.21141 15.4452 3.34718 15.3622 3.4868C15.293 3.5995 15.2312 3.71656 15.1771 3.83725C15.143 3.916 15.1325 3.958 15.1285 3.97244V3.97769C15.1434 4.09379 15.1842 4.20506 15.248 4.3032C15.3464 4.47777 15.4816 4.66021 15.6522 4.88728L15.6654 4.90303C15.8203 5.11041 16.0066 5.35848 16.151 5.61574C16.298 5.87825 16.4398 6.21294 16.4398 6.59358C16.4398 6.84034 16.3545 7.07659 16.2836 7.24197C16.2069 7.41758 16.1183 7.58774 16.0184 7.75124C15.9153 7.92298 15.805 8.09026 15.6877 8.25263L15.6627 8.28544L15.6562 8.29594L15.6536 8.29857C15.5493 8.43799 15.3939 8.53028 15.2216 8.55514C15.0493 8.58 14.8742 8.53539 14.7348 8.43114C14.5954 8.32688 14.5031 8.17151 14.4782 7.9992C14.4534 7.8269 14.498 7.65177 14.6022 7.51236L14.6062 7.50711L14.6245 7.48217C14.7198 7.3506 14.8091 7.21484 14.8923 7.07528C14.9625 6.96315 15.0243 6.84602 15.0774 6.72483C15.1115 6.64608 15.122 6.60408 15.1259 6.58964C15.1123 6.47183 15.0719 6.3587 15.0078 6.25888C14.8849 6.05592 14.7495 5.86085 14.6022 5.6748L14.5891 5.65905C14.4121 5.43217 14.2498 5.19411 14.1034 4.94634C13.9247 4.65066 13.8252 4.31386 13.8147 3.9685C13.8147 3.72174 13.9 3.48549 13.9709 3.32011C14.0483 3.13898 14.1468 2.96047 14.236 2.81084C14.3396 2.63913 14.4504 2.47185 14.5681 2.30945L14.6009 2.26351C14.7052 2.1241 14.8605 2.03181 15.0328 2.00694C15.2051 1.98208 15.3803 2.02669 15.5197 2.13095C15.6591 2.2352 15.7514 2.39058 15.7762 2.56288C15.8011 2.73518 15.7565 2.91031 15.6522 3.04972Z" fill="#CC9C63"/>
</svg>
