<svg width="25" height="21" viewBox="0 0 25 21" fill="none" xmlns="http://www.w3.org/2000/svg">
<path d="M24.8592 6.21002C24.7952 6.7376 24.7259 7.26454 24.6683 7.79341C24.4767 9.55029 24.2896 11.3085 24.1006 13.0654C23.9666 14.3095 23.8313 15.5531 23.6992 16.7973C23.4798 18.8649 21.8006 20.5628 19.7323 20.8043C17.2711 21.0924 15.087 19.5213 14.6436 17.0944C14.4785 16.1914 14.4261 15.2676 14.3264 14.3536C14.1516 12.7488 13.9807 11.1434 13.8079 9.53864C13.6913 8.455 13.5632 7.37329 13.4609 6.28835C13.1851 3.35461 15.0818 0.768483 17.9657 0.129559C21.071 -0.558564 24.241 1.57118 24.7654 4.69719C24.7932 4.86291 24.8282 5.02798 24.8592 5.19305V6.21067V6.21002ZM19.0733 9.06867C17.8745 9.08033 16.6795 9.31661 15.5389 9.82218C15.3667 9.89856 15.3194 9.9866 15.3395 10.1672C15.4663 11.2903 15.5803 12.4141 15.7026 13.5379C15.8198 14.6131 15.9124 15.6916 16.0677 16.761C16.2833 18.2441 17.5437 19.3413 19.0202 19.3879C20.5454 19.4365 21.864 18.4389 22.187 16.9578C22.2913 16.4788 22.3243 15.9836 22.378 15.4948C22.5709 13.7295 22.756 11.9636 22.9515 10.1989C22.9697 10.0371 22.9367 9.95618 22.7819 9.88432C21.6193 9.34574 20.3971 9.08356 19.0733 9.06867ZM23.1393 8.44399C23.2286 7.55455 23.3626 6.69941 23.3917 5.84039C23.4662 3.60966 21.888 1.80617 19.6359 1.49027C17.3035 1.16271 15.0067 3.04324 14.9129 5.39243C14.8883 6.0087 14.9821 6.63079 15.032 7.249C15.0624 7.62899 15.1135 8.00768 15.1569 8.40062C17.8304 7.35064 20.467 7.36229 23.1393 8.44464V8.44399Z" fill="#CC9C63"/>
<path d="M0.00129468 5.19249C0.0828595 4.81509 0.14112 4.43122 0.25052 4.06158C0.996903 1.53566 3.45938 -0.168782 6.07917 0.0163576C8.75462 0.204733 10.9355 2.18171 11.3563 4.79178C11.4916 5.63332 11.3822 6.4658 11.2915 7.30087C11.1194 8.88944 10.9504 10.4787 10.7789 12.0672C10.6008 13.7121 10.4474 15.3603 10.2357 17.0006C9.98327 18.9582 8.28595 20.5752 6.31221 20.8031C3.79212 21.0937 1.60734 19.4845 1.19111 16.9877C1.03639 16.0574 0.976836 15.1117 0.875203 14.173C0.68618 12.4239 0.498452 10.6742 0.310723 8.92505C0.222685 8.10681 0.136589 7.28793 0.0479031 6.46904C0.038193 6.3823 0.0161835 6.2962 0 6.2101V5.19249H0.00129468ZM5.66228 9.06941C4.44658 9.07976 3.24382 9.31669 2.09673 9.82938C1.92454 9.90641 1.87146 9.9964 1.90577 10.1777C1.94785 10.399 1.96273 10.6256 1.98733 10.8502C2.19901 12.8078 2.39839 14.7673 2.62561 16.7236C2.7991 18.2144 4.14038 19.3718 5.67134 19.3912C7.21072 19.4107 8.56819 18.2992 8.78829 16.809C8.90351 16.027 8.97342 15.2386 9.05887 14.452C9.21294 13.0402 9.36053 11.627 9.51784 10.2152C9.5379 10.0346 9.48676 9.9459 9.31781 9.86822C8.16813 9.34258 6.96084 9.08559 5.66228 9.06876V9.06941ZM9.70039 8.44084C9.74764 8.01748 9.79878 7.6116 9.83698 7.20442C9.9043 6.48264 10.0338 5.76603 9.9166 5.03454C9.5994 3.04655 7.871 1.51107 5.87979 1.46251C3.77464 1.41073 1.94461 2.81869 1.56333 4.83257C1.46881 5.33102 1.48629 5.85925 1.51413 6.37C1.55103 7.04129 1.64942 7.70999 1.72387 8.4007C4.40191 7.34813 7.04629 7.36043 9.70103 8.44084H9.70039Z" fill="#CC9C63"/>
</svg>
