<svg width="30" height="30" viewBox="0 0 30 30" fill="none" xmlns="http://www.w3.org/2000/svg">
<path d="M18.6476 0C20.6576 0 21.6626 1.368 21.6626 2.9355C21.6626 4.893 19.9166 6.7035 17.6441 6.7035C15.7406 6.7035 14.6306 5.5785 14.6831 3.7185C14.6831 2.154 16.0046 0 18.6476 0ZM12.4631 30C10.8761 30 9.71361 29.022 10.8236 24.714L12.6446 17.076C12.9611 15.855 13.0136 15.3645 12.6446 15.3645C12.1691 15.3645 10.1111 16.2075 8.89161 17.04L8.09961 15.72C11.9576 12.441 16.3961 10.5195 18.3011 10.5195C19.8866 10.5195 20.1506 12.429 19.3586 15.3645L17.2721 23.3925C16.9031 24.81 17.0606 25.299 17.4311 25.299C17.9066 25.299 19.4666 24.711 20.9996 23.4885L21.8996 24.7095C18.1466 28.53 14.0471 30 12.4631 30Z" fill="white"/>
</svg>
