<svg width="20" height="20" viewBox="0 0 20 20" fill="none" xmlns="http://www.w3.org/2000/svg">
<g clip-path="url(#clip0_601_123)">
<path d="M14.6501 14.0845L14.8131 13.964C15.6363 13.3557 16.7967 13.5298 17.405 14.3529L18.4601 15.7805C19.0684 16.6036 18.8943 17.7641 18.0711 18.3724L17.9082 18.4928L14.6501 14.0845Z" fill="#CC9C63"/>
<path d="M4.87329 0.857178L5.03819 0.735306C5.86132 0.126971 7.02175 0.301096 7.63009 1.12423L8.68539 2.55214C9.29372 3.37527 9.1196 4.5357 8.29647 5.14403L8.13156 5.2659L4.87329 0.857178Z" fill="#CC9C63"/>
<path d="M17.9078 18.4935C17.1891 19.0247 16.3292 19.3312 15.4365 19.3745L14.2893 19.4301C12.7775 19.5035 11.3291 18.8163 10.4295 17.5991L3.53378 8.26859C2.63418 7.05136 2.40245 5.46509 2.91626 4.04139L3.30612 2.96107C3.60948 2.12043 4.15491 1.38839 4.87368 0.857187L8.13222 5.26627L7.45444 6.23142C7.11619 6.71311 7.12395 7.35718 7.4738 7.83056L12.0047 13.9613C12.3545 14.4346 12.968 14.6311 13.5277 14.4491L14.6493 14.0845L17.9078 18.4935Z" fill="#CC9C63"/>
</g>
<defs>
<clipPath id="clip0_601_123">
<rect width="20" height="20" fill="white"/>
</clipPath>
</defs>
</svg>
