<svg width="25" height="25" viewBox="0 0 25 25" fill="none" xmlns="http://www.w3.org/2000/svg">
<path d="M23.0003 7.41366C22.9981 12.2349 22.9954 17.0562 22.9932 21.878C22.9954 21.9306 23.0118 22.506 22.5705 22.8216C22.3714 22.9635 22.1636 22.9931 22.0515 22.9997C15.7533 22.9997 9.45447 22.9997 3.15623 22.9997C3.11303 23.003 2.53663 23.0364 2.20031 22.586C1.98977 22.3038 1.99469 21.9942 2.00071 21.8961C2.00071 17.0688 2.00071 12.2415 2.00071 7.41421C2.00727 7.39119 2.03133 7.34407 2.03899 7.28051C2.26593 5.44822 3.73153 3.874 5.55861 3.62524C6.17164 3.54195 6.64359 3.32223 7.08163 2.92552C7.43873 2.60169 7.82208 2.30745 8.19395 2.00006H16.8071C16.8229 2.02143 16.8344 2.04718 16.8546 2.06307C17.4338 2.52937 18.0118 2.9973 18.597 3.45592C18.6697 3.51291 18.7813 3.54085 18.8764 3.54524C20.7511 3.63181 22.3419 4.8937 22.8406 6.70134C22.9052 6.93586 22.9478 7.1764 23.0003 7.41421V7.41366ZM3.23115 15.9708H10.6439C10.6488 15.9368 10.6537 15.9165 10.6537 15.8968C10.6543 14.0656 10.6559 12.2344 10.6499 10.4037C10.6499 10.3194 10.5996 10.2218 10.5444 10.1533C9.1794 8.44597 7.80403 6.74737 6.45054 5.03124C6.26297 4.79343 6.08141 4.76165 5.82274 4.80932C4.27457 5.09261 3.23224 6.33203 3.23115 7.9057C3.22951 10.5226 3.23115 13.1396 3.23115 15.756C3.23115 15.8234 3.23115 15.8908 3.23115 15.9719V15.9708ZM21.7699 15.9768C21.7699 15.9127 21.7699 15.8721 21.7699 15.8316C21.7699 13.167 21.7704 10.5024 21.7682 7.83776C21.7682 7.67447 21.7502 7.51064 21.7278 7.34845C21.5402 6.00601 20.3097 4.86686 18.9694 4.78302C18.8245 4.77371 18.7348 4.81261 18.6423 4.92768C17.2528 6.66792 15.8566 8.40268 14.4681 10.1435C14.3992 10.23 14.3516 10.3605 14.3511 10.4706C14.344 12.2333 14.3462 13.996 14.3462 15.7587V15.9762H21.7699V15.9768ZM3.24154 18.4332H21.754V17.2261H3.24154V18.4332ZM13.1163 15.9757V15.7193C13.1163 13.8261 13.1141 11.933 13.1212 10.0405C13.1212 9.92977 13.1671 9.79772 13.236 9.7117C14.4195 8.22625 15.6105 6.74682 16.7994 5.2652C17.0674 4.93096 17.3348 4.59618 17.6121 4.24988C17.2839 3.98687 16.9733 3.73756 16.6589 3.48551C16.6173 3.53209 16.5889 3.56113 16.5637 3.59236C15.0456 5.48383 13.5259 7.37475 12.0133 9.27061C11.9405 9.36157 11.8913 9.50019 11.8908 9.61636C11.8836 11.6667 11.8853 13.7166 11.8853 15.7669V15.9762H13.1157L13.1163 15.9757ZM10.651 19.6901H3.24646V21.752H10.6505V19.6901H10.651ZM14.356 21.7548H21.754V19.6879H14.356V21.7548ZM9.73392 3.24004C10.6652 4.40002 11.5758 5.53479 12.5011 6.6871C13.4269 5.53315 14.3374 4.39892 15.2676 3.24004H9.73392ZM11.7119 7.67009C10.5854 6.26738 9.46869 4.87617 8.34762 3.47949C8.01677 3.74578 7.70615 3.99619 7.38951 4.25098C8.5773 5.7304 9.7454 7.18517 10.9228 8.65199C11.1908 8.3183 11.4423 8.00488 11.7114 7.67009H11.7119ZM13.1021 21.7591V19.6929H11.8957V21.7591H13.1021Z" fill="#CC9C63"/>
</svg>
