<svg width="19" height="11" viewBox="0 0 19 11" fill="none" xmlns="http://www.w3.org/2000/svg">
<path d="M6.8869 10.2277L4.95677 7.43815C4.87578 7.44722 4.75431 7.45175 4.59234 7.45175H2.45974V10.2277H0.705078V0.702271H4.59234C5.41118 0.702271 6.12205 0.838349 6.72493 1.11051C7.33682 1.38266 7.80473 1.77275 8.12866 2.28078C8.4526 2.7888 8.61457 3.39208 8.61457 4.09062C8.61457 4.8073 8.43911 5.42419 8.08817 5.94128C7.74624 6.45838 7.25133 6.84394 6.60345 7.09795L8.77654 10.2277H6.8869ZM6.84641 4.09062C6.84641 3.4828 6.64845 3.0156 6.25252 2.68901C5.8566 2.36243 5.27621 2.19913 4.51135 2.19913H2.45974V5.99572H4.51135C5.27621 5.99572 5.8566 5.83242 6.25252 5.50583C6.64845 5.17017 6.84641 4.69844 6.84641 4.09062Z" fill="white"/>
<path d="M14.6404 10.3638C13.3357 10.3638 12.3189 9.99642 11.59 9.26159C10.8612 8.5177 10.4967 7.45629 10.4967 6.07736V0.702271H12.2514V6.00932C12.2514 7.87813 13.0522 8.81254 14.6539 8.81254C16.2466 8.81254 17.043 7.87813 17.043 6.00932V0.702271H18.7706V6.07736C18.7706 7.45629 18.4062 8.5177 17.6774 9.26159C16.9575 9.99642 15.9452 10.3638 14.6404 10.3638Z" fill="white"/>
</svg>
