<svg width="25" height="25" viewBox="0 0 25 25" fill="none" xmlns="http://www.w3.org/2000/svg">
<path d="M3.3125 3.96875C3.3125 3.44661 3.51992 2.94585 3.88913 2.57663C4.25835 2.20742 4.7591 2 5.28125 2H21.0312C21.5534 2 22.0542 2.20742 22.4234 2.57663C22.7926 2.94585 23 3.44661 23 3.96875V21.0312C23 21.5534 22.7926 22.0542 22.4234 22.4234C22.0542 22.7926 21.5534 23 21.0312 23H5.28125C4.7591 23 4.25835 22.7926 3.88913 22.4234C3.51992 22.0542 3.3125 21.5534 3.3125 21.0312V19.0625H2.65625C2.4822 19.0625 2.31528 18.9934 2.19221 18.8703C2.06914 18.7472 2 18.5803 2 18.4062C2 18.2322 2.06914 18.0653 2.19221 17.9422C2.31528 17.8191 2.4822 17.75 2.65625 17.75H3.3125V13.1562H2.65625C2.4822 13.1562 2.31528 13.0871 2.19221 12.964C2.06914 12.841 2 12.674 2 12.5C2 12.326 2.06914 12.159 2.19221 12.036C2.31528 11.9129 2.4822 11.8438 2.65625 11.8438H3.3125V7.25H2.65625C2.4822 7.25 2.31528 7.18086 2.19221 7.05779C2.06914 6.93472 2 6.7678 2 6.59375C2 6.4197 2.06914 6.25278 2.19221 6.12971C2.31528 6.00664 2.4822 5.9375 2.65625 5.9375H3.3125V3.96875ZM5.28125 3.3125C5.1072 3.3125 4.94028 3.38164 4.81721 3.50471C4.69414 3.62778 4.625 3.7947 4.625 3.96875V21.0312C4.625 21.2053 4.69414 21.3722 4.81721 21.4953C4.94028 21.6184 5.1072 21.6875 5.28125 21.6875H21.0312C21.2053 21.6875 21.3722 21.6184 21.4953 21.4953C21.6184 21.3722 21.6875 21.2053 21.6875 21.0312V3.96875C21.6875 3.7947 21.6184 3.62778 21.4953 3.50471C21.3722 3.38164 21.2053 3.3125 21.0312 3.3125H5.28125Z" fill="#CC9C63"/>
<path d="M19.7188 9.875C19.8929 9.875 20.0598 9.94414 20.1829 10.0672C20.306 10.1903 20.3751 10.3572 20.3751 10.5312V14.4687C20.3751 14.6428 20.306 14.8097 20.1829 14.9328C20.0598 15.0559 19.8929 15.125 19.7188 15.125C19.5448 15.125 19.3779 15.0559 19.2548 14.9328C19.1317 14.8097 19.0626 14.6428 19.0626 14.4687V10.5312C19.0626 10.3572 19.1317 10.1903 19.2548 10.0672C19.3779 9.94414 19.5448 9.875 19.7188 9.875ZM8.33684 7.859C8.3978 7.79788 8.47022 7.7494 8.54995 7.71631C8.62968 7.68323 8.71515 7.6662 8.80147 7.6662C8.88779 7.6662 8.97326 7.68323 9.05299 7.71631C9.13271 7.7494 9.20513 7.79788 9.26609 7.859L10.6967 9.28962C11.3633 8.81656 12.1605 8.56243 12.9778 8.56243C13.7952 8.56243 14.5924 8.81656 15.259 9.28962L16.6896 7.859C16.8128 7.73594 16.9799 7.66688 17.154 7.66701C17.3282 7.66713 17.4951 7.73643 17.6182 7.85965C17.7412 7.98288 17.8103 8.14994 17.8102 8.32409C17.8101 8.49823 17.7408 8.66519 17.6175 8.78825L16.1869 10.2189C17.1582 11.5799 17.1582 13.4214 16.1869 14.7811L17.6175 16.2117C17.7408 16.3348 17.8101 16.5018 17.8102 16.6759C17.8103 16.8501 17.7412 17.0171 17.6182 17.1403C17.4951 17.2636 17.3282 17.3329 17.154 17.333C16.9799 17.3331 16.8128 17.2641 16.6896 17.141L15.259 15.7104C14.5925 16.1836 13.7953 16.4379 12.9778 16.4379C12.1604 16.4379 11.3632 16.1836 10.6967 15.7104L9.26609 17.141C9.20508 17.202 9.13264 17.2504 9.05292 17.2834C8.9732 17.3165 8.88776 17.3335 8.80147 17.3335C8.71518 17.3335 8.62973 17.3165 8.55001 17.2834C8.47029 17.2504 8.39786 17.202 8.33684 17.141C8.27583 17.08 8.22743 17.0075 8.1944 16.9278C8.16138 16.8481 8.14439 16.7627 8.14439 16.6764C8.14439 16.5901 8.16138 16.5046 8.1944 16.4249C8.22743 16.3452 8.27583 16.2728 8.33684 16.2117L9.76747 14.7811C9.2944 14.1145 9.04028 13.3174 9.04028 12.5C9.04028 11.6826 9.2944 10.8854 9.76747 10.2189L8.33684 8.78825C8.27573 8.72729 8.22724 8.65487 8.19416 8.57514C8.16107 8.49541 8.14404 8.40994 8.14404 8.32362C8.14404 8.2373 8.16107 8.15183 8.19416 8.0721C8.22724 7.99237 8.27573 7.91996 8.33684 7.859ZM11.122 10.6441C10.8713 10.8863 10.6713 11.1759 10.5337 11.4962C10.3961 11.8164 10.3237 12.1609 10.3207 12.5094C10.3177 12.858 10.3841 13.2036 10.5161 13.5263C10.648 13.8489 10.843 14.1419 11.0894 14.3884C11.3359 14.6349 11.629 14.8298 11.9516 14.9618C12.2742 15.0938 12.6198 15.1602 12.9684 15.1572C13.3169 15.1541 13.6614 15.0817 13.9817 14.9441C14.3019 14.8066 14.5916 14.6066 14.8337 14.3559C15.3119 13.8608 15.5765 13.1977 15.5705 12.5094C15.5645 11.8212 15.2884 11.1628 14.8017 10.6761C14.315 10.1894 13.6567 9.91333 12.9684 9.90735C12.2801 9.90137 11.617 10.166 11.122 10.6441Z" fill="#CC9C63"/>
</svg>
