<svg width="25" height="25" viewBox="0 0 25 25" fill="none" xmlns="http://www.w3.org/2000/svg">
<path d="M6.60552 10.0942L10.9442 12.6134L7.03608 14.8827L2.35889 13.6294V15.247L6.01353 16.2262L5.02891 19.9009L6.42978 20.7097L7.59375 16.3657L11.7188 13.9705V18.2814L8.24341 21.7568L9.64429 22.5656L12.5978 19.6122L15.4852 22.4996L16.8861 21.6908L13.2813 18.086V13.9705L17.3342 16.3237L18.5196 20.7478L19.9205 19.9389L18.9257 16.2262L22.6563 15.2266V13.609L17.9448 14.8714L14.056 12.6134L18.3754 10.1053L22.6563 11.2524V9.63478L19.2553 8.7235L20.1942 5.21915L18.7934 4.41031L17.6366 8.7275L13.2813 11.2564V6.3754L16.5447 3.11207L15.1438 2.30328L12.4499 4.99723L9.79814 2.34557L8.39727 3.15436L11.7188 6.47594V11.2564L7.29136 8.68556L6.15601 4.4484L4.75508 5.25719L5.68389 8.7235L2.35889 9.61442V11.232L6.60552 10.0942Z" fill="#CC9C63"/>
</svg>
