<svg width="20" height="21" viewBox="0 0 20 21" fill="none" xmlns="http://www.w3.org/2000/svg">
<path fill-rule="evenodd" clip-rule="evenodd" d="M1 10.4806C1 5.52376 5.02376 1.5 9.98056 1.5C14.9374 1.5 18.9611 5.52376 19 10.5194C19 15.4762 14.9762 19.5 10.0194 19.5C8.54212 19.5 7.08423 19.1307 5.78186 18.4309L2.0108 19.4611C1.93305 19.4806 1.87473 19.4806 1.79698 19.4806C1.56371 19.4806 1.34989 19.3834 1.19438 19.2084C1 18.9752 0.961123 18.6447 1.07775 18.3726L2.43845 15.3596C1.48596 13.9017 1 12.23 1 10.4806ZM12.3904 11.7746C12.8882 11.5308 13.4765 11.8478 13.9065 12.1404C13.9743 12.185 14.0497 12.231 14.1289 12.2794C14.5254 12.5216 15.0191 12.823 15.1511 13.3108C15.1964 13.5546 15.1511 13.8472 15.0606 14.0911C14.7438 14.9202 13.9518 15.4566 13.1371 15.6273C12.4505 15.7579 11.872 15.5583 11.2408 15.3405C11.1647 15.3143 11.0879 15.2878 11.01 15.2615C10.3764 15.0421 9.74277 14.7007 9.17705 14.3349C8.0456 13.579 7.04992 12.5793 6.25791 11.4088C6.00899 11.0675 5.7827 10.7017 5.57904 10.3116C5.28486 9.79949 5.05857 9.26304 4.9228 8.7022C4.85491 8.45836 4.83228 8.21452 4.83228 7.97068C4.80966 7.11724 5.12646 6.23941 5.76007 5.67858C6.12214 5.3372 6.66523 5.21528 7.07255 5.45912C7.46871 5.6939 7.69148 6.2463 7.87746 6.70746C7.90395 6.77315 7.92969 6.83698 7.95508 6.89778C8.11348 7.26354 8.29452 7.77561 8.22663 8.19014C8.16499 8.56649 7.89818 8.90264 7.66328 9.19859C7.63945 9.22862 7.61594 9.25823 7.59302 9.28742C7.43462 9.50688 7.41199 9.70195 7.54776 9.92141C8.3624 11.3845 9.49385 12.4574 10.9874 13.0913C11.191 13.1645 11.3494 13.1401 11.4852 12.9694C11.5596 12.8673 11.6361 12.7347 11.717 12.5944C11.9066 12.2655 12.1207 11.8943 12.3904 11.7746Z" fill="#CC9C63"/>
</svg>
