<svg width="25" height="25" viewBox="0 0 25 25" fill="none" xmlns="http://www.w3.org/2000/svg">
<path d="M17.6514 15.1489C16.2793 13.9551 14.4873 13.2324 12.5244 13.2324C10.5615 13.2324 8.76952 13.9551 7.39501 15.1514C7.35705 15.1856 7.33381 15.2332 7.33017 15.2842C7.32653 15.3351 7.34277 15.3855 7.37547 15.4248L8.25438 16.4722C8.32518 16.5552 8.44969 16.5649 8.5327 16.4941C9.59715 15.5566 10.9936 14.9902 12.5244 14.9902C14.0552 14.9902 15.4516 15.5566 16.5161 16.4917C16.5991 16.5625 16.7236 16.5527 16.7944 16.4697L17.6733 15.4224C17.7417 15.3418 17.7319 15.2197 17.6514 15.1489ZM20.5176 11.7285C18.352 9.92432 15.5664 8.83789 12.5244 8.83789C9.48241 8.83789 6.69676 9.92432 4.5288 11.7285C4.48913 11.762 4.46431 11.8097 4.45974 11.8614C4.45516 11.9131 4.47121 11.9645 4.50438 12.0044L5.38329 13.0518C5.45165 13.1348 5.57616 13.1445 5.65672 13.0762C7.51952 11.5283 9.91454 10.5957 12.5244 10.5957C15.1343 10.5957 17.5293 11.5283 19.3896 13.0762C19.4726 13.1445 19.5947 13.1348 19.6631 13.0518L20.542 12.0044C20.6103 11.9214 20.6006 11.7969 20.5176 11.7285ZM23.3667 8.33496C20.4028 5.90332 16.6089 4.44336 12.4756 4.44336C8.36913 4.44336 4.5996 5.88379 1.64305 8.28613C1.62274 8.30245 1.6059 8.32267 1.59352 8.3456C1.58114 8.36853 1.57347 8.3937 1.57097 8.41963C1.56847 8.44557 1.57118 8.47174 1.57895 8.49661C1.58672 8.52149 1.59938 8.54455 1.6162 8.56445L2.4951 9.61182C2.56346 9.69238 2.68553 9.70459 2.7661 9.63867C5.41991 7.48779 8.79637 6.20117 12.4756 6.20117C16.1816 6.20117 19.5801 7.50732 22.2412 9.68506C22.3242 9.75342 22.4463 9.74121 22.5146 9.6582L23.3935 8.61084C23.4643 8.52783 23.4521 8.40332 23.3667 8.33496ZM10.9375 18.9941C10.9375 19.4085 11.1021 19.806 11.3951 20.099C11.6882 20.392 12.0856 20.5566 12.5 20.5566C12.9144 20.5566 13.3118 20.392 13.6048 20.099C13.8979 19.806 14.0625 19.4085 14.0625 18.9941C14.0625 18.5797 13.8979 18.1823 13.6048 17.8893C13.3118 17.5963 12.9144 17.4316 12.5 17.4316C12.0856 17.4316 11.6882 17.5963 11.3951 17.8893C11.1021 18.1823 10.9375 18.5797 10.9375 18.9941Z" fill="#CC9C63"/>
</svg>
