<svg width="25" height="25" viewBox="0 0 25 25" fill="none" xmlns="http://www.w3.org/2000/svg">
<path d="M22.3958 2.08331H2.60409C2.46595 2.08331 2.33348 2.13819 2.2358 2.23586C2.13813 2.33354 2.08325 2.46601 2.08325 2.60415V22.3958C2.08325 22.5339 2.13813 22.6664 2.2358 22.7641C2.33348 22.8618 2.46595 22.9166 2.60409 22.9166H22.3958C22.5339 22.9166 22.6664 22.8618 22.764 22.7641C22.8617 22.6664 22.9166 22.5339 22.9166 22.3958V2.60415C22.9166 2.46601 22.8617 2.33354 22.764 2.23586C22.6664 2.13819 22.5339 2.08331 22.3958 2.08331V2.08331ZM8.85409 21.875H3.12492V9.89581H8.85409V21.875ZM15.1041 21.875H9.89575V9.89581H15.1041V21.875ZM21.8749 21.875H16.1458V9.89581H21.8749V21.875ZM21.8749 8.85415H3.12492V3.12498H21.8749V8.85415Z" fill="#CC9C63"/>
</svg>
